<svg width="62" height="62" viewBox="0 0 62 62" fill="none" xmlns="http://www.w3.org/2000/svg">
<rect x="1.61908" y="1.38189" width="59" height="59" rx="4.5" transform="rotate(0.230526 1.61908 1.38189)" fill="white" stroke="#26A0DA"/>
<path d="M22.3326 40.8347C22.6043 40.5652 22.7578 40.1988 22.7593 39.8162C22.7609 39.4335 22.6103 39.0659 22.3408 38.7942L15.7256 32.1255L49.7106 32.2725C50.0918 32.2729 50.4577 32.1224 50.7283 31.854C50.9989 31.5855 51.1523 31.2209 51.155 30.8397C51.1565 30.6492 51.1204 30.4603 51.0485 30.2839C50.9767 30.1075 50.8707 29.947 50.7365 29.8118C50.6024 29.6766 50.4428 29.5693 50.267 29.496C50.0911 29.4228 49.9025 29.3851 49.712 29.3851L15.778 29.2486L22.3955 22.6842C22.6671 22.4147 22.8206 22.0483 22.8222 21.6656C22.8237 21.2829 22.6732 20.9153 22.4037 20.6436C22.1342 20.3719 21.7678 20.2185 21.3851 20.2169C21.0024 20.2154 20.6348 20.3659 20.3631 20.6354L11.1438 29.7809C10.8993 30.0234 10.7611 30.3532 10.7598 30.6976C10.7584 31.042 10.8939 31.3728 11.1364 31.6173L20.2819 40.8367C20.4161 40.9721 20.576 41.0795 20.752 41.1527C20.9281 41.226 21.1169 41.2636 21.3076 41.2634C21.4983 41.2633 21.6871 41.2253 21.8631 41.1517C22.039 41.0781 22.1986 40.9704 22.3326 40.8347Z" fill="#26A0DA"/>
</svg>
