<svg width="40" height="46" viewBox="0 0 40 46" fill="none" xmlns="http://www.w3.org/2000/svg">
<path d="M38.6202 22.2779C37.7201 21.2372 36.466 20.5336 35.0782 20.2909L37.2162 17.6619C37.336 17.5183 37.4246 17.3533 37.4767 17.1764C37.5288 16.9995 37.5434 16.8144 37.5196 16.632C37.4958 16.4496 37.4341 16.2737 37.3382 16.1145C37.2422 15.9554 37.1139 15.8163 36.9609 15.7054C36.655 15.4815 36.2695 15.3816 35.8875 15.4274C35.5055 15.4731 35.1576 15.6608 34.9186 15.95L31.5362 20.2909H8.43338L4.69991 16.1334C4.42612 15.8794 4.05993 15.7374 3.67879 15.7374C3.29766 15.7374 2.93147 15.8794 2.65768 16.1334C2.52261 16.2613 2.41537 16.4137 2.34218 16.5816C2.269 16.7495 2.23131 16.9297 2.23131 17.1116C2.23131 17.2936 2.269 17.4737 2.34218 17.6417C2.41537 17.8096 2.52261 17.9619 2.65768 18.0898L4.73182 20.2909C3.94965 20.4784 3.2141 20.8127 2.56775 21.2745C1.92141 21.7362 1.37713 22.3163 0.966448 22.981C0.0948521 24.3202 -0.202431 25.9304 0.136789 27.4747L2.43431 40.8336C2.6067 42.2142 3.28513 43.4914 4.34872 44.4375C5.41231 45.3836 6.79197 45.9373 8.24192 45.9999H31.9191C33.3438 45.9376 34.6993 45.3936 35.745 44.4646C36.7907 43.5356 37.4589 42.2816 37.631 40.9253L39.9604 27.5359C39.9781 27.2508 39.9781 26.965 39.9604 26.6799C40.0532 25.8977 39.9825 25.1056 39.7524 24.3498C39.5223 23.594 39.1374 22.8897 38.6202 22.2779ZM37.0885 27.0162L34.7591 40.5279C34.6721 41.2332 34.3315 41.8875 33.7958 42.3784C33.2601 42.8693 32.5627 43.1661 31.8234 43.2181H8.46529C7.70486 43.1778 6.98453 42.8784 6.43444 42.3738C5.88434 41.8692 5.54075 41.1928 5.46575 40.4668L3.13632 26.9245C3.01879 26.5071 2.99498 26.0706 3.06649 25.6438C3.138 25.2169 3.30319 24.8095 3.55115 24.4483C4.03838 23.7123 4.8049 23.1862 5.68912 22.981H6.04013H34.0571C34.5062 23.0177 34.9432 23.1393 35.343 23.3387C35.7428 23.5381 36.0975 23.8113 36.3865 24.1426C36.6795 24.4686 36.901 24.8476 37.0381 25.2572C37.1751 25.6669 37.2248 26.0987 37.1843 26.5271C37.1712 26.693 37.1391 26.857 37.0885 27.0162Z" fill="#26A0DA"/>
<path d="M12.1988 27.9946C11.8121 28.0024 11.4434 28.1531 11.1699 28.4151C10.8964 28.6772 10.7391 29.0303 10.731 29.4008V37.4406C10.731 37.8136 10.8856 38.1713 11.1609 38.435C11.4362 38.6987 11.8095 38.8468 12.1988 38.8468C12.5881 38.8468 12.9615 38.6987 13.2367 38.435C13.512 38.1713 13.6667 37.8136 13.6667 37.4406V29.462C13.6709 29.2733 13.6363 29.0856 13.5648 28.9098C13.4933 28.7339 13.3864 28.5732 13.2501 28.437C13.1138 28.3007 12.9508 28.1915 12.7704 28.1156C12.59 28.0397 12.3958 27.9986 12.1988 27.9946Z" fill="#26A0DA"/>
<path d="M19.8888 27.9946C19.696 27.9946 19.5051 28.031 19.327 28.1017C19.1489 28.1723 18.9871 28.2759 18.8508 28.4065C18.7145 28.5371 18.6064 28.6921 18.5326 28.8627C18.4589 29.0333 18.4209 29.2162 18.4209 29.4008V37.4406C18.4726 37.7741 18.6477 38.0786 18.9142 38.2988C19.1807 38.519 19.5209 38.6401 19.8728 38.6401C20.2247 38.6401 20.5649 38.519 20.8314 38.2988C21.0979 38.0786 21.273 37.7741 21.3247 37.4406V29.462C21.3333 29.2748 21.3027 29.0878 21.2347 28.9121C21.1668 28.7364 21.0629 28.5755 20.9291 28.4388C20.7953 28.3021 20.6344 28.1924 20.4557 28.1161C20.2771 28.0398 20.0843 27.9985 19.8888 27.9946Z" fill="#26A0DA"/>
<path d="M27.771 27.9944C27.4045 28.0401 27.0695 28.2166 26.8329 28.4886C26.5963 28.7606 26.4755 29.1081 26.4947 29.4617V37.5015C26.5464 37.835 26.7215 38.1395 26.988 38.3597C27.2545 38.5798 27.5947 38.7009 27.9466 38.7009C28.2985 38.7009 28.6386 38.5798 28.9051 38.3597C29.1716 38.1395 29.3467 37.835 29.3985 37.5015V29.4617C29.409 29.2584 29.3733 29.0553 29.2939 28.8664C29.2144 28.6776 29.0932 28.5076 28.9384 28.368C28.7837 28.2285 28.5991 28.1228 28.3976 28.0583C28.196 27.9938 27.9823 27.972 27.771 27.9944Z" fill="#26A0DA"/>
<path d="M18.8045 18.9765C18.942 19.1211 19.1096 19.2366 19.2964 19.3157C19.4832 19.3947 19.6852 19.4355 19.8894 19.4355C20.0937 19.4355 20.2956 19.3947 20.4824 19.3157C20.6693 19.2366 20.8368 19.1211 20.9744 18.9765L29.9411 9.46936C30.0761 9.34142 30.1834 9.18908 30.2566 9.02117C30.3297 8.85325 30.3674 8.67309 30.3674 8.49113C30.3674 8.30916 30.3297 8.12901 30.2566 7.96109C30.1834 7.79318 30.0761 7.64084 29.9411 7.5129C29.6659 7.24969 29.2929 7.10186 28.904 7.10186C28.5151 7.10186 28.1421 7.24969 27.8669 7.5129L21.4211 14.1771V1.61297C21.4521 1.41303 21.4378 1.20902 21.3791 1.01486C21.3204 0.820708 21.2186 0.640961 21.0808 0.487876C20.943 0.334791 20.7724 0.211967 20.5806 0.127774C20.3887 0.0435819 20.1802 0 19.9692 0C19.7582 0 19.5497 0.0435819 19.3578 0.127774C19.166 0.211967 18.9954 0.334791 18.8576 0.487876C18.7198 0.640961 18.6181 0.820708 18.5593 1.01486C18.5006 1.20902 18.4863 1.41303 18.5173 1.61297V14.4828L12.1353 7.60461C11.8655 7.37754 11.5181 7.25312 11.1589 7.25492C10.7998 7.25671 10.4538 7.38459 10.1864 7.61435C9.91907 7.84411 9.74893 8.15979 9.7082 8.50165C9.66748 8.8435 9.75899 9.1878 9.96543 9.46936L18.8045 18.9765Z" fill="#26A0DA"/>
</svg>
