<svg width="27" height="29" viewBox="0 0 27 29" fill="none" xmlns="http://www.w3.org/2000/svg">
<path d="M25.3225 21.7987C24.3092 20.5534 21.3301 18.1241 19.2523 17.9391C18.771 17.8962 18.3413 17.9658 17.9778 18.1567C16.904 18.7157 16.0493 19.1478 15.6597 19.1131C15.4458 19.0941 15.2337 18.8827 14.7683 18.4023L14.691 18.3184C13.4012 16.9791 13.1312 16.6393 12.6392 16.0256L12.5146 15.8682C12.4241 15.7601 12.3483 15.6609 12.2717 15.5694C11.8416 15.0382 11.5292 14.6562 10.437 13.1728L10.389 13.1069C9.86689 12.3981 9.52303 11.9362 9.52801 11.621C9.53231 11.3133 9.8439 10.8405 10.6061 9.97658C11.5305 8.93458 11.6835 7.56206 11.0694 5.89791C10.5782 4.58353 9.70024 3.28862 8.92395 2.14907L8.85572 2.05059C8.18872 1.06709 7.35867 0.531125 6.38849 0.444728C5.31137 0.348806 4.36587 0.849868 3.86502 1.1133C3.82478 1.13282 3.78387 1.15998 3.74363 1.1795C2.62191 1.75727 1.76802 2.61303 1.39404 3.52693C0.832734 4.90159 0.379152 6.70939 2.12515 10.7076C3.63407 14.1687 5.07155 16.53 7.43143 19.4277C9.65281 22.1514 10.6655 23.0578 12.9382 25.0314C15.4683 27.2281 17.9657 28.5826 19.7838 28.7445C21.4721 28.8948 22.8013 29.0132 24.8992 26.8975C27.0991 24.6753 26.4047 23.1349 25.3225 21.7987ZM24.0637 25.9914C22.3712 27.7042 21.4927 27.626 19.9037 27.4845C18.3529 27.3464 16.0418 26.0625 13.7253 24.0619C11.5095 22.1396 10.5254 21.2588 8.36663 18.61C6.08262 15.8114 4.69249 13.5237 3.23447 10.1826C1.69347 6.64932 2.03104 5.19312 2.51354 4.01166C2.76999 3.37993 3.42777 2.73773 4.28243 2.30559C4.32267 2.28607 4.36358 2.25891 4.41146 2.24007C4.83947 2.01636 5.55051 1.64074 6.28387 1.70604C6.89501 1.76047 7.41018 2.11438 7.87317 2.79478L7.9414 2.89326C9.67712 5.45048 11.0095 7.69456 9.72485 9.15112C8.8178 10.1716 8.32401 10.8746 8.32472 11.6447C8.31984 12.3913 8.76672 12.9932 9.44052 13.9003L9.48855 13.9662C10.5946 15.4662 10.9134 15.8643 11.3581 16.4044C11.4346 16.4959 11.5105 16.5951 11.6009 16.7033L11.7255 16.8607C12.2384 17.4993 12.5231 17.8481 13.847 19.2366L13.9242 19.3205C14.4877 19.9098 14.9037 20.3395 15.5607 20.3981C16.2406 20.4586 17.0273 20.0974 18.5292 19.3148C18.6825 19.236 18.8935 19.2009 19.1533 19.224C20.811 19.3716 23.4993 21.5209 24.4082 22.6414C25.2419 23.6551 25.6376 24.3989 24.0637 25.9914Z" fill="#26A0DA"/>
</svg>
