<svg width="26" height="30" viewBox="0 0 26 30" fill="none" xmlns="http://www.w3.org/2000/svg">
<path d="M22.1913 3.69726C19.7535 1.32995 16.447 -2.49437e-08 12.9994 0C9.55172 2.49437e-08 6.24528 1.32995 3.80743 3.69726C1.36957 6.06458 2.5687e-08 9.27535 0 12.6232C-2.5687e-08 15.9711 1.36957 19.1819 3.80743 21.5492L8.65151 26.2532C8.76167 26.3601 8.89245 26.445 9.03638 26.5029C9.18031 26.5608 9.33457 26.5906 9.49036 26.5906C9.64615 26.5906 9.80042 26.5608 9.94435 26.5029C10.0883 26.445 10.2191 26.3601 10.3292 26.2532C10.4394 26.1462 10.5268 26.0192 10.5864 25.8794C10.646 25.7397 10.6767 25.5899 10.6767 25.4386C10.6767 25.2873 10.646 25.1375 10.5864 24.9977C10.5268 24.858 10.4394 24.731 10.3292 24.624L5.48513 19.9201C3.99671 18.4765 2.98267 16.6367 2.5713 14.6333C2.15994 12.63 2.36974 10.5532 3.17417 8.66566C3.97859 6.77814 5.34149 5.16473 7.09042 4.02956C8.83935 2.89439 10.8957 2.28847 12.9994 2.28847C15.103 2.28847 17.1594 2.89439 18.9083 4.02956C20.6573 5.16473 22.0201 6.77814 22.8246 8.66566C23.629 10.5532 23.8388 12.63 23.4274 14.6333C23.0161 16.6367 22.002 18.4765 20.5136 19.9201L12.1605 28.0315C12.0498 28.1381 11.9619 28.265 11.9019 28.4048C11.8419 28.5446 11.811 28.6946 11.811 28.846C11.811 28.9975 11.8419 29.1475 11.9019 29.2873C11.9619 29.4271 12.0498 29.554 12.1605 29.6606C12.2703 29.7682 12.401 29.8535 12.545 29.9118C12.689 29.97 12.8434 30 12.9994 30C13.1553 30 13.3098 29.97 13.4537 29.9118C13.5977 29.8535 13.7284 29.7682 13.8382 29.6606L22.1913 21.5492C23.3988 20.3772 24.3566 18.9857 25.0101 17.4542C25.6636 15.9226 26 14.2811 26 12.6232C26 10.9654 25.6636 9.32385 25.0101 7.7923C24.3566 6.26075 23.3988 4.86924 22.1913 3.69726Z" fill="#FFB800"/>
<path d="M18.9066 12.7033C18.9066 11.5687 18.5602 10.4596 17.9111 9.51627C17.2619 8.57291 16.3393 7.83765 15.2599 7.40346C14.1804 6.96928 12.9927 6.85568 11.8467 7.07702C10.7008 7.29837 9.64821 7.84472 8.82204 8.64698C7.99588 9.44924 7.43325 10.4714 7.20531 11.5842C6.97737 12.6969 7.09436 13.8503 7.54147 14.8986C7.98859 15.9468 8.74576 16.8427 9.71723 17.473C10.6887 18.1033 11.8308 18.4398 12.9992 18.4398C14.566 18.4398 16.0685 17.8354 17.1764 16.7596C18.2842 15.6838 18.9066 14.2247 18.9066 12.7033ZM9.45477 12.7033C9.45477 12.0226 9.66265 11.3571 10.0521 10.7911C10.4416 10.2251 10.9952 9.7839 11.6428 9.5234C12.2905 9.26289 13.0032 9.19473 13.6907 9.32753C14.3783 9.46034 15.0098 9.78815 15.5055 10.2695C16.0012 10.7509 16.3388 11.3642 16.4756 12.0318C16.6123 12.6995 16.5421 13.3915 16.2739 14.0204C16.0056 14.6494 15.5513 15.1869 14.9684 15.5651C14.3855 15.9433 13.7002 16.1452 12.9992 16.1452C12.0592 16.1452 11.1576 15.7826 10.4929 15.1371C9.8282 14.4916 9.45477 13.6161 9.45477 12.7033Z" fill="#FFB800"/>
</svg>
