<svg width="26" height="30" viewBox="0 0 26 30" fill="none" xmlns="http://www.w3.org/2000/svg">
<path d="M17.4571 30H8.54286C1.99086 30 0 28.1302 0 21.9767V8.02326C0 1.86977 1.99086 0 8.54286 0H17.4571C24.0091 0 26 1.86977 26 8.02326V21.9767C26 28.1302 24.0091 30 17.4571 30ZM8.54286 2.09302C3.224 2.09302 2.22857 3.04186 2.22857 8.02326V21.9767C2.22857 26.9581 3.224 27.907 8.54286 27.907H17.4571C22.776 27.907 23.7714 26.9581 23.7714 21.9767V8.02326C23.7714 3.04186 22.776 2.09302 17.4571 2.09302H8.54286Z" fill="#FFB800"/>
<path d="M15.9091 4H10.0909C9.49455 4 9 3.32 9 2.5C9 1.68 9.49455 1 10.0909 1H15.9091C16.5055 1 17 1.68 17 2.5C17 3.32 16.5055 4 15.9091 4Z" fill="#FFB800"/>
<path d="M13.0002 25.9665C11.1134 25.9665 9.58301 24.5292 9.58301 22.7572C9.58301 20.9851 11.1134 19.5479 13.0002 19.5479C14.8871 19.5479 16.4174 20.9851 16.4174 22.7572C16.4174 24.5292 14.8871 25.9665 13.0002 25.9665ZM13.0002 21.6269C12.3465 21.6269 11.8117 22.1292 11.8117 22.7432C11.8117 23.3572 12.3465 23.8595 13.0002 23.8595C13.6539 23.8595 14.1888 23.3572 14.1888 22.7432C14.1888 22.1292 13.6539 21.6269 13.0002 21.6269Z" fill="#FFB800"/>
</svg>
