<svg width="25" height="22" viewBox="0 0 25 22" fill="none" xmlns="http://www.w3.org/2000/svg">
<path d="M12.5 22L12.0816 21.6316C2.56276 13.8421 0 11.1053 0 6.63158C0 2.94736 2.98117 0 6.58995 0C9.62343 0 11.3494 1.73684 12.5 3.05263C13.6506 1.73684 15.3766 0 18.41 0C22.0711 0 25 3 25 6.63158C25 11.1053 22.4372 13.8421 12.9184 21.6316L12.5 22ZM6.58995 1.36842C3.71338 1.36842 1.35983 3.73684 1.35983 6.63158C1.35983 10.4737 3.76569 13 12.5 20.2105C21.2343 13 23.6402 10.4737 23.6402 6.63158C23.6402 3.73684 21.2866 1.36842 18.41 1.36842C15.795 1.36842 14.3828 2.94737 13.2845 4.21053L12.5 5.10526L11.7155 4.21053C10.6172 2.94737 9.20502 1.36842 6.58995 1.36842Z" fill="#26A0DA"/>
</svg>
