<svg width="42" height="42" viewBox="0 0 42 42" fill="none" xmlns="http://www.w3.org/2000/svg">
<path d="M29.6272 11.1308C29.3566 11.4014 29.2046 11.7684 29.2046 12.1511C29.2046 12.5338 29.3566 12.9008 29.6272 13.1714L36.2692 19.8133L2.2839 19.8031C1.90271 19.8043 1.53746 19.9562 1.26792 20.2257C0.998375 20.4953 0.846446 20.8605 0.845311 21.2417C0.844531 21.4322 0.881473 21.6209 0.954004 21.7971C1.02654 21.9732 1.13322 22.1332 1.26791 22.2679C1.4026 22.4026 1.56262 22.5093 1.73875 22.5818C1.91488 22.6543 2.10362 22.6913 2.2941 22.6905L36.2284 22.6905L29.6374 29.2815C29.3668 29.5521 29.2148 29.9191 29.2148 30.3018C29.2148 30.6844 29.3668 31.0514 29.6374 31.322C29.908 31.5926 30.275 31.7446 30.6577 31.7446C31.0404 31.7446 31.4074 31.5926 31.678 31.322L40.8604 22.1396C41.104 21.896 41.2408 21.5657 41.2408 21.2213C41.2408 20.8769 41.104 20.5466 40.8604 20.3031L31.678 11.1206C31.5431 10.9858 31.3829 10.879 31.2065 10.8064C31.0302 10.7339 30.8412 10.697 30.6505 10.698C30.4598 10.6989 30.2712 10.7377 30.0955 10.812C29.9199 10.8862 29.7607 10.9946 29.6272 11.1308Z" fill="#26A0DA"/>
</svg>
