<svg width="42" height="42" viewBox="0 0 42 42" fill="none" xmlns="http://www.w3.org/2000/svg">
<path d="M12.3728 30.8692C12.6434 30.5986 12.7954 30.2316 12.7954 29.8489C12.7954 29.4662 12.6434 29.0992 12.3728 28.8286L5.73079 22.1867L39.7161 22.1969C40.0973 22.1957 40.4625 22.0438 40.7321 21.7743C41.0016 21.5047 41.1536 21.1395 41.1547 20.7583C41.1555 20.5678 41.1185 20.3791 41.046 20.2029C40.9735 20.0268 40.8668 19.8668 40.7321 19.7321C40.5974 19.5974 40.4374 19.4907 40.2613 19.4182C40.0851 19.3457 39.8964 19.3087 39.7059 19.3095L5.7716 19.3095L12.3626 12.7185C12.6332 12.4479 12.7852 12.0809 12.7852 11.6983C12.7852 11.3156 12.6332 10.9486 12.3626 10.678C12.092 10.4074 11.725 10.2554 11.3423 10.2554C10.9596 10.2554 10.5926 10.4074 10.322 10.678L1.13956 19.8604C0.896028 20.104 0.759212 20.4343 0.759212 20.7787C0.759212 21.1231 0.896029 21.4534 1.13956 21.6969L10.322 30.8794C10.4569 31.0142 10.6171 31.121 10.7935 31.1936C10.9698 31.2661 11.1588 31.303 11.3495 31.302C11.5402 31.3011 11.7288 31.2623 11.9045 31.188C12.0801 31.1138 12.2393 31.0054 12.3728 30.8692Z" fill="white"/>
</svg>
