<svg width="60" height="60" viewBox="0 0 60 60" fill="none" xmlns="http://www.w3.org/2000/svg">
<rect x="59.5" y="59.5" width="59" height="59" rx="4.5" transform="rotate(-180 59.5 59.5)" fill="white" stroke="#26A0DA"/>
<path d="M38.6272 20.1308C38.3566 20.4014 38.2046 20.7684 38.2046 21.1511C38.2046 21.5338 38.3566 21.9008 38.6272 22.1714L45.2692 28.8133L11.2839 28.8031C10.9027 28.8043 10.5375 28.9562 10.2679 29.2257C9.99838 29.4953 9.84645 29.8605 9.84531 30.2417C9.84453 30.4322 9.88147 30.6209 9.954 30.7971C10.0265 30.9732 10.1332 31.1332 10.2679 31.2679C10.4026 31.4026 10.5626 31.5093 10.7388 31.5818C10.9149 31.6543 11.1036 31.6913 11.2941 31.6905L45.2284 31.6905L38.6374 38.2815C38.3668 38.5521 38.2148 38.9191 38.2148 39.3018C38.2148 39.6844 38.3668 40.0514 38.6374 40.322C38.908 40.5926 39.275 40.7446 39.6577 40.7446C40.0404 40.7446 40.4074 40.5926 40.678 40.322L49.8604 31.1396C50.104 30.896 50.2408 30.5657 50.2408 30.2213C50.2408 29.8769 50.104 29.5466 49.8604 29.3031L40.678 20.1206C40.5431 19.9858 40.3829 19.879 40.2065 19.8064C40.0302 19.7339 39.8412 19.697 39.6505 19.698C39.4598 19.6989 39.2712 19.7377 39.0955 19.812C38.9199 19.8862 38.7607 19.9946 38.6272 20.1308Z" fill="#26A0DA"/>
</svg>
