<svg width="97" height="57" viewBox="0 0 97 57" fill="none" xmlns="http://www.w3.org/2000/svg">
<path d="M11 4C11 1.79086 12.7909 0 15 0H93C95.2091 0 97 1.79086 97 4V53C97 55.2091 95.2091 57 93 57H15C12.7909 57 11 55.2091 11 53V4Z" fill="#26A0DA"/>
<path d="M57.0439 35.8086L60.9781 31.8745L70.8174 41.7138C71.3401 42.2365 71.6338 42.9455 71.6338 43.6848C71.6338 44.424 71.3401 45.133 70.8174 45.6557C70.2946 46.1785 69.5857 46.4721 68.8464 46.4721C68.1072 46.4721 67.3982 46.1785 66.8754 45.6557L57.0361 35.8164L57.0439 35.8086Z" stroke="white" stroke-width="2.5" stroke-linecap="round" stroke-linejoin="round"/>
<path d="M47.651 34.3019C54.6379 34.3019 60.3019 28.6379 60.3019 21.651C60.3019 14.664 54.6379 9 47.651 9C40.664 9 35 14.664 35 21.651C35 28.6379 40.664 34.3019 47.651 34.3019Z" stroke="white" stroke-width="2.5" stroke-linecap="round" stroke-linejoin="round"/>
<rect x="0.268555" y="29" width="15.1101" height="15.1101" transform="rotate(-45 0.268555 29)" fill="#26A0DA"/>
</svg>
