<svg width="20" height="30" viewBox="0 0 20 30" fill="none" xmlns="http://www.w3.org/2000/svg">
<path d="M0.713536 9.07919C0.312933 9.47395 0.316567 10.1213 0.721577 10.5116L1.79468 11.5456C2.18512 11.9218 2.80424 11.9183 3.19044 11.5377L6.54036 8.23657C7.17094 7.61517 8.23844 8.05924 8.24225 8.94454L8.32853 29.0051C8.3309 29.5574 8.78051 30.0032 9.33278 30.0008L10.8683 29.9943C11.4206 29.9919 11.8664 29.5423 11.8641 28.99L11.778 8.98511C11.7742 8.10107 12.8352 7.64729 13.4718 8.26071L16.7944 11.4623C17.1849 11.8385 17.804 11.835 18.1902 11.4544L19.2514 10.4087C19.652 10.0139 19.6483 9.36655 19.2433 8.97631L10.6289 0.675841C10.2385 0.299629 9.61935 0.303102 9.23315 0.683672L0.713536 9.07919Z" fill="#26A0DA"/>
</svg>
