<svg width="60" height="60" viewBox="0 0 60 60" fill="none" xmlns="http://www.w3.org/2000/svg">
<path d="M29.9721 30.0018C35.4947 30.0018 39.9716 25.5249 39.9716 20.0024C39.9716 14.4798 35.4947 10.0029 29.9721 10.0029C24.4496 10.0029 19.9727 14.4798 19.9727 20.0024C19.9727 25.5249 24.4496 30.0018 29.9721 30.0018Z" fill="#FFB800"/>
<path d="M59.9341 50.0581C59.9834 49.7217 59.9056 49.3789 59.7158 49.0967C59.6886 49.019 59.6563 48.9432 59.6191 48.8697L59.5983 48.8394L46.2346 29.362L48.3014 28.072C49.0019 27.6406 49.5282 26.9764 49.7882 26.1958C50.0481 25.4152 50.0251 24.568 49.7232 23.8027L48.2096 20.0022L49.7232 16.2035C50.0253 15.4379 50.0484 14.5905 49.7884 13.8095C49.5285 13.0286 49.0021 12.3641 48.3014 11.9323L44.696 9.68236L43.5789 5.73725C43.3574 4.95373 42.8741 4.26975 42.2096 3.79923C41.5451 3.32872 40.7394 3.10008 39.9268 3.15139L35.5794 3.3584L32.2027 0.759024L32.2007 0.757024C31.5613 0.26578 30.7774 -0.000361314 29.971 3.68154e-07C29.1646 0.00036205 28.381 0.267206 27.742 0.759024L24.3651 3.35848L20.0197 3.15147C19.2078 3.10515 18.4043 3.3357 17.7405 3.80542C17.0767 4.27515 16.592 4.95623 16.3656 5.73725L15.2484 9.68236L11.6432 11.9322C10.9427 12.3637 10.4163 13.0279 10.1564 13.8085C9.89642 14.5891 9.91945 15.4362 10.2214 16.2015L11.735 20.0021L10.2214 23.8007C9.91931 24.5663 9.89621 25.4138 10.1562 26.1947C10.4161 26.9756 10.9425 27.6402 11.6432 28.072L13.71 29.3619L0.347304 48.838L0.325566 48.8697C0.288416 48.9431 0.256122 49.019 0.228891 49.0967C0.141155 49.2448 0.0733531 49.4039 0.0272417 49.5698C0.00129037 49.7312 -0.0042863 49.8953 0.0106426 50.0581C0.00101434 50.1479 -0.00208696 50.2383 0.00136308 50.3286L0.00808272 50.3476C0.0285468 50.4164 0.0527889 50.4841 0.0806988 50.5502C0.12331 50.7215 0.188406 50.8863 0.274288 51.0404C0.318756 51.0997 0.366438 51.1564 0.417121 51.2104C0.52178 51.3519 0.644983 51.4787 0.783421 51.5874C0.806979 51.6049 0.818459 51.6323 0.843118 51.6489C0.931608 51.7008 1.0241 51.7455 1.1197 51.7827C1.18868 51.8213 1.25984 51.8558 1.33283 51.8862C1.5382 51.9589 1.7541 51.9975 1.97196 52.0004C2.08254 52.0009 2.19295 51.9918 2.30194 51.9731L12.9587 50.1968L18.2581 59.0294L18.2814 59.0586C18.298 59.085 18.3214 59.1055 18.3392 59.1309C18.4547 59.2971 18.5954 59.4444 18.7561 59.5674C18.7987 59.6006 18.839 59.6323 18.8844 59.6621C19.0783 59.7922 19.2936 59.8871 19.5204 59.9424L19.5452 59.9531C19.6863 59.984 19.8303 59.9997 19.9748 60C20.1796 59.9968 20.3827 59.9619 20.5768 59.8965C20.6411 59.8731 20.7041 59.8462 20.7655 59.8159C20.8466 59.7876 20.9257 59.7538 21.0022 59.7149C21.0359 59.6943 21.0536 59.6607 21.0857 59.6387C21.2233 59.5423 21.348 59.4286 21.4566 59.3003C21.6411 59.1298 21.7709 58.9084 21.8295 58.6641C21.8619 58.5962 21.8904 58.5264 21.9149 58.4552L21.926 58.4278L26.3566 38.1789L27.744 39.2472C28.3838 39.7377 29.1675 40.0034 29.9737 40.003C30.7799 40.0026 31.5634 39.7363 32.2027 39.2452L33.5882 38.1788L38.0188 58.4277L38.0299 58.4551C38.1189 58.6828 38.219 58.9061 38.3299 59.124C38.3791 59.1858 38.432 59.2447 38.4881 59.3003C38.5967 59.4285 38.7214 59.5422 38.8591 59.6386C38.8911 59.6606 38.9089 59.6943 38.9426 59.7148C39.0191 59.7538 39.0982 59.7875 39.1793 59.8159C39.2407 59.8461 39.3037 59.873 39.368 59.8964C39.5621 59.9619 39.7651 59.9968 39.9699 59.9999C40.1144 59.9996 40.2585 59.9839 40.3996 59.9531L40.4243 59.9423C40.6511 59.887 40.8665 59.7921 41.0605 59.6621C41.1057 59.6323 41.1459 59.601 41.1885 59.5678C41.3492 59.4444 41.4899 59.2971 41.6058 59.1308C41.6235 59.105 41.6468 59.0849 41.6633 59.0586L41.6866 59.0293L46.9859 50.1968L57.6427 51.9731C57.7517 51.9918 57.8621 52.0009 57.9727 52.0004C58.1905 51.9975 58.4064 51.9589 58.6118 51.8861C58.6848 51.8558 58.756 51.8212 58.8249 51.7826C58.9206 51.7455 59.0131 51.7007 59.1015 51.6488C59.1262 51.6322 59.1377 51.6049 59.1612 51.5873C59.2997 51.4787 59.4229 51.3519 59.5275 51.2104C59.5782 51.1564 59.6259 51.0996 59.6704 51.0404C59.7563 50.8863 59.8214 50.7214 59.8639 50.5502C59.8918 50.484 59.9161 50.4164 59.9366 50.3476L59.9433 50.3285C59.9468 50.2383 59.9437 50.1479 59.9341 50.0581ZM19.0964 52.6522L15.6879 46.9714L15.6739 46.9557C15.5611 46.7855 15.4226 46.6338 15.2633 46.5061C15.2203 46.469 15.1913 46.4143 15.1456 46.3816C15.0001 46.2886 14.843 46.2152 14.6784 46.1633C14.6053 46.1242 14.5298 46.0898 14.4524 46.0603C14.3632 46.0495 14.2733 46.0446 14.1835 46.0456C14.0131 46.0172 13.8396 46.0116 13.6678 46.029L13.6452 46.0281L6.28158 47.2555L16.0231 33.0571L16.3657 34.267C16.5932 35.047 17.078 35.727 17.7411 36.1965C18.4041 36.666 19.2066 36.8973 20.0178 36.8529L22.5802 36.7309L19.0964 52.6522ZM33.2437 33.3959L29.9724 35.9153L26.697 33.392C26.0552 32.9026 25.2699 32.6383 24.4628 32.6401C24.4061 32.6401 24.3514 32.6421 24.2948 32.6441L20.1192 32.8433L19.0452 29.0485C18.8027 28.203 18.2541 27.4782 17.5062 27.0154L14.0943 24.8867L15.5278 21.2912C15.8598 20.4646 15.8598 19.5417 15.5278 18.7151L14.0943 15.1176L17.5023 12.9908C18.253 12.5275 18.8033 11.8002 19.0452 10.9518L20.1194 7.16102L24.3008 7.36023C25.1637 7.39389 26.0116 7.12824 26.7011 6.60827L29.9724 4.08888L33.2476 6.61217C33.9377 7.13191 34.7866 7.39625 35.6498 7.36013L39.8253 7.16092L40.8995 10.9556C41.1419 11.8011 41.6906 12.5259 42.4385 12.9887L45.8503 15.1176L44.4168 18.7131C44.0848 19.5397 44.0848 20.4626 44.4168 21.2892L45.8503 24.8866L42.4423 27.0135C41.6916 27.4767 41.1412 28.204 40.8995 29.0525L39.8253 32.8433L35.6439 32.6441C34.7796 32.5992 33.9279 32.866 33.2437 33.3959ZM46.2996 46.0281C46.2916 46.0266 46.2843 46.0301 46.2764 46.029C46.1036 46.0115 45.9293 46.0173 45.758 46.0461C45.6697 46.0447 45.5814 46.0493 45.4937 46.0598C45.2622 46.1645 45.0316 46.2713 44.8019 46.3801C44.7442 46.4343 44.6897 46.4919 44.6387 46.5524C44.4987 46.6686 44.3755 46.8037 44.2727 46.9538L44.2568 46.9714L40.8483 52.6522L37.3644 36.7307L39.9248 36.8527C40.7355 36.893 41.5362 36.66 42.1987 36.1912C42.8613 35.7223 43.3473 35.0447 43.5789 34.2668L43.9216 33.0569L53.663 47.2554L46.2996 46.0281Z" fill="#FFB800"/>
</svg>
