<svg width="72" height="60" viewBox="0 0 72 60" fill="none" xmlns="http://www.w3.org/2000/svg">
<path fill-rule="evenodd" clip-rule="evenodd" d="M65.7391 60H10.9565C7.49896 60 4.69565 57.1721 4.69565 53.6842V23.46C1.99878 22.7558 0 20.3084 0 17.3684V12.6742C0 12.6711 0 12.6695 0 12.6663V12.6316C0 12.3837 0.0673043 12.1579 0.167478 11.9479C0.175304 11.9337 0.186261 11.9242 0.194087 11.9116C0.297391 11.7111 0.442956 11.5453 0.618261 11.4063L11.3087 0.623684C11.5936 0.254211 12.0209 0 12.5217 0H12.5546C12.5577 0 12.5609 0 12.564 0H21.9459C21.949 0 21.9522 0 21.9553 0H31.3372C31.3403 0 31.3435 0 31.3466 0H40.7285C40.7317 0 40.7348 0 40.7379 0H50.1198C50.123 0 50.1261 0 50.1292 0H65.7391C69.1967 0 72 2.82789 72 6.31579V53.6842C72 57.1721 69.1967 60 65.7391 60ZM21.913 56.8421V42.6316H15.6522V56.8421H21.913ZM3.13043 17.3684C3.13043 19.1116 4.53287 20.5263 6.26087 20.5263C7.98887 20.5263 9.3913 19.1116 9.3913 17.3684V14.2105H3.13043V17.3684ZM13.1181 3.15789L5.292 11.0526H10.3602L18.1863 3.15789H13.1181ZM12.5217 17.3684C12.5217 19.1116 13.9242 20.5263 15.6522 20.5263C17.3802 20.5263 18.7826 19.1116 18.7826 17.3684V14.2105H12.5217V17.3684ZM22.5094 3.15789L14.6833 11.0526H19.7515L27.5776 3.15789H22.5094ZM21.913 17.3684C21.913 19.1116 23.3155 20.5263 25.0435 20.5263C26.7715 20.5263 28.1739 19.1116 28.1739 17.3684V14.2105H21.913V17.3684ZM31.9007 3.15789L24.0746 11.0526H29.1428L36.9689 3.15789H31.9007ZM31.3043 17.3684C31.3043 19.1116 32.7068 20.5263 34.4348 20.5263C36.1628 20.5263 37.5652 19.1116 37.5652 17.3684V14.2105H31.3043V17.3684ZM41.292 3.15789L33.4659 11.0526H38.5341L46.3602 3.15789H41.292ZM48.5217 5.33842L40.6957 13.2332V17.3684C40.6957 20.8563 37.8923 23.6842 34.4348 23.6842C32.555 23.6842 30.8864 22.83 29.7391 21.5068C28.5918 22.83 26.9233 23.6842 25.0435 23.6842C23.1637 23.6842 21.4951 22.83 20.3478 21.5068C19.2005 22.83 17.532 23.6842 15.6522 23.6842C13.7692 23.6842 12.1023 22.83 10.9534 21.5037C10.1379 22.4368 9.06104 23.1379 7.82609 23.46V53.6842C7.82609 55.4274 9.22852 56.8421 10.9565 56.8421H12.5217V41.0526C12.5217 40.1795 13.2214 39.4737 14.087 39.4737H23.4783C24.3438 39.4737 25.0435 40.1795 25.0435 41.0526V56.8421H45.3913C47.1193 56.8421 48.5217 55.4274 48.5217 53.6842V5.33842ZM68.8696 6.31579C68.8696 4.57263 67.4671 3.15789 65.7391 3.15789H51.6522V53.6842C51.6522 54.84 51.3219 55.9105 50.7835 56.8421H65.7391C67.4671 56.8421 68.8696 55.4274 68.8696 53.6842V6.31579ZM42.2609 42.6316H29.7391C28.8736 42.6316 28.1739 41.9258 28.1739 41.0526V30C28.1739 29.1268 28.8736 28.4211 29.7391 28.4211H42.2609C43.1264 28.4211 43.8261 29.1268 43.8261 30V41.0526C43.8261 41.9258 43.1264 42.6316 42.2609 42.6316ZM40.6957 31.5789H31.3043V39.4737H40.6957V31.5789Z" fill="#FFB800"/>
</svg>
