<svg width="79" height="64" viewBox="0 0 79 64" fill="none" xmlns="http://www.w3.org/2000/svg">
<path d="M2 54.8228H67.2556V59.8438" stroke="#FFB800" stroke-width="2.63936" stroke-miterlimit="2.6131" stroke-linecap="round" stroke-linejoin="round"/>
<path d="M67.2553 59.8438C67.2553 61.0321 66.2843 62.0001 65.1021 62.0001" stroke="#FFB800" stroke-width="2.63936" stroke-miterlimit="2.6131" stroke-linecap="round" stroke-linejoin="round"/>
<path d="M65.1021 62H3.7229" stroke="#FFB800" stroke-width="2.63936" stroke-miterlimit="2.6131" stroke-linecap="round" stroke-linejoin="round"/>
<path d="M3.72314 62.0002C2.77547 62.0002 2 61.2231 2 60.2754" stroke="#FFB800" stroke-width="2.63936" stroke-miterlimit="2.6131" stroke-linecap="round" stroke-linejoin="round"/>
<path d="M2 60.2754V54.8228" stroke="#FFB800" stroke-width="2.63936" stroke-miterlimit="2.6131" stroke-linecap="round" stroke-linejoin="round"/>
<path d="M22.2749 20.6255H7.77295" stroke="#FFB800" stroke-width="2.63936" stroke-miterlimit="2.6131" stroke-linecap="round" stroke-linejoin="round"/>
<path d="M7.77326 20.6255C6.71157 20.6255 5.84375 21.4933 5.84375 22.552" stroke="#FFB800" stroke-width="2.63936" stroke-miterlimit="2.6131" stroke-linecap="round" stroke-linejoin="round"/>
<path d="M5.84375 22.5518V54.8223H63.412V42.9474" stroke="#FFB800" stroke-width="2.63936" stroke-miterlimit="2.6131" stroke-linecap="round" stroke-linejoin="round"/>
<path d="M44.8581 20.6255H31.7839" stroke="#FFB800" stroke-width="2.63936" stroke-miterlimit="2.6131" stroke-linecap="round" stroke-linejoin="round"/>
<path d="M61.8544 20.6255H50.2344" stroke="#FFB800" stroke-width="2.63936" stroke-miterlimit="2.6131" stroke-linecap="round" stroke-linejoin="round"/>
<path d="M63.4114 36.8662V26.2251" stroke="#FFB800" stroke-width="2.63936" stroke-miterlimit="2.6131" stroke-linecap="round" stroke-linejoin="round"/>
<path d="M5.16797 58.4111H26.3157" stroke="#FFB800" stroke-width="2.63936" stroke-miterlimit="2.6131" stroke-linecap="round" stroke-linejoin="round"/>
<path d="M56.703 58.8664C56.9548 58.8664 57.158 58.66 57.158 58.4115C57.158 58.1581 56.9547 57.9565 56.703 57.9565C56.4512 57.9565 56.2449 58.1582 56.2449 58.4115C56.2449 58.66 56.4512 58.8664 56.703 58.8664Z" stroke="#FFB800" stroke-width="2.63936" stroke-miterlimit="2.6131" stroke-linecap="round" stroke-linejoin="round"/>
<path d="M60.1203 58.8664C60.3737 58.8664 60.5786 58.66 60.5786 58.4115C60.5786 58.1581 60.3737 57.9565 60.1203 57.9565C59.8701 57.9565 59.6667 58.1582 59.6667 58.4115C59.6667 58.66 59.8701 58.8664 60.1203 58.8664Z" stroke="#FFB800" stroke-width="2.63936" stroke-miterlimit="2.6131" stroke-linecap="round" stroke-linejoin="round"/>
<path d="M63.2554 58.8664C63.5071 58.8664 63.7135 58.66 63.7135 58.4115C63.7135 58.1581 63.5071 57.9565 63.2554 57.9565C63.0067 57.9565 62.8003 58.1582 62.8003 58.4115C62.8001 58.66 63.0067 58.8664 63.2554 58.8664Z" stroke="#FFB800" stroke-width="2.63936" stroke-miterlimit="2.6131" stroke-linecap="round" stroke-linejoin="round"/>
<path d="M52.5907 37.304C52.5907 41.5027 49.1864 44.9083 44.9893 44.9083C40.7923 44.9083 37.3896 41.5026 37.3896 37.304C37.3896 33.1086 40.7923 29.7026 44.9893 29.7026C49.1864 29.7026 52.5907 33.1086 52.5907 37.304Z" stroke="#FFB800" stroke-width="2.63936" stroke-miterlimit="2.6131" stroke-linecap="round" stroke-linejoin="round"/>
<path d="M50.2747 7.28377C50.2747 10.2033 47.9073 12.566 44.9893 12.566C42.0698 12.566 39.707 10.2033 39.707 7.28377C39.707 4.36425 42.0698 2 44.9893 2C47.9072 2 50.2747 4.36425 50.2747 7.28377Z" stroke="#FFB800" stroke-width="2.63936" stroke-miterlimit="2.6131" stroke-linecap="round" stroke-linejoin="round"/>
<path d="M77.0131 37.3042C77.0131 40.2238 74.6471 42.5897 71.7276 42.5897C68.8081 42.5897 66.4438 40.2238 66.4438 37.3042C66.4438 34.3879 68.8083 32.022 71.7276 32.022C74.647 32.022 77.0131 34.3879 77.0131 37.3042Z" stroke="#FFB800" stroke-width="2.63936" stroke-miterlimit="2.6131" stroke-linecap="round" stroke-linejoin="round"/>
<path d="M72.0889 14.344C72.0889 16.3002 70.5033 17.889 68.544 17.889C66.583 17.889 64.9927 16.3004 64.9927 14.344C64.9927 12.383 66.583 10.7959 68.544 10.7959C70.5033 10.7959 72.0889 12.383 72.0889 14.344Z" stroke="#FFB800" stroke-width="2.63936" stroke-miterlimit="2.6131" stroke-linecap="round" stroke-linejoin="round"/>
<path d="M17.9591 13.5276C17.9591 15.4885 16.3689 17.0756 14.4112 17.0756C12.4502 17.0756 10.8662 15.4885 10.8662 13.5276C10.8662 11.5698 12.4502 9.97949 14.4112 9.97949C16.3689 9.97933 17.9591 11.5696 17.9591 13.5276Z" stroke="#FFB800" stroke-width="2.63936" stroke-miterlimit="2.6131" stroke-linecap="round" stroke-linejoin="round"/>
<path d="M51.2024 32.6755L66.2064 17.0757" stroke="#FFB800" stroke-width="2.63936" stroke-miterlimit="2.6131" stroke-linecap="round" stroke-linejoin="round"/>
<path d="M44.9895 29.4729V12.6973" stroke="#FFB800" stroke-width="2.63936" stroke-miterlimit="2.6131" stroke-linecap="round" stroke-linejoin="round"/>
<path d="M52.5908 37.3042H63.2022H66.4439" stroke="#FFB800" stroke-width="2.63936" stroke-miterlimit="2.6131" stroke-linecap="round" stroke-linejoin="round"/>
<path d="M17.0879 15.936L38.6204 32.7992" stroke="#FFB800" stroke-width="2.63936" stroke-miterlimit="2.6131" stroke-linecap="round" stroke-linejoin="round"/>
</svg>
