<svg width="25" height="25" viewBox="0 0 25 25" fill="none" xmlns="http://www.w3.org/2000/svg">
<path d="M5.57553 7.8125H0V25H5.57553V7.8125Z" fill="#26A0DA"/>
<path d="M20.7629 8.01407C20.7037 7.99552 20.6475 7.97525 20.5854 7.95775C20.5103 7.94066 20.4357 7.9264 20.3593 7.91422C20.0635 7.85472 19.7389 7.81255 19.3589 7.81255C16.1086 7.81255 14.0466 10.1831 13.3676 11.0985V7.8125H7.79199V25H13.3675V15.6251C13.3675 15.6251 17.5808 9.74066 19.3588 14.0623V25H24.9329V13.4017C24.9329 10.8046 23.1578 8.64061 20.7629 8.01407Z" fill="#26A0DA"/>
<path d="M5.4543 2.73432C5.4543 4.24471 4.23315 5.46874 2.7273 5.46874C1.22135 5.46874 0.000244141 4.24466 0.000244141 2.73432C0.000244141 1.22424 1.22135 0 2.7273 0C4.23315 0 5.4543 1.22424 5.4543 2.73432Z" fill="#26A0DA"/>
</svg>
