<svg width="30" height="25" viewBox="0 0 30 25" fill="none" xmlns="http://www.w3.org/2000/svg">
<path d="M30 2.95936C28.8971 3.46206 27.7102 3.80114 26.4649 3.95289C27.7364 3.1723 28.7114 1.93585 29.1712 0.460858C27.9819 1.18462 26.6652 1.7098 25.2628 1.99331C24.1404 0.766848 22.5406 0 20.7704 0C17.3717 0 14.616 2.82572 14.616 6.31151C14.616 6.80547 14.6702 7.28693 14.7756 7.74966C9.66019 7.48614 5.12454 4.9739 2.08879 1.15527C1.55898 2.08698 1.25571 3.17105 1.25571 4.32882C1.25571 6.51821 2.34212 8.45032 3.99367 9.58186C2.9852 9.54876 2.03581 9.26463 1.20577 8.7919C1.20516 8.81813 1.20516 8.84498 1.20516 8.87183C1.20516 11.9292 3.32684 14.4796 6.14274 15.0603C5.62633 15.204 5.08252 15.2814 4.52104 15.2814C4.12399 15.2814 3.73851 15.242 3.36277 15.1677C4.14652 17.675 6.41922 19.5003 9.11211 19.5509C7.00566 21.2438 4.35235 22.253 1.46824 22.253C0.971926 22.253 0.4817 22.223 0 22.1643C2.72456 23.9559 5.95944 25 9.43487 25C20.7563 25 26.9466 15.3832 26.9466 7.04276C26.9466 6.76925 26.9411 6.49635 26.9295 6.22533C28.1317 5.33734 29.1754 4.22516 30 2.95936Z" fill="#26A0DA"/>
</svg>
