<svg width="116" height="128" viewBox="0 0 116 128" fill="none" xmlns="http://www.w3.org/2000/svg">
<rect x="115" y="59" width="58" height="58" rx="4" transform="rotate(180 115 59)" stroke="#26A0DA" stroke-width="2"/>
<rect x="29" y="29" width="28" height="28" rx="4" transform="rotate(180 29 29)" stroke="#26A0DA" stroke-width="2"/>
<circle cx="102" cy="98" r="13" transform="rotate(180 102 98)" stroke="#26A0DA" stroke-width="2"/>
<path d="M19.5 128L15.5837 117.416L5 113.5L15.5837 109.584L19.5 99L23.4163 109.584L34 113.5L23.4163 117.416L19.5 128Z" fill="#26A0DA"/>
<path d="M10 95L8.10936 89.8906L3 88L8.10936 86.1094L10 81L11.8906 86.1094L17 88L11.8906 89.8906L10 95Z" fill="#26A0DA"/>
<path d="M49 106L47.1094 100.891L42 99L47.1094 97.1094L49 92L50.8906 97.1094L56 99L50.8906 100.891L49 106Z" fill="#26A0DA"/>
</svg>
