<svg width="116" height="128" viewBox="0 0 116 128" fill="none" xmlns="http://www.w3.org/2000/svg">
<rect x="1" y="69" width="58" height="58" rx="4" stroke="#26A0DA" stroke-width="2"/>
<rect x="87" y="99" width="28" height="28" rx="4" stroke="#26A0DA" stroke-width="2"/>
<circle cx="14" cy="30" r="13" stroke="#26A0DA" stroke-width="2"/>
<path d="M96.5 0L100.416 10.5837L111 14.5L100.416 18.4163L96.5 29L92.5837 18.4163L82 14.5L92.5837 10.5837L96.5 0Z" fill="#26A0DA"/>
<path d="M106 33L107.891 38.1094L113 40L107.891 41.8906L106 47L104.109 41.8906L99 40L104.109 38.1094L106 33Z" fill="#26A0DA"/>
<path d="M67 22L68.8906 27.1094L74 29L68.8906 30.8906L67 36L65.1094 30.8906L60 29L65.1094 27.1094L67 22Z" fill="#26A0DA"/>
</svg>
