<svg width="29" height="30" viewBox="0 0 29 30" fill="none" xmlns="http://www.w3.org/2000/svg">
<path d="M22.7098 23.207V29.2506C22.7098 29.9308 21.88 30.2507 21.4188 29.7695L14.2955 23.207H8.28971C6.41729 23.207 4.88841 21.6781 4.88841 19.8057V6.71507C4.88841 4.84302 6.41729 3.31414 8.28971 3.31414H25.3568C27.2293 3.31414 28.7581 4.84265 28.7581 6.71507V19.8057C28.7581 21.6781 27.2293 23.207 25.3568 23.207H22.7098ZM10.5681 11.4786C11.2774 11.4786 11.8522 12.0534 11.8522 12.7627C11.8522 13.4719 11.2774 14.0468 10.5681 14.0468C9.85889 14.0468 9.28402 13.4719 9.28402 12.7627C9.28402 12.0534 9.85889 11.4786 10.5681 11.4786ZM23.0784 11.4786C23.7876 11.4786 24.3625 12.0534 24.3625 12.7627C24.3625 13.4719 23.7876 14.0468 23.0784 14.0468C22.3692 14.0468 21.7943 13.4719 21.7943 12.7627C21.7943 12.0534 22.3692 11.4786 23.0784 11.4786ZM18.9083 11.4786C19.6176 11.4786 20.1924 12.0534 20.1924 12.7627C20.1924 13.4719 19.6176 14.0468 18.9083 14.0468C18.1991 14.0468 17.6242 13.4719 17.6242 12.7627C17.6242 12.0534 18.1991 11.4786 18.9083 11.4786ZM14.7382 11.4786C15.4475 11.4786 16.0223 12.0534 16.0223 12.7627C16.0223 13.4719 15.4475 14.0468 14.7382 14.0468C14.029 14.0468 13.4541 13.4719 13.4541 12.7627C13.4541 12.0534 14.029 11.4786 14.7382 11.4786ZM3.4013 18.3926C4.38762 18.3926 4.38762 19.8928 3.4013 19.8928C1.52888 19.8928 0 18.3639 0 16.4915V3.40093C0 1.52888 1.52888 0 3.4013 0H20.4688C21.4551 0 21.4551 1.49982 20.4688 1.49982H3.4013C2.35723 1.49982 1.50019 2.35687 1.50019 3.40093V16.4915C1.50019 17.5356 2.35723 18.3926 3.4013 18.3926ZM21.21 27.5419V22.4567C21.21 22.0427 21.5459 21.7068 21.9599 21.7068H25.3568C26.4009 21.7068 27.2583 20.8497 27.2583 19.8057V6.71507C27.2583 5.67101 26.4009 4.81396 25.3568 4.81396H8.28971C7.24528 4.81396 6.38823 5.67101 6.38823 6.71507V19.8057C6.38823 20.8497 7.24528 21.7068 8.28971 21.7068L14.5861 21.7086C14.7673 21.7086 14.9492 21.7736 15.093 21.9061L21.21 27.5419Z" fill="#26A0DA"/>
</svg>
