<svg width="31" height="30" viewBox="0 0 31 30" fill="none" xmlns="http://www.w3.org/2000/svg">
<rect x="1.25781" y="0.5" width="29" height="29" rx="4.5" fill="white" stroke="#26A0DA"/>
<path d="M10.5266 17.7694C12.056 17.7694 13.2958 16.5296 13.2958 15.0002C13.2958 13.4708 12.056 12.231 10.5266 12.231C8.99721 12.231 7.75739 13.4708 7.75739 15.0002C7.75739 16.5296 8.99721 17.7694 10.5266 17.7694Z" stroke="#26A0DA" stroke-width="1.09091" stroke-linecap="round" stroke-linejoin="round"/>
<path d="M20.2184 23.9999C21.7478 23.9999 22.9876 22.7601 22.9876 21.2307C22.9876 19.7013 21.7478 18.4614 20.2184 18.4614C18.689 18.4614 17.4491 19.7013 17.4491 21.2307C17.4491 22.7601 18.689 23.9999 20.2184 23.9999Z" stroke="#26A0DA" stroke-width="1.09091" stroke-linecap="round" stroke-linejoin="round"/>
<path d="M20.2184 11.5385C21.7478 11.5385 22.9876 10.2986 22.9876 8.76923C22.9876 7.23983 21.7478 6 20.2184 6C18.689 6 17.4491 7.23983 17.4491 8.76923C17.4491 10.2986 18.689 11.5385 20.2184 11.5385Z" stroke="#26A0DA" stroke-width="1.09091" stroke-linecap="round" stroke-linejoin="round"/>
<path d="M17.8908 10.2666L12.8543 13.5031" stroke="#26A0DA" stroke-width="1.09091" stroke-linecap="round" stroke-linejoin="round"/>
<path d="M12.8543 16.4971L17.8908 19.7336" stroke="#26A0DA" stroke-width="1.09091" stroke-linecap="round" stroke-linejoin="round"/>
</svg>
