<svg width="180" height="180" viewBox="0 0 180 180" fill="none" xmlns="http://www.w3.org/2000/svg">
<circle cx="90" cy="90" r="90" fill="#26A0DA" fill-opacity="0.5"/>
<circle cx="90" cy="90" r="82" fill="#26A0DA" fill-opacity="0.5"/>
<circle cx="90" cy="90" r="75" fill="#26A0DA"/>
<path d="M80.3358 75.6794C78.1339 76.4103 76.9369 78.7962 77.6676 80.9983C78.2532 82.7623 79.9001 83.8809 81.6643 83.8809C82.1026 83.8809 82.5483 83.8117 82.9866 83.6663C85.1884 82.9355 86.3855 80.5494 85.6547 78.3475C84.9238 76.1456 82.5375 74.9486 80.3358 75.6794ZM82.3434 81.728C81.2101 82.1045 79.9822 81.4881 79.6062 80.3548C79.2303 79.2217 79.8462 77.9938 80.9793 77.6178C81.2048 77.543 81.4342 77.5075 81.6596 77.5075C82.5675 77.5075 83.4153 78.0832 83.7165 78.9909C84.0925 80.1242 83.4763 81.3518 82.3434 81.728Z" fill="white"/>
<path d="M99.1998 84.4103C98.4672 82.2078 96.0809 81.0109 93.8796 81.7431C91.679 82.4731 90.4822 84.859 91.2117 87.0606C91.2188 87.0821 91.2261 87.1035 91.2336 87.1248C91.2865 87.275 91.1798 87.4389 91.0206 87.4389H87.4755C87.3115 87.4389 87.205 87.2663 87.2785 87.1197L94.3494 73.0227C94.404 72.9139 94.36 72.7815 94.2512 72.727L92.8195 72.0089C92.7108 71.9544 92.5783 71.9983 92.5238 72.1071L84.8946 87.3173C84.8572 87.3918 84.781 87.4389 84.6976 87.4389H74.237C74.1153 87.4389 74.0166 87.5375 74.0166 87.6592V89.2609C74.0166 89.3826 74.1153 89.4812 74.237 89.4812H106.542C106.664 89.4812 106.762 89.3826 106.762 89.2609V87.6592C106.762 87.5375 106.664 87.4389 106.542 87.4389H99.3959C99.2366 87.4389 99.1292 87.2746 99.1817 87.1242C99.4787 86.2731 99.5022 85.3246 99.1998 84.4103ZM93.1505 86.4191C92.7749 85.2852 93.3905 84.0575 94.5234 83.6817C95.6569 83.3051 96.8848 83.9211 97.2612 85.0534C97.5455 85.9119 97.2736 86.8288 96.601 87.3915C96.5634 87.423 96.5154 87.4391 96.4663 87.4391H93.9462C93.897 87.4391 93.8489 87.4229 93.8113 87.3913C93.5072 87.136 93.2767 86.8007 93.1505 86.4191Z" fill="white"/>
<path d="M84.6841 111.964L85.8168 113.096C85.9029 113.182 86.0424 113.182 86.1285 113.096L101.617 97.6058C101.703 97.5197 101.703 97.3801 101.617 97.2941L100.484 96.1616C100.398 96.0755 100.258 96.0755 100.172 96.1616L84.6841 111.652C84.5981 111.738 84.5981 111.878 84.6841 111.964Z" fill="white"/>
<path d="M87.4792 95.7188C85.159 95.7188 83.2715 97.6063 83.2715 99.9264C83.2715 102.247 85.159 104.135 87.4792 104.135C89.7993 104.135 91.6867 102.247 91.6867 99.9264C91.6869 97.6063 89.7993 95.7188 87.4792 95.7188ZM87.4792 102.092C86.2852 102.092 85.3139 101.12 85.3139 99.9262C85.3139 98.7323 86.2852 97.7609 87.4792 97.7609C88.6731 97.7609 89.6443 98.7323 89.6443 99.9262C89.6445 101.12 88.6731 102.092 87.4792 102.092Z" fill="white"/>
<path d="M94.2168 109.947C94.2168 112.267 96.1044 114.155 98.4247 114.155C100.745 114.155 102.632 112.267 102.632 109.947C102.632 107.627 100.745 105.739 98.4247 105.739C96.1044 105.739 94.2168 107.627 94.2168 109.947ZM100.59 109.947C100.59 111.141 99.6184 112.112 98.4245 112.112C97.2303 112.112 96.259 111.141 96.259 109.947C96.259 108.753 97.2303 107.782 98.4245 107.782C99.6187 107.782 100.59 108.753 100.59 109.947Z" fill="white"/>
<path d="M51.8785 89.702C51.8785 89.5803 51.9772 89.4816 52.0989 89.4816H60.9309C63.2192 89.4816 65.0914 91.8484 65.1806 94.8017C65.1843 94.9234 65.2826 95.0223 65.4043 95.0223H67.0059C67.1276 95.0223 67.2259 94.9234 67.2296 94.8017C67.3159 91.9437 69.0718 89.6348 71.2591 89.4887C71.3805 89.4806 71.4793 89.3827 71.4793 89.261V87.6594C71.4793 87.5377 71.3805 87.4398 71.2591 87.4317C69.072 87.2856 67.316 84.9767 67.2296 82.1187C67.2259 81.9971 67.1276 81.8981 67.0059 81.8981H65.4043C65.2826 81.8981 65.1843 81.9971 65.1806 82.1187C65.0914 85.072 63.2192 87.439 60.9309 87.439L50.0565 87.4392C49.9348 87.4392 49.8362 87.5379 49.8362 87.6596V95.4395C49.8362 95.6896 49.4854 95.7463 49.4066 95.5089L44.6512 81.1823C44.6128 81.0668 44.6754 80.942 44.791 80.9037L52.9654 78.1924C53.081 78.154 53.1435 78.0293 53.1052 77.9138L52.601 76.3937C52.5627 76.2782 52.438 76.2156 52.3225 76.2539L42.2092 79.6084C42.0937 79.6468 42.0311 79.7715 42.0694 79.887L49.8251 103.253C49.8326 103.275 49.8364 103.299 49.8364 103.322V122.209C49.8364 122.331 49.935 122.429 50.0567 122.429H106.542C106.664 122.429 106.762 122.331 106.762 122.209V120.607C106.762 120.486 106.664 120.387 106.542 120.387H52.0989C51.9772 120.387 51.8785 120.288 51.8785 120.167V89.702ZM66.0024 86.3834C66.0936 86.2341 66.317 86.2341 66.4082 86.3834C66.8639 87.1289 67.4297 87.7705 68.0768 88.2734C68.1976 88.3673 68.1977 88.5536 68.0768 88.6475C67.4297 89.1505 66.8639 89.792 66.4082 90.5374C66.317 90.6867 66.0936 90.6867 66.0024 90.5374C65.5468 89.792 64.9809 89.1505 64.3338 88.6475C64.213 88.5536 64.213 88.3673 64.3339 88.2734C64.981 87.7705 65.5468 87.1289 66.0024 86.3834Z" fill="white"/>
<path d="M118.421 120.387H113.359C113.237 120.387 113.139 120.485 113.139 120.607V122.209C113.139 122.33 113.237 122.429 113.359 122.429H118.421C118.543 122.429 118.642 122.33 118.642 122.209V120.607C118.642 120.485 118.543 120.387 118.421 120.387Z" fill="white"/>
<path d="M136.686 98.3635H137.486C137.608 98.3635 137.707 98.2648 137.707 98.1431V87.6598C137.707 87.5381 137.608 87.4395 137.486 87.4395H113.359C113.237 87.4395 113.139 87.5381 113.139 87.6598V89.2615C113.139 89.3832 113.237 89.4818 113.359 89.4818H135.444C135.566 89.4818 135.664 89.5805 135.664 89.7022V96.1867C135.664 96.2983 135.581 96.3919 135.47 96.4078C131.363 96.9991 128.196 100.542 128.196 104.81C128.196 109.08 131.363 112.623 135.47 113.215C135.581 113.231 135.664 113.324 135.664 113.436V120.167C135.664 120.289 135.566 120.387 135.444 120.387H131.774C131.774 120.387 131.774 120.387 131.774 120.387C131.774 120.387 131.774 120.387 131.774 120.387C129.486 120.387 127.614 118.02 127.525 115.067C127.521 114.945 127.423 114.846 127.301 114.846H125.699C125.578 114.846 125.479 114.945 125.476 115.067C125.389 117.925 123.633 120.234 121.446 120.38C121.325 120.388 121.226 120.486 121.226 120.607V122.209C121.226 122.331 121.325 122.429 121.446 122.437C123.633 122.583 125.389 124.892 125.476 127.75C125.479 127.871 125.578 127.97 125.699 127.97H127.301C127.423 127.97 127.521 127.871 127.525 127.75C127.614 124.799 129.482 122.434 131.768 122.43H137.486C137.608 122.43 137.707 122.331 137.707 122.209V111.48C137.707 111.358 137.608 111.259 137.486 111.259H136.686C133.131 111.259 130.239 108.366 130.239 104.81C130.239 101.255 133.131 98.3635 136.686 98.3635ZM126.703 123.485C126.612 123.634 126.388 123.634 126.297 123.485C125.841 122.739 125.276 122.098 124.629 121.595C124.508 121.501 124.508 121.315 124.629 121.221C125.276 120.718 125.842 120.076 126.297 119.331C126.388 119.182 126.612 119.182 126.703 119.331C127.159 120.076 127.724 120.718 128.371 121.221C128.492 121.315 128.492 121.501 128.371 121.595C127.724 122.098 127.159 122.739 126.703 123.485Z" fill="white"/>
<path d="M110.695 115.01H109.093C108.972 115.01 108.873 115.108 108.873 115.23V117.036C108.873 117.158 108.972 117.256 109.093 117.256H110.695C110.817 117.256 110.915 117.158 110.915 117.036V115.23C110.915 115.108 110.817 115.01 110.695 115.01Z" fill="white"/>
<path d="M110.695 101.53H109.093C108.972 101.53 108.873 101.629 108.873 101.751V103.557C108.873 103.678 108.972 103.777 109.093 103.777H110.695C110.817 103.777 110.915 103.678 110.915 103.557V101.751C110.915 101.629 110.817 101.53 110.695 101.53Z" fill="white"/>
<path d="M110.695 106.023H109.093C108.972 106.023 108.873 106.122 108.873 106.244V108.05C108.873 108.171 108.972 108.27 109.093 108.27H110.695C110.817 108.27 110.915 108.171 110.915 108.05V106.244C110.915 106.122 110.817 106.023 110.695 106.023Z" fill="white"/>
<path d="M110.695 119.503H109.093C108.972 119.503 108.873 119.602 108.873 119.723V121.529C108.873 121.651 108.972 121.75 109.093 121.75H110.695C110.817 121.75 110.915 121.651 110.915 121.529V119.723C110.915 119.602 110.817 119.503 110.695 119.503Z" fill="white"/>
<path d="M110.695 110.517H109.093C108.972 110.517 108.873 110.615 108.873 110.737V112.543C108.873 112.665 108.972 112.763 109.093 112.763H110.695C110.817 112.763 110.915 112.665 110.915 112.543V110.737C110.915 110.615 110.817 110.517 110.695 110.517Z" fill="white"/>
<path d="M110.695 88.0508H109.093C108.972 88.0508 108.873 88.1494 108.873 88.2711V90.077C108.873 90.1987 108.972 90.2974 109.093 90.2974H110.695C110.817 90.2974 110.915 90.1987 110.915 90.077V88.2711C110.915 88.1494 110.817 88.0508 110.695 88.0508Z" fill="white"/>
<path d="M110.695 92.543H109.093C108.972 92.543 108.873 92.6416 108.873 92.7633V94.5692C108.873 94.6909 108.972 94.7896 109.093 94.7896H110.695C110.817 94.7896 110.915 94.6909 110.915 94.5692V92.7633C110.915 92.6416 110.817 92.543 110.695 92.543Z" fill="white"/>
<path d="M110.695 97.0371H109.093C108.972 97.0371 108.873 97.1358 108.873 97.2575V99.0633C108.873 99.1851 108.972 99.2837 109.093 99.2837H110.695C110.817 99.2837 110.915 99.1851 110.915 99.0633V97.2575C110.915 97.1358 110.817 97.0371 110.695 97.0371Z" fill="white"/>
<path d="M118.368 108.008H116.766C116.645 108.008 116.546 108.106 116.546 108.228V111.851C116.546 111.973 116.645 112.072 116.766 112.072H118.368C118.49 112.072 118.588 111.973 118.588 111.851V108.228C118.588 108.106 118.49 108.008 118.368 108.008Z" fill="white"/>
<path d="M118.368 97.0615H116.766C116.645 97.0615 116.546 97.1602 116.546 97.2819V105.746C116.546 105.867 116.645 105.966 116.766 105.966H118.368C118.49 105.966 118.588 105.867 118.588 105.746V97.2819C118.588 97.1602 118.49 97.0615 118.368 97.0615Z" fill="white"/>
<path d="M122.027 97.0615H120.425C120.304 97.0615 120.205 97.1602 120.205 97.2819V111.852C120.205 111.973 120.304 112.072 120.425 112.072H122.027C122.149 112.072 122.247 111.973 122.247 111.852V97.2819C122.247 97.1602 122.149 97.0615 122.027 97.0615Z" fill="white"/>
<path d="M78.2699 98.5322H60.5524C60.4307 98.5322 60.332 98.6309 60.332 98.7526V100.354C60.332 100.476 60.4307 100.575 60.5524 100.575H78.2699C78.3916 100.575 78.4903 100.476 78.4903 100.354V98.7526C78.4903 98.6309 78.3916 98.5322 78.2699 98.5322Z" fill="white"/>
<path d="M58.0694 98.5322H56.1256C56.0039 98.5322 55.9053 98.6309 55.9053 98.7526V100.354C55.9053 100.476 56.0039 100.575 56.1256 100.575H58.0694C58.1911 100.575 58.2897 100.476 58.2897 100.354V98.7526C58.2897 98.6309 58.1911 98.5322 58.0694 98.5322Z" fill="white"/>
<path d="M71.4947 109.795H56.1256C56.0039 109.795 55.9053 109.894 55.9053 110.015V111.617C55.9053 111.739 56.0039 111.837 56.1256 111.837H71.4947C71.6164 111.837 71.715 111.739 71.715 111.617V110.015C71.715 109.894 71.6164 109.795 71.4947 109.795Z" fill="white"/>
<path d="M78.2704 104.163H75.5788C75.4571 104.163 75.3584 104.262 75.3584 104.383V105.985C75.3584 106.107 75.4571 106.205 75.5788 106.205H78.2704C78.3921 106.205 78.4908 106.107 78.4908 105.985V104.383C78.4908 104.262 78.3921 104.163 78.2704 104.163Z" fill="white"/>
<path d="M73.5246 104.163H56.1256C56.0039 104.163 55.9053 104.262 55.9053 104.383V105.985C55.9053 106.107 56.0039 106.205 56.1256 106.205H73.5246C73.6463 106.205 73.7449 106.107 73.7449 105.985V104.383C73.7449 104.262 73.6463 104.163 73.5246 104.163Z" fill="white"/>
<path d="M96.606 63.4783L96.1016 61.9582C96.0633 61.8427 95.9386 61.7801 95.8231 61.8184L65.1621 71.9914C65.0466 72.0297 64.984 72.1544 65.0223 72.2699L65.5267 73.79C65.565 73.9055 65.6897 73.9681 65.8052 73.9298L96.4662 63.7568C96.5817 63.7185 96.6443 63.5938 96.606 63.4783Z" fill="white"/>
<path d="M123.894 54.6512C124.009 54.6128 124.134 54.6754 124.172 54.7909L126.215 60.9445C126.25 61.0504 126.2 61.1656 126.1 61.2154C124.467 62.0285 123.146 63.3417 122.313 65.0017C121.296 67.0288 121.13 69.3301 121.844 71.4819C122.558 73.6348 124.068 75.3804 126.095 76.3975C127.755 77.2303 129.599 77.4932 131.395 77.1685C131.505 77.1487 131.614 77.2113 131.649 77.3172L134.09 84.674C134.129 84.7895 134.253 84.8521 134.369 84.8137L135.889 84.3094C136.004 84.2711 136.067 84.1463 136.029 84.0308L132.971 74.8165C132.932 74.701 132.808 74.6384 132.692 74.6767L131.932 74.9288C130.298 75.4713 128.551 75.3445 127.011 74.572C125.471 73.7998 124.325 72.4739 123.782 70.8388C123.24 69.2047 123.366 67.457 124.139 65.9177C124.911 64.3784 126.236 63.232 127.87 62.6895L128.63 62.4373C128.746 62.3989 128.808 62.2742 128.77 62.1587L125.468 52.2091C125.429 52.0936 125.305 52.0311 125.189 52.0694L102.29 59.6691C102.175 59.7075 102.112 59.8322 102.15 59.9477L102.655 61.4678C102.693 61.5833 102.818 61.6459 102.933 61.6075L123.894 54.6512Z" fill="white"/>
<path d="M100.556 67.9918L102.076 67.4874C102.192 67.449 102.254 67.3243 102.216 67.2088L101.647 65.4949C101.609 65.3794 101.484 65.3168 101.368 65.3551L99.8484 65.8596C99.7329 65.8979 99.6703 66.0226 99.7087 66.1381L100.278 67.8521C100.316 67.9676 100.441 68.0302 100.556 67.9918Z" fill="white"/>
<path d="M105.369 83.1941L105.937 84.908C105.976 85.0235 106.1 85.0861 106.216 85.0478L107.736 84.5433C107.852 84.5049 107.914 84.3802 107.876 84.2647L107.307 82.5507C107.269 82.4352 107.144 82.3727 107.028 82.411L105.508 82.9155C105.393 82.9539 105.33 83.0786 105.369 83.1941Z" fill="white"/>
<path d="M100.8 62.9424L100.232 61.2287C100.193 61.1132 100.068 61.0506 99.953 61.0889L98.433 61.5934C98.3175 61.6317 98.255 61.7565 98.2933 61.872L98.8621 63.5857C98.9004 63.7012 99.0251 63.7638 99.1407 63.7255L100.661 63.221C100.776 63.1827 100.839 63.0579 100.8 62.9424Z" fill="white"/>
<path d="M106.461 80.001L105.893 78.2873C105.854 78.1718 105.73 78.1092 105.614 78.1475L104.094 78.652C103.979 78.6903 103.916 78.815 103.954 78.9306L104.523 80.6443C104.562 80.7598 104.686 80.8224 104.802 80.784L106.322 80.2796C106.437 80.2413 106.5 80.1165 106.461 80.001Z" fill="white"/>
<path d="M101.128 70.4029L101.696 72.117C101.735 72.2325 101.859 72.2951 101.975 72.2568L103.495 71.7525C103.61 71.7142 103.673 71.5895 103.634 71.4739L103.066 69.7598C103.027 69.6443 102.903 69.5817 102.787 69.62L101.267 70.1243C101.152 70.1627 101.089 70.2874 101.128 70.4029Z" fill="white"/>
<path d="M105.048 75.7376L104.48 74.0236C104.441 73.9081 104.317 73.8455 104.201 73.8839L102.681 74.3883C102.566 74.4267 102.503 74.5514 102.541 74.6669L103.11 76.3808C103.149 76.4963 103.273 76.5589 103.389 76.5206L104.909 76.0161C105.024 75.9778 105.087 75.8531 105.048 75.7376Z" fill="white"/>
<path d="M113.346 77.6713L111.825 78.1757C111.71 78.214 111.647 78.3388 111.686 78.4543L112.826 81.8928C112.865 82.0083 112.99 82.0709 113.105 82.0326L114.625 81.5282C114.741 81.4898 114.803 81.3651 114.765 81.2496L113.624 77.8111C113.586 77.6956 113.461 77.633 113.346 77.6713Z" fill="white"/>
<path d="M109.898 67.2817L108.378 67.7861C108.263 67.8244 108.2 67.9491 108.238 68.0646L110.904 76.0976C110.942 76.2131 111.067 76.2757 111.182 76.2374L112.702 75.7329C112.818 75.6946 112.881 75.5699 112.842 75.4544L110.177 67.4214C110.139 67.3059 110.014 67.2433 109.898 67.2817Z" fill="white"/>
<path d="M116.757 80.8228L118.277 80.3184C118.393 80.2801 118.455 80.1554 118.417 80.0399L113.829 66.2116C113.791 66.0961 113.666 66.0336 113.55 66.0719L112.03 66.5763C111.915 66.6146 111.852 66.7393 111.89 66.8548L116.478 80.6831C116.517 80.7986 116.641 80.8612 116.757 80.8228Z" fill="white"/>
</svg>
