<svg width="20" height="30" viewBox="0 0 20 30" fill="none" xmlns="http://www.w3.org/2000/svg">
<path d="M19.2667 20.9508C19.6686 20.5573 19.6671 19.9099 19.2633 19.5183L18.1936 18.4809C17.8044 18.1034 17.1853 18.1048 16.7978 18.4841L13.4371 21.7743C12.8045 22.3936 11.7385 21.946 11.7376 21.0607L11.717 0.999957C11.7164 0.447689 11.2683 0.000440249 10.716 0.000983784L9.18044 0.00249506C8.62814 0.00303863 8.18086 0.451221 8.18143 1.00352L8.202 21.0086C8.20291 21.8926 7.14038 22.3429 6.50578 21.7274L3.19366 18.515C2.80445 18.1375 2.18529 18.139 1.79785 18.5183L0.733276 19.5606C0.331405 19.954 0.332925 20.6014 0.736642 20.9929L9.32383 29.3216C9.71303 29.6991 10.3322 29.6976 10.7196 29.3183L19.2667 20.9508Z" fill="#26A0DA"/>
</svg>
