<svg width="66" height="41" viewBox="0 0 66 41" fill="none" xmlns="http://www.w3.org/2000/svg">
<path d="M49.7276 3.86384V1.81828H50.6368C50.8779 1.81828 51.1091 1.7225 51.2796 1.552C51.4501 1.3815 51.5459 1.15026 51.5459 0.90914C51.5459 0.668021 51.4501 0.436778 51.2796 0.266281C51.1091 0.0957841 50.8779 0 50.6368 0L43.3637 0C43.1225 0 42.8913 0.0957841 42.7208 0.266281C42.5503 0.436778 42.4545 0.668021 42.4545 0.90914C42.4545 1.15026 42.5503 1.3815 42.7208 1.552C42.8913 1.7225 43.1225 1.81828 43.3637 1.81828H44.2728V3.86384C39.739 4.55169 35.6326 6.92719 32.7761 10.5145C29.9196 14.1017 28.524 18.6359 28.8689 23.2085C29.2138 27.7812 31.2737 32.0546 34.636 35.1728C37.9983 38.2911 42.4146 40.0237 47.0002 40.0237C51.5859 40.0237 56.0022 38.2911 59.3644 35.1728C62.7267 32.0546 64.7866 27.7812 65.1315 23.2085C65.4764 18.6359 64.0808 14.1017 61.2243 10.5145C58.3678 6.92719 54.2614 4.55169 49.7276 3.86384ZM46.0911 3.63656V1.81828H47.9094V3.63656H46.0911ZM47.0002 38.1839C43.7636 38.1839 40.5997 37.2241 37.9086 35.426C35.2174 33.6278 33.12 31.072 31.8814 28.0818C30.6428 25.0916 30.3187 21.8012 30.9501 18.6268C31.5816 15.4524 33.1401 12.5365 35.4288 10.2479C37.7174 7.95928 40.6332 6.40071 43.8077 5.76928C46.9821 5.13785 50.2724 5.46192 53.2626 6.70051C56.2529 7.93911 58.8087 10.0366 60.6068 12.7277C62.405 15.4188 63.3647 18.5828 63.3647 21.8194C63.3647 26.1595 61.6406 30.3219 58.5717 33.3908C55.5027 36.4598 51.3404 38.1839 47.0002 38.1839Z" fill="#26A0DA"/>
<path d="M47.0003 7.27344C44.1234 7.27344 41.311 8.12656 38.9189 9.72492C36.5268 11.3233 34.6623 13.5951 33.5614 16.2531C32.4604 18.911 32.1723 21.8358 32.7336 24.6575C33.2949 27.4792 34.6803 30.0711 36.7146 32.1054C38.7489 34.1397 41.3408 35.5251 44.1625 36.0864C46.9842 36.6477 49.909 36.3596 52.5669 35.2586C55.2249 34.1577 57.4967 32.2932 59.0951 29.9011C60.6935 27.509 61.5466 24.6966 61.5466 21.8197C61.5466 17.9618 60.014 14.2619 57.2861 11.5339C54.5581 8.80598 50.8582 7.27344 47.0003 7.27344ZM47.0003 34.5476C44.483 34.5476 42.0222 33.8012 39.9291 32.4026C37.836 31.004 36.2046 29.0162 35.2412 26.6905C34.2779 24.3647 34.0258 21.8056 34.517 19.3366C35.0081 16.8676 36.2203 14.5997 38.0003 12.8196C39.7804 11.0396 42.0483 9.82739 44.5172 9.33628C46.9862 8.84517 49.5454 9.09723 51.8711 10.0606C54.1969 11.0239 56.1847 12.6553 57.5833 14.7484C58.9818 16.8415 59.7283 19.3023 59.7283 21.8197C59.7283 25.1953 58.3873 28.4327 56.0004 30.8197C53.6134 33.2067 50.376 34.5476 47.0003 34.5476Z" fill="#26A0DA"/>
<path d="M53.6272 14.8104L48.1724 20.2652C47.8286 20.1036 47.4548 20.0155 47.0751 20.0066C46.6953 19.9978 46.3178 20.0684 45.9669 20.2139C45.616 20.3594 45.2993 20.5766 45.0372 20.8516C44.7751 21.1266 44.5734 21.4533 44.4449 21.8108H37.9082C37.667 21.8108 37.4358 21.9066 37.2653 22.0771C37.0948 22.2476 36.999 22.4788 36.999 22.7199C36.999 22.961 37.0948 23.1923 37.2653 23.3628C37.4358 23.5333 37.667 23.6291 37.9082 23.6291H44.4358C44.5492 23.9903 44.7365 24.324 44.9859 24.6089C45.2353 24.8939 45.5413 25.1237 45.8844 25.2839C46.2275 25.444 46.6002 25.531 46.9788 25.5392C47.3573 25.5475 47.7335 25.4768 48.0832 25.3317C48.4329 25.1866 48.7486 24.9703 49.0102 24.6965C49.2718 24.4227 49.4734 24.0974 49.6024 23.7414C49.7314 23.3854 49.7848 23.0065 49.7593 22.6287C49.7338 22.2509 49.6299 21.8826 49.4542 21.5471L54.9091 16.0923C55.058 15.9184 55.1358 15.6947 55.127 15.4658C55.1182 15.237 55.0233 15.02 54.8614 14.8581C54.6995 14.6962 54.4824 14.6013 54.2536 14.5925C54.0248 14.5836 53.8011 14.6615 53.6272 14.8104ZM46.9996 23.6382C46.7584 23.6382 46.5272 23.5424 46.3567 23.3719C46.1862 23.2014 46.0904 22.9701 46.0904 22.729C46.0904 22.4879 46.1862 22.2567 46.3567 22.0862C46.5272 21.9157 46.7584 21.8199 46.9996 21.8199C46.9996 22.061 47.0953 22.2922 47.2658 22.4627C47.4363 22.6332 47.6676 22.729 47.9087 22.729C47.9087 22.9701 47.8129 23.2014 47.6424 23.3719C47.4719 23.5424 47.2407 23.6382 46.9996 23.6382Z" fill="#26A0DA"/>
<rect x="11" y="12" width="22" height="2" rx="1" fill="#26A0DA"/>
<rect x="2" y="18" width="28" height="2" rx="1" fill="#26A0DA"/>
<rect x="5" y="25" width="26" height="2" rx="1" fill="#26A0DA"/>
<rect y="32" width="34" height="2" rx="1" fill="#26A0DA"/>
</svg>
