<svg width="20" height="30" viewBox="0 0 20 30" fill="none" xmlns="http://www.w3.org/2000/svg">
<path d="M0.733324 9.04925C0.33143 9.4427 0.332944 10.0901 0.736674 10.4817L1.80638 11.5191C2.19559 11.8966 2.81472 11.8952 3.20216 11.5159L6.56287 8.22572C7.19548 7.60639 8.26153 8.05395 8.26244 8.93926L8.28302 29C8.28358 29.5523 8.73173 29.9996 9.284 29.999L10.8196 29.9975C11.3719 29.997 11.8191 29.5488 11.8186 28.9965L11.798 8.99141C11.7971 8.10736 12.8596 7.65706 13.4942 8.27256L16.8063 11.485C17.1956 11.8625 17.8147 11.861 18.2021 11.4817L19.2667 10.4394C19.6686 10.046 19.6671 9.39862 19.2634 9.00706L10.6762 0.678421C10.287 0.300932 9.66783 0.302378 9.28039 0.681681L0.733324 9.04925Z" fill="black"/>
</svg>
