<svg width="110" height="49" viewBox="0 0 110 49" fill="none" xmlns="http://www.w3.org/2000/svg">
<path d="M30.065 28V17.995H34.31C35.04 17.995 35.67 18.09 36.2 18.28C36.74 18.46 37.16 18.755 37.46 19.165C37.76 19.565 37.91 20.1 37.91 20.77C37.91 21.22 37.8 21.59 37.58 21.88C37.36 22.17 37.095 22.405 36.785 22.585C36.475 22.755 36.185 22.89 35.915 22.99L35.645 22.465C36.195 22.485 36.675 22.6 37.085 22.81C37.505 23.01 37.83 23.295 38.06 23.665C38.3 24.025 38.42 24.46 38.42 24.97C38.42 25.67 38.25 26.245 37.91 26.695C37.58 27.135 37.135 27.465 36.575 27.685C36.015 27.895 35.395 28 34.715 28H30.065ZM32.495 26.125H34.535C34.785 26.125 35.015 26.09 35.225 26.02C35.435 25.94 35.605 25.81 35.735 25.63C35.865 25.44 35.93 25.19 35.93 24.88C35.93 24.65 35.89 24.46 35.81 24.31C35.73 24.16 35.62 24.045 35.48 23.965C35.35 23.875 35.2 23.81 35.03 23.77C34.86 23.73 34.68 23.71 34.49 23.71H32.495V26.125ZM32.495 21.925H34.445C34.615 21.925 34.775 21.895 34.925 21.835C35.075 21.765 35.195 21.66 35.285 21.52C35.385 21.38 35.435 21.195 35.435 20.965C35.435 20.555 35.325 20.275 35.105 20.125C34.885 19.965 34.615 19.885 34.295 19.885H32.495V21.925ZM42.9785 28.225C42.5185 28.225 42.0835 28.18 41.6735 28.09C41.2735 28.01 40.9185 27.875 40.6085 27.685C40.3085 27.485 40.0735 27.22 39.9035 26.89C39.7335 26.55 39.6485 26.13 39.6485 25.63C39.6485 25.16 39.7435 24.75 39.9335 24.4C40.1335 24.05 40.4335 23.78 40.8335 23.59C41.2335 23.4 41.7385 23.305 42.3485 23.305C42.6885 23.305 43.0185 23.34 43.3385 23.41C43.6585 23.48 43.9435 23.575 44.1935 23.695C44.4535 23.815 44.6585 23.945 44.8085 24.085L44.8985 25.165C44.6985 25.045 44.4585 24.95 44.1785 24.88C43.8985 24.81 43.5985 24.775 43.2785 24.775C42.7885 24.775 42.4285 24.85 42.1985 25C41.9785 25.14 41.8685 25.365 41.8685 25.675C41.8685 25.865 41.9235 26.035 42.0335 26.185C42.1435 26.335 42.2885 26.45 42.4685 26.53C42.6585 26.61 42.8535 26.65 43.0535 26.65C43.5635 26.65 43.9185 26.615 44.1185 26.545C44.3285 26.475 44.4335 26.335 44.4335 26.125V23.335C44.4335 22.875 44.2835 22.545 43.9835 22.345C43.6935 22.135 43.2785 22.03 42.7385 22.03C42.2985 22.03 41.8535 22.11 41.4035 22.27C40.9635 22.42 40.6035 22.605 40.3235 22.825V20.845C40.5835 20.685 40.9835 20.535 41.5235 20.395C42.0735 20.255 42.6885 20.185 43.3685 20.185C43.6085 20.185 43.8735 20.205 44.1635 20.245C44.4535 20.285 44.7435 20.36 45.0335 20.47C45.3235 20.57 45.5885 20.72 45.8285 20.92C46.0785 21.12 46.2785 21.375 46.4285 21.685C46.5785 21.995 46.6535 22.38 46.6535 22.84L46.6385 26.425C46.6385 26.855 46.4935 27.205 46.2035 27.475C45.9135 27.735 45.4935 27.925 44.9435 28.045C44.4035 28.165 43.7485 28.225 42.9785 28.225ZM48.6375 21.055C48.8275 20.955 49.0775 20.855 49.3875 20.755C49.6975 20.645 50.0375 20.55 50.4075 20.47C50.7775 20.39 51.1475 20.325 51.5175 20.275C51.8975 20.225 52.2475 20.2 52.5675 20.2C53.2475 20.2 53.8275 20.29 54.3075 20.47C54.7875 20.64 55.1525 20.92 55.4025 21.31C55.6625 21.7 55.7925 22.23 55.7925 22.9V28H53.5575V23.35C53.5575 23.16 53.5275 22.985 53.4675 22.825C53.4175 22.665 53.3375 22.53 53.2275 22.42C53.1175 22.3 52.9675 22.21 52.7775 22.15C52.5875 22.08 52.3575 22.045 52.0875 22.045C51.8575 22.045 51.6275 22.075 51.3975 22.135C51.1675 22.185 50.9925 22.24 50.8725 22.3V28H48.6375V21.055ZM59.5181 23.815L62.3081 20.41H65.0231L60.8081 24.865L59.5181 23.815ZM59.9981 28H57.7781V17.545H60.0281L59.9981 28ZM61.2131 22.84L65.2181 28H62.3831L59.6231 24.355L61.2131 22.84Z" fill="black"/>
<path d="M51.36 46V37.63H48.33V35.995H56.445V37.63H53.4V46H51.36ZM56.9162 46V39.175C57.0562 39.085 57.3012 38.965 57.6512 38.815C58.0112 38.665 58.4262 38.535 58.8962 38.425C59.3662 38.305 59.8412 38.245 60.3212 38.245C60.6812 38.245 60.9662 38.275 61.1762 38.335C61.3962 38.385 61.5662 38.45 61.6862 38.53V39.97C61.4862 39.94 61.2562 39.915 60.9962 39.895C60.7462 39.875 60.4862 39.87 60.2162 39.88C59.9562 39.88 59.7012 39.89 59.4512 39.91C59.2112 39.93 59.0012 39.955 58.8212 39.985V46H56.9162ZM65.9325 46.225C65.5125 46.225 65.1125 46.185 64.7325 46.105C64.3525 46.025 64.0125 45.895 63.7125 45.715C63.4125 45.525 63.1725 45.27 62.9925 44.95C62.8225 44.62 62.7375 44.21 62.7375 43.72C62.7375 43.21 62.8425 42.78 63.0525 42.43C63.2625 42.07 63.5675 41.8 63.9675 41.62C64.3775 41.43 64.8775 41.335 65.4675 41.335C65.8275 41.335 66.1625 41.37 66.4725 41.44C66.7825 41.5 67.0625 41.585 67.3125 41.695C67.5625 41.805 67.7675 41.925 67.9275 42.055L68.0625 43.12C67.8525 42.98 67.5825 42.87 67.2525 42.79C66.9325 42.7 66.5825 42.655 66.2025 42.655C65.6725 42.655 65.2775 42.74 65.0175 42.91C64.7575 43.08 64.6275 43.345 64.6275 43.705C64.6275 43.955 64.6975 44.165 64.8375 44.335C64.9775 44.495 65.1575 44.62 65.3775 44.71C65.5975 44.79 65.8275 44.83 66.0675 44.83C66.6175 44.83 67.0125 44.795 67.2525 44.725C67.5025 44.645 67.6275 44.48 67.6275 44.23V41.245C67.6275 40.755 67.4725 40.4 67.1625 40.18C66.8525 39.95 66.4175 39.835 65.8575 39.835C65.4275 39.835 64.9875 39.91 64.5375 40.06C64.0875 40.2 63.7225 40.385 63.4425 40.615V38.89C63.7125 38.72 64.1175 38.57 64.6575 38.44C65.1975 38.31 65.7775 38.245 66.3975 38.245C66.6575 38.245 66.9325 38.27 67.2225 38.32C67.5125 38.37 67.7875 38.45 68.0475 38.56C68.3175 38.67 68.5625 38.825 68.7825 39.025C69.0025 39.215 69.1775 39.46 69.3075 39.76C69.4375 40.05 69.5025 40.405 69.5025 40.825V44.41C69.5025 44.88 69.3525 45.25 69.0525 45.52C68.7525 45.78 68.3375 45.96 67.8075 46.06C67.2775 46.17 66.6525 46.225 65.9325 46.225ZM71.6086 39.07C71.8186 38.97 72.0686 38.87 72.3586 38.77C72.6486 38.67 72.9636 38.585 73.3036 38.515C73.6436 38.435 73.9836 38.375 74.3236 38.335C74.6736 38.285 75.0036 38.26 75.3136 38.26C76.0136 38.26 76.5936 38.355 77.0536 38.545C77.5236 38.725 77.8736 39.015 78.1036 39.415C78.3436 39.805 78.4636 40.32 78.4636 40.96V46H76.5736V41.29C76.5736 41.1 76.5486 40.92 76.4986 40.75C76.4486 40.57 76.3636 40.415 76.2436 40.285C76.1236 40.145 75.9586 40.04 75.7486 39.97C75.5386 39.89 75.2686 39.85 74.9386 39.85C74.6886 39.85 74.4336 39.875 74.1736 39.925C73.9136 39.975 73.6936 40.04 73.5136 40.12V46H71.6086V39.07ZM82.7788 46.225C82.2388 46.225 81.7788 46.165 81.3988 46.045C81.0188 45.935 80.6538 45.8 80.3038 45.64V43.93C80.5338 44.08 80.7738 44.225 81.0238 44.365C81.2838 44.495 81.5588 44.6 81.8488 44.68C82.1488 44.76 82.4688 44.8 82.8088 44.8C83.2088 44.8 83.5038 44.725 83.6938 44.575C83.8938 44.415 83.9938 44.225 83.9938 44.005C83.9938 43.795 83.9188 43.635 83.7688 43.525C83.6188 43.405 83.4238 43.305 83.1838 43.225C82.9438 43.145 82.6888 43.065 82.4188 42.985C82.1688 42.925 81.9138 42.845 81.6538 42.745C81.4038 42.645 81.1738 42.51 80.9638 42.34C80.7538 42.17 80.5838 41.955 80.4538 41.695C80.3338 41.425 80.2738 41.1 80.2738 40.72C80.2738 40.27 80.3638 39.89 80.5438 39.58C80.7238 39.27 80.9588 39.02 81.2488 38.83C81.5388 38.64 81.8588 38.505 82.2088 38.425C82.5588 38.335 82.8988 38.29 83.2288 38.29C83.7988 38.31 84.2588 38.38 84.6088 38.5C84.9588 38.61 85.2888 38.755 85.5988 38.935L85.6138 40.48C85.2638 40.29 84.9238 40.12 84.5938 39.97C84.2638 39.81 83.8888 39.73 83.4688 39.73C83.0788 39.73 82.7738 39.8 82.5538 39.94C82.3438 40.07 82.2388 40.255 82.2388 40.495C82.2388 40.705 82.3038 40.875 82.4338 41.005C82.5638 41.135 82.7338 41.235 82.9438 41.305C83.1538 41.375 83.3838 41.445 83.6338 41.515C83.8838 41.585 84.1438 41.665 84.4138 41.755C84.6838 41.835 84.9338 41.955 85.1638 42.115C85.3938 42.275 85.5788 42.49 85.7188 42.76C85.8688 43.02 85.9438 43.37 85.9438 43.81C85.9338 44.39 85.7788 44.86 85.4788 45.22C85.1788 45.57 84.7838 45.825 84.2938 45.985C83.8138 46.145 83.3088 46.225 82.7788 46.225ZM88.2633 46V39.94H87.1083V38.44H88.2783V38.2C88.2783 37.69 88.3333 37.26 88.4433 36.91C88.5533 36.56 88.6983 36.275 88.8783 36.055C89.0683 35.825 89.2783 35.655 89.5083 35.545C89.7483 35.425 89.9983 35.345 90.2583 35.305C90.5183 35.265 90.7783 35.245 91.0383 35.245C91.1883 35.245 91.3483 35.255 91.5183 35.275C91.6883 35.295 91.8333 35.325 91.9533 35.365V37.045C91.8633 36.965 91.7633 36.905 91.6533 36.865C91.5533 36.815 91.4183 36.79 91.2483 36.79C91.1083 36.79 90.9733 36.805 90.8433 36.835C90.7133 36.855 90.5983 36.91 90.4983 37C90.3983 37.08 90.3183 37.2 90.2583 37.36C90.2083 37.52 90.1833 37.735 90.1833 38.005V38.44H91.9533V39.94H90.1683V46H88.2633ZM96.4718 46.225C95.7218 46.225 95.0668 46.075 94.5068 45.775C93.9468 45.465 93.5118 45.015 93.2018 44.425C92.8918 43.835 92.7368 43.125 92.7368 42.295C92.7368 40.975 93.0518 39.97 93.6818 39.28C94.3218 38.58 95.2168 38.23 96.3668 38.23C97.1968 38.23 97.8618 38.41 98.3618 38.77C98.8718 39.13 99.2418 39.645 99.4718 40.315C99.7118 40.975 99.8268 41.765 99.8168 42.685H93.9668L93.8168 41.395H98.3018L97.9418 41.935C97.9218 41.145 97.7818 40.58 97.5218 40.24C97.2718 39.89 96.8668 39.715 96.3068 39.715C95.9668 39.715 95.6668 39.795 95.4068 39.955C95.1568 40.105 94.9618 40.36 94.8218 40.72C94.6918 41.08 94.6268 41.575 94.6268 42.205C94.6268 42.985 94.8118 43.585 95.1818 44.005C95.5518 44.415 96.1168 44.62 96.8768 44.62C97.1868 44.62 97.4818 44.59 97.7618 44.53C98.0518 44.46 98.3168 44.38 98.5568 44.29C98.8068 44.2 99.0168 44.115 99.1868 44.035V45.715C98.8368 45.865 98.4368 45.985 97.9868 46.075C97.5468 46.175 97.0418 46.225 96.4718 46.225ZM101.491 46V39.175C101.631 39.085 101.876 38.965 102.226 38.815C102.586 38.665 103.001 38.535 103.471 38.425C103.941 38.305 104.416 38.245 104.896 38.245C105.256 38.245 105.541 38.275 105.751 38.335C105.971 38.385 106.141 38.45 106.261 38.53V39.97C106.061 39.94 105.831 39.915 105.571 39.895C105.321 39.875 105.061 39.87 104.791 39.88C104.531 39.88 104.276 39.89 104.026 39.91C103.786 39.93 103.576 39.955 103.396 39.985V46H101.491ZM106.148 46V44.065H108.128V46H106.148Z" fill="#26A0DA"/>
<path fill-rule="evenodd" clip-rule="evenodd" d="M0 39.0108C0 39.5578 0.447 40 1 40H45C45.553 40 46 39.5578 46 39.0108C46 38.4638 45.553 38.0217 45 38.0217H1C0.447 38.0217 0 38.4638 0 39.0108ZM16 31.0975C16 30.5505 15.553 30.1083 15 30.1083H14V17.2491H15C15.553 17.2491 16 16.807 16 16.26C16 15.7139 15.553 15.2708 15 15.2708H7C6.447 15.2708 6 15.7139 6 16.26C6 16.807 6.447 17.2491 7 17.2491H8V30.1083H7C6.447 30.1083 6 30.5505 6 31.0975C6 31.6445 6.447 32.0867 7 32.0867H15C15.553 32.0867 16 31.6445 16 31.0975ZM10 17.2491H12V30.1083H10V17.2491ZM28 31.0975C28 30.5505 27.553 30.1083 27 30.1083H26V17.2491H27C27.553 17.2491 28 16.807 28 16.26C28 15.7139 27.553 15.2708 27 15.2708H19C18.447 15.2708 18 15.7139 18 16.26C18 16.807 18.447 17.2491 19 17.2491H20V30.1083H19C18.447 30.1083 18 30.5505 18 31.0975C18 31.6445 18.447 32.0867 19 32.0867H27C27.553 32.0867 28 31.6445 28 31.0975ZM22 30.1083V17.2491H24V30.1083H22ZM42 36.0433C42.553 36.0433 43 35.6012 43 35.0542C43 34.5071 42.553 34.065 42 34.065H4C3.447 34.065 3 34.5071 3 35.0542C3 35.6012 3.447 36.0433 4 36.0433H42ZM23 0L2 11.3141V13.2924H44V11.3141L23 0ZM23 2.85474L39.541 11.3141H6.396L23 2.85474Z" fill="black"/>
</svg>
