<svg width="118" height="50" viewBox="0 0 118 50" fill="none" xmlns="http://www.w3.org/2000/svg">
<path d="M35.5003 11.3364C33.6156 11.3364 32.0825 12.7973 32.0825 14.5933C32.0825 16.3893 33.6156 17.8503 35.5003 17.8503L38.4298 17.8503C39.2373 17.8503 39.8945 18.4766 39.8945 19.2462C39.8945 20.0157 39.2373 20.642 38.4298 20.642L35.5003 20.642C34.6927 20.642 34.0355 20.0157 34.0355 19.2462L34.0355 18.7809L32.0825 18.7809L32.0825 19.2462C32.0825 21.0421 33.6156 22.5031 35.5003 22.5031L35.9885 22.5031L35.9885 24.3643L37.9415 24.3643L37.9415 22.5031L38.4298 22.5031C40.3144 22.5031 41.8475 21.0421 41.8475 19.2462C41.8475 17.4502 40.3144 15.9892 38.4298 15.9892L35.5003 15.9892C34.6927 15.9892 34.0355 15.3629 34.0355 14.5933C34.0355 13.8238 34.6927 13.1975 35.5003 13.1975L38.4298 13.1975C39.2373 13.1975 39.8945 13.8238 39.8945 14.5933L39.8945 15.0586L41.8475 15.0586L41.8475 14.5933C41.8475 12.7973 40.3144 11.3364 38.4298 11.3364L37.9415 11.3364L37.9415 9.47523L35.9885 9.47523L35.9885 11.3364L35.5003 11.3364Z" fill="black"/>
<mask id="path-2-inside-1_1543_2386" fill="white">
<path d="M5.58105 5.41406H15.346V14.8889H5.58105V5.41406Z"/>
</mask>
<path d="M5.58105 5.41406V3.41406H3.58105V5.41406H5.58105ZM5.58105 7.41406H15.346V3.41406H5.58105V7.41406ZM7.58105 14.8889V5.41406H3.58105V14.8889H7.58105Z" fill="black" mask="url(#path-2-inside-1_1543_2386)"/>
<mask id="path-4-inside-2_1543_2386" fill="white">
<path d="M5.58105 18.9502H15.346V28.425H5.58105V18.9502Z"/>
</mask>
<path d="M5.58105 28.425H3.58105V30.425H5.58105V28.425ZM15.346 26.425H5.58105V30.425H15.346V26.425ZM7.58105 28.425V18.9502H3.58105V28.425H7.58105Z" fill="black" mask="url(#path-4-inside-2_1543_2386)"/>
<mask id="path-6-inside-3_1543_2386" fill="white">
<path d="M66.958 14.8887L57.193 14.8887L57.193 5.41384L66.958 5.41384L66.958 14.8887Z"/>
</mask>
<path d="M66.958 5.41384L68.958 5.41384L68.958 3.41384L66.958 3.41384L66.958 5.41384ZM57.193 7.41384L66.958 7.41384L66.958 3.41384L57.193 3.41384L57.193 7.41384ZM64.958 5.41384L64.958 14.8887L68.958 14.8887L68.958 5.41384L64.958 5.41384Z" fill="black" mask="url(#path-6-inside-3_1543_2386)"/>
<path d="M48.3248 16.9192C48.3248 22.9831 43.2542 27.9244 36.9673 27.9244C30.6805 27.9244 25.6099 22.9831 25.6099 16.9192C25.6099 10.8553 30.6805 5.91406 36.9673 5.91406C43.2542 5.91406 48.3248 10.8553 48.3248 16.9192Z" stroke="black"/>
<path d="M59.1354 31.3425C57.3498 31.3425 55.9827 30.8877 55.0341 29.9781C54.0966 29.0577 53.6279 27.6392 53.6279 25.7225C53.6279 23.8601 54.0799 22.4524 54.9839 21.4995C55.8878 20.5357 57.2717 20.0539 59.1354 20.0539C59.7269 20.0539 60.3239 20.1243 60.9266 20.265C61.5292 20.4058 62.1151 20.6007 62.6842 20.8498V23.14C62.1039 22.7718 61.5459 22.5065 61.0103 22.3441C60.4746 22.1817 59.9724 22.1004 59.5037 22.1004C58.8452 22.1004 58.2872 22.2141 57.8297 22.4415C57.3833 22.6689 57.0373 23.0479 56.7918 23.5785C56.5574 24.1091 56.4402 24.8238 56.4402 25.7225C56.4402 26.6213 56.5574 27.3306 56.7918 27.8503C57.0373 28.3701 57.3944 28.7437 57.8631 28.9711C58.343 29.1876 58.9289 29.2959 59.6208 29.2959C60.0338 29.2959 60.5025 29.2201 61.027 29.0685C61.5515 28.9169 62.1039 28.657 62.6842 28.2889V30.5791C62.3718 30.7307 62.0146 30.866 61.6129 30.9851C61.2223 31.0934 60.8094 31.18 60.3741 31.245C59.9501 31.31 59.5371 31.3425 59.1354 31.3425Z" fill="#26A0DA"/>
<path d="M67.9219 31.375C67.4085 31.375 66.9231 31.3262 66.4655 31.2288C66.0191 31.1421 65.6229 30.996 65.277 30.7902C64.9422 30.5737 64.6799 30.2867 64.4902 29.9294C64.3005 29.5612 64.2056 29.1064 64.2056 28.565C64.2056 28.0561 64.3116 27.6121 64.5237 27.2331C64.7469 26.8541 65.0817 26.5617 65.5281 26.356C65.9745 26.1503 66.5381 26.0474 67.2188 26.0474C67.5983 26.0474 67.9665 26.0853 68.3237 26.1611C68.6808 26.2369 68.9988 26.3398 69.2778 26.4697C69.568 26.5996 69.7968 26.7404 69.9642 26.892L70.0646 28.0615C69.8414 27.9315 69.5736 27.8287 69.2611 27.7529C68.9486 27.6771 68.6138 27.6392 68.2567 27.6392C67.7099 27.6392 67.3081 27.7204 67.0514 27.8828C66.8059 28.0344 66.6831 28.278 66.6831 28.6137C66.6831 28.8195 66.7445 29.0035 66.8673 29.166C66.99 29.3284 67.1519 29.4529 67.3527 29.5395C67.5648 29.6262 67.7824 29.6695 68.0056 29.6695C68.5748 29.6695 68.9709 29.6316 69.1941 29.5558C69.4285 29.48 69.5457 29.3284 69.5457 29.101V26.0799C69.5457 25.5818 69.3783 25.2244 69.0435 25.0079C68.7198 24.7805 68.2567 24.6668 67.6541 24.6668C67.163 24.6668 66.6664 24.7534 66.1642 24.9267C65.6732 25.0891 65.2714 25.2894 64.9589 25.5276V23.3836C65.2491 23.2104 65.6955 23.0479 66.2981 22.8963C66.9119 22.7447 67.5983 22.6689 68.3571 22.6689C68.625 22.6689 68.9207 22.6906 69.2443 22.7339C69.568 22.7772 69.8916 22.8584 70.2153 22.9775C70.5389 23.0858 70.8346 23.2483 71.1025 23.4648C71.3815 23.6814 71.6047 23.9575 71.7721 24.2932C71.9395 24.6289 72.0232 25.0458 72.0232 25.5439L72.0064 29.4258C72.0064 29.8915 71.8446 30.2705 71.521 30.5628C71.1973 30.8444 70.7286 31.0501 70.1148 31.18C69.5122 31.31 68.7812 31.375 67.9219 31.375Z" fill="#26A0DA"/>
<path d="M76.7483 31.375C76.1457 31.375 75.6267 31.31 75.1915 31.18C74.7674 31.0609 74.3656 30.9256 73.9862 30.774V28.6462C74.2206 28.7978 74.4828 28.9548 74.773 29.1172C75.0631 29.2688 75.3812 29.3934 75.7272 29.4908C76.0843 29.5883 76.4581 29.637 76.8487 29.637C77.2505 29.637 77.5295 29.572 77.6857 29.4421C77.8531 29.3013 77.9368 29.1335 77.9368 28.9386C77.9368 28.7545 77.8531 28.6083 77.6857 28.5C77.5183 28.3809 77.3007 28.2835 77.0329 28.2077C76.765 28.1319 76.4805 28.0615 76.1791 27.9965C75.9113 27.9424 75.6435 27.8611 75.3756 27.7529C75.1078 27.6338 74.8678 27.4767 74.6558 27.2818C74.4438 27.0869 74.2708 26.8487 74.1369 26.5672C74.0141 26.2748 73.9527 25.9229 73.9527 25.5114C73.9527 24.9808 74.0587 24.5422 74.2708 24.1957C74.4828 23.8384 74.7618 23.5515 75.1078 23.3349C75.4537 23.1183 75.8276 22.9667 76.2294 22.8801C76.6311 22.7826 77.0217 22.7393 77.4012 22.7502C78.0931 22.7718 78.6399 22.8476 79.0417 22.9775C79.4546 23.0967 79.8285 23.2537 80.1633 23.4486V25.349C79.7838 25.1432 79.4044 24.9537 79.0249 24.7805C78.6567 24.5964 78.2326 24.5043 77.7527 24.5043C77.3175 24.5043 77.005 24.5693 76.8153 24.6993C76.6255 24.8292 76.5307 25.0025 76.5307 25.219C76.5307 25.4248 76.5921 25.5872 76.7148 25.7063C76.8487 25.8254 77.0217 25.9229 77.2338 25.9987C77.4458 26.0636 77.6802 26.1286 77.9368 26.1936C78.2158 26.2585 78.5004 26.3398 78.7906 26.4372C79.0919 26.5238 79.3709 26.6538 79.6276 26.827C79.8954 26.9895 80.1075 27.2223 80.2637 27.5255C80.4311 27.8178 80.5148 28.2077 80.5148 28.6949C80.5036 29.3555 80.3195 29.8861 79.9624 30.2867C79.6053 30.6765 79.1421 30.9581 78.573 31.1313C78.015 31.2937 77.4067 31.375 76.7483 31.375Z" fill="#26A0DA"/>
<path d="M82.313 31.1313V19.6641H84.824V24.5368L83.7694 23.9846C84.2158 23.6056 84.7403 23.297 85.343 23.0588C85.9568 22.8097 86.5817 22.6852 87.2178 22.6852C87.8316 22.6852 88.3729 22.7826 88.8416 22.9775C89.3103 23.1725 89.673 23.4919 89.9297 23.9359C90.1975 24.369 90.3315 24.97 90.3315 25.7388V31.1313H87.8372V26.2423C87.8372 25.7009 87.6977 25.3111 87.4187 25.0728C87.1509 24.8238 86.7547 24.6993 86.2302 24.6993C85.9623 24.6993 85.6945 24.7372 85.4267 24.813C85.17 24.8779 84.9691 24.9646 84.824 25.0728L84.7905 31.1313H82.313Z" fill="#26A0DA"/>
<path d="M102.228 31.3587C101.124 31.3587 100.164 31.1584 99.3492 30.7577C98.5345 30.3463 97.8984 29.7236 97.4409 28.8898C96.9945 28.0561 96.7713 27.0003 96.7713 25.7225C96.7713 23.8709 97.2511 22.4686 98.2109 21.5157C99.1706 20.5628 100.51 20.0864 102.228 20.0864C103.333 20.0864 104.293 20.2921 105.108 20.7036C105.934 21.1042 106.57 21.716 107.016 22.539C107.463 23.362 107.686 24.4177 107.686 25.7063C107.686 27.5688 107.206 28.9765 106.246 29.9294C105.297 30.8823 103.958 31.3587 102.228 31.3587ZM102.228 29.1985C102.798 29.1985 103.278 29.0848 103.668 28.8574C104.07 28.63 104.371 28.2618 104.572 27.7529C104.784 27.2331 104.89 26.5509 104.89 25.7063C104.89 24.8509 104.784 24.1687 104.572 23.6597C104.371 23.1508 104.07 22.7881 103.668 22.5715C103.278 22.3441 102.798 22.2304 102.228 22.2304C101.659 22.2304 101.179 22.3441 100.789 22.5715C100.398 22.7989 100.097 23.167 99.8849 23.676C99.684 24.1849 99.5836 24.8725 99.5836 25.7388C99.5836 26.5942 99.684 27.2764 99.8849 27.7853C100.097 28.2835 100.398 28.6462 100.789 28.8736C101.179 29.0902 101.659 29.1985 102.228 29.1985Z" fill="#26A0DA"/>
<path d="M109.515 23.611C109.728 23.5027 110.007 23.3944 110.352 23.2862C110.698 23.167 111.078 23.0642 111.491 22.9775C111.904 22.8909 112.317 22.8205 112.73 22.7664C113.154 22.7123 113.544 22.6852 113.901 22.6852C114.66 22.6852 115.307 22.7826 115.843 22.9775C116.379 23.1616 116.786 23.4648 117.065 23.8871C117.355 24.3094 117.5 24.8833 117.5 25.6088V31.1313H115.006V26.0961C115.006 25.8904 114.973 25.7009 114.906 25.5276C114.85 25.3544 114.761 25.2082 114.638 25.0891C114.515 24.9591 114.348 24.8617 114.136 24.7967C113.924 24.7209 113.667 24.683 113.366 24.683C113.109 24.683 112.852 24.7155 112.596 24.7805C112.339 24.8346 112.144 24.8942 112.01 24.9591V31.1313H109.515V23.611Z" fill="#26A0DA"/>
<path d="M65.2706 47.3739V38.3457H68.5349C70.0415 38.3457 71.1621 38.7247 71.8968 39.4827C72.6315 40.2407 72.9989 41.3641 72.9989 42.853C72.9989 44.3419 72.6315 45.4699 71.8968 46.2369C71.1621 46.9949 70.0415 47.3739 68.5349 47.3739H65.2706ZM66.8051 46.1151H68.3814C69.423 46.1151 70.1903 45.8579 70.6832 45.3436C71.1761 44.8202 71.4225 43.99 71.4225 42.853C71.4225 41.7251 71.1761 40.8994 70.6832 40.376C70.1903 39.8527 69.423 39.591 68.3814 39.591H66.8051V46.1151Z" fill="black"/>
<path d="M77.7774 47.5769C77.0892 47.5769 76.4893 47.4416 75.9778 47.1709C75.4756 46.9002 75.085 46.4986 74.806 45.9662C74.5363 45.4338 74.4015 44.7841 74.4015 44.0171C74.4015 42.835 74.6851 41.9417 75.2524 41.3371C75.829 40.7235 76.6288 40.4167 77.6518 40.4167C78.4051 40.4167 79.0143 40.5791 79.4793 40.9039C79.9443 41.2288 80.2791 41.6845 80.4837 42.271C80.6976 42.8485 80.7999 43.5253 80.7906 44.3013H75.2803L75.2385 43.2456H79.6746L79.3258 43.584C79.2979 42.8891 79.1491 42.3838 78.8794 42.068C78.6097 41.7431 78.1866 41.5807 77.61 41.5807C77.238 41.5807 76.9218 41.6574 76.6614 41.8108C76.401 41.9552 76.201 42.2079 76.0615 42.5688C75.9313 42.9207 75.8662 43.408 75.8662 44.0306C75.8662 44.7886 76.0476 45.3661 76.4103 45.7632C76.773 46.1512 77.3077 46.3452 78.0145 46.3452C78.3307 46.3452 78.6237 46.3181 78.8934 46.264C79.1724 46.2098 79.4281 46.1422 79.6606 46.061C79.8931 45.9707 80.0931 45.885 80.2605 45.8038V47.1167C79.935 47.2521 79.5676 47.3604 79.1584 47.4416C78.7492 47.5318 78.2889 47.5769 77.7774 47.5769Z" fill="black"/>
<path d="M83.9256 47.3739H82.4748V38.0073H83.9256V47.3739Z" fill="black"/>
<path d="M86.0314 47.3739V40.6197H87.4961L87.5101 47.3739H86.0314ZM85.9895 39.4962V38.2104H87.5519V39.4962H85.9895Z" fill="black"/>
<path d="M91.9569 47.3739L89.0134 40.5791H90.5758L92.9752 46.2234L92.6265 46.264L94.8585 40.5791H96.379L93.4216 47.3739H91.9569Z" fill="black"/>
<path d="M100.378 47.5769C99.6898 47.5769 99.0899 47.4416 98.5784 47.1709C98.0762 46.9002 97.6856 46.4986 97.4066 45.9662C97.1369 45.4338 97.0021 44.7841 97.0021 44.0171C97.0021 42.835 97.2857 41.9417 97.853 41.3371C98.4296 40.7235 99.2294 40.4167 100.252 40.4167C101.006 40.4167 101.615 40.5791 102.08 40.9039C102.545 41.2288 102.88 41.6845 103.084 42.271C103.298 42.8485 103.4 43.5253 103.391 44.3013H97.8809L97.8391 43.2456H102.275L101.926 43.584C101.898 42.8891 101.75 42.3838 101.48 42.068C101.21 41.7431 100.787 41.5807 100.211 41.5807C99.8386 41.5807 99.5224 41.6574 99.262 41.8108C99.0016 41.9552 98.8016 42.2079 98.6621 42.5688C98.5319 42.9207 98.4668 43.408 98.4668 44.0306C98.4668 44.7886 98.6482 45.3661 99.0109 45.7632C99.3736 46.1512 99.9083 46.3452 100.615 46.3452C100.931 46.3452 101.224 46.3181 101.494 46.264C101.773 46.2098 102.029 46.1422 102.261 46.061C102.494 45.9707 102.694 45.885 102.861 45.8038V47.1167C102.536 47.2521 102.168 47.3604 101.759 47.4416C101.35 47.5318 100.889 47.5769 100.378 47.5769Z" fill="black"/>
<path d="M105.075 47.3739V41.2017C105.196 41.1295 105.419 41.0303 105.745 40.9039C106.07 40.7776 106.456 40.6693 106.903 40.5791C107.349 40.4798 107.8 40.4302 108.256 40.4302C108.488 40.4302 108.679 40.4482 108.828 40.4843C108.977 40.5204 109.102 40.561 109.205 40.6062V41.7431C108.991 41.7161 108.767 41.698 108.535 41.689C108.302 41.6709 108.07 41.6709 107.837 41.689C107.605 41.698 107.377 41.7161 107.154 41.7431C106.931 41.7702 106.726 41.7973 106.54 41.8243V47.3739H105.075Z" fill="black"/>
<path d="M111.735 49.9998C111.559 49.9998 111.391 49.9817 111.233 49.9456C111.075 49.9186 110.935 49.8825 110.815 49.8373V48.6192C110.926 48.6552 111.038 48.6868 111.149 48.7139C111.261 48.741 111.382 48.7545 111.512 48.7545C111.791 48.7545 112.024 48.6823 112.21 48.5379C112.396 48.3936 112.554 48.186 112.684 47.9153C112.814 47.6446 112.921 47.3197 113.005 46.9408L113.033 47.6446L110.047 40.5791H111.707L113.73 45.9391H113.521L115.516 40.5791H117.036L114.149 47.7935C113.916 48.371 113.665 48.8177 113.395 49.1335C113.126 49.4584 112.847 49.6839 112.558 49.8103C112.279 49.9366 112.005 49.9998 111.735 49.9998Z" fill="black"/>
<path fill-rule="evenodd" clip-rule="evenodd" d="M2 2H70.5398V18.9497H72.5398V2V0H70.5398H2H0V2V31.8387V33.8387H2H51.6138V31.8387H2V2Z" fill="black"/>
</svg>
