<svg width="79" height="79" viewBox="0 0 79 79" fill="none" xmlns="http://www.w3.org/2000/svg">
<path d="M76.9793 47.0238C86.367 65.8333 61.2041 79 39.4284 79C17.6527 79 0 61.3152 0 39.5C0 17.6848 17.6527 0 39.4284 0C61.2041 0 71.3466 26.3333 76.9793 47.0238Z" fill="#FFB800" fill-opacity="0.5"/>
<path d="M64.3118 44.2857C72.1547 60 51.1325 71 32.9402 71C14.7478 71 0 56.2254 0 38C0 19.7746 14.7478 5 32.9402 5C51.1325 5 59.606 27 64.3118 44.2857Z" fill="#FFB800"/>
<path d="M12.8049 46C12.5383 46 12.3249 45.9267 12.1649 45.78C12.0183 45.6333 11.9449 45.4333 11.9449 45.18C11.9449 44.1533 12.3383 43.1933 13.1249 42.3C13.9116 41.4067 15.1449 40.52 16.8249 39.64C17.7849 39.1333 18.5116 38.7 19.0049 38.34C19.5116 37.9667 19.8583 37.6 20.0449 37.24C20.2449 36.8667 20.3449 36.4267 20.3449 35.92C20.3449 35.1333 20.0849 34.5333 19.5649 34.12C19.0583 33.7067 18.3116 33.5 17.3249 33.5C16.2583 33.5 15.4249 33.7533 14.8249 34.26C14.2383 34.7667 13.9449 35.4733 13.9449 36.38C13.9449 36.62 13.9649 36.8733 14.0049 37.14L13.7649 37.16C13.2849 37.16 12.8783 37.02 12.5449 36.74C12.2116 36.46 12.0449 36.1133 12.0449 35.7C12.0449 34.98 12.2783 34.3267 12.7449 33.74C13.2116 33.14 13.8449 32.6733 14.6449 32.34C15.4583 31.9933 16.3516 31.82 17.3249 31.82C18.3249 31.82 19.1983 31.9867 19.9449 32.32C20.6916 32.6533 21.2649 33.1333 21.6649 33.76C22.0649 34.3733 22.2649 35.0933 22.2649 35.92C22.2649 36.8667 21.9183 37.72 21.2249 38.48C20.5449 39.24 19.3916 40.0467 17.7649 40.9C15.4049 42.1533 14.1583 43.3067 14.0249 44.36H20.8849C21.3916 44.36 21.7783 44.5 22.0449 44.78C22.3116 45.06 22.4449 45.4667 22.4449 46H12.8049ZM29.9096 46.18C28.9363 46.18 28.0363 45.9933 27.2096 45.62C26.3963 45.2333 25.7496 44.72 25.2696 44.08C24.7896 43.4267 24.5496 42.7067 24.5496 41.92V36.08C24.5496 35.2933 24.7829 34.58 25.2496 33.94C25.7296 33.2867 26.3763 32.7733 27.1896 32.4C28.0163 32.0133 28.9229 31.82 29.9096 31.82C30.8963 31.82 31.7963 32.0133 32.6096 32.4C33.4363 32.7733 34.0829 33.2867 34.5496 33.94C35.0296 34.58 35.2696 35.2933 35.2696 36.08V41.92C35.2696 42.7067 35.0296 43.4267 34.5496 44.08C34.0696 44.72 33.4163 45.2333 32.5896 45.62C31.7763 45.9933 30.8829 46.18 29.9096 46.18ZM29.9096 44.5C30.9363 44.5 31.7696 44.26 32.4096 43.78C33.0629 43.2867 33.3896 42.6533 33.3896 41.88V36.12C33.3896 35.3467 33.0629 34.72 32.4096 34.24C31.7696 33.7467 30.9363 33.5 29.9096 33.5C28.8829 33.5 28.0429 33.7467 27.3896 34.24C26.7496 34.72 26.4296 35.3467 26.4296 36.12V41.88C26.4296 42.6533 26.7496 43.2867 27.3896 43.78C28.0429 44.26 28.8829 44.5 29.9096 44.5ZM47.7546 32C47.8746 31.76 48.0346 31.58 48.2346 31.46C48.4479 31.3267 48.6813 31.26 48.9346 31.26C49.2813 31.26 49.6079 31.3667 49.9146 31.58L42.7146 46C42.4613 46.48 42.0746 46.72 41.5546 46.72C41.2079 46.72 40.8746 46.6067 40.5546 46.38L47.7546 32ZM40.6346 40.02C40.0479 40.02 39.5013 39.9067 38.9946 39.68C38.5013 39.44 38.1079 39.12 37.8146 38.72C37.5213 38.32 37.3746 37.8867 37.3746 37.42V34.42C37.3746 33.9533 37.5146 33.52 37.7946 33.12C38.0879 32.72 38.4813 32.4067 38.9746 32.18C39.4813 31.94 40.0346 31.82 40.6346 31.82C41.2213 31.82 41.7613 31.9333 42.2546 32.16C42.7479 32.3867 43.1346 32.7 43.4146 33.1C43.7079 33.5 43.8546 33.94 43.8546 34.42V37.42C43.8546 37.8867 43.7079 38.32 43.4146 38.72C43.1346 39.12 42.7479 39.44 42.2546 39.68C41.7613 39.9067 41.2213 40.02 40.6346 40.02ZM40.6346 38.56C41.0746 38.56 41.4346 38.4533 41.7146 38.24C41.9946 38.0133 42.1346 37.7267 42.1346 37.38V34.46C42.1346 34.1267 41.9946 33.8467 41.7146 33.62C41.4346 33.3933 41.0746 33.28 40.6346 33.28C40.1813 33.28 39.8079 33.3933 39.5146 33.62C39.2346 33.8467 39.0946 34.1267 39.0946 34.46V37.38C39.0946 37.7267 39.2346 38.0133 39.5146 38.24C39.7946 38.4533 40.1679 38.56 40.6346 38.56ZM49.8346 46.18C49.2479 46.18 48.7013 46.0667 48.1946 45.84C47.7013 45.6 47.3079 45.28 47.0146 44.88C46.7346 44.48 46.5946 44.0467 46.5946 43.58V40.58C46.5946 40.1133 46.7346 39.68 47.0146 39.28C47.3079 38.88 47.7013 38.5667 48.1946 38.34C48.7013 38.1 49.2479 37.98 49.8346 37.98C50.4346 37.98 50.9813 38.0933 51.4746 38.32C51.9679 38.5467 52.3546 38.86 52.6346 39.26C52.9146 39.66 53.0546 40.1 53.0546 40.58V43.58C53.0546 44.0467 52.9079 44.48 52.6146 44.88C52.3346 45.28 51.9479 45.6 51.4546 45.84C50.9613 46.0667 50.4213 46.18 49.8346 46.18ZM49.8946 44.68C50.3479 44.68 50.7146 44.5733 50.9946 44.36C51.2879 44.1333 51.4346 43.8533 51.4346 43.52V40.64C51.4346 40.32 51.2879 40.0467 50.9946 39.82C50.7013 39.5933 50.3346 39.48 49.8946 39.48C49.4413 39.48 49.0613 39.5933 48.7546 39.82C48.4613 40.0467 48.3146 40.32 48.3146 40.64V43.52C48.3146 43.8533 48.4613 44.1333 48.7546 44.36C49.0613 44.5733 49.4413 44.68 49.8946 44.68Z" fill="black"/>
</svg>
