<svg width="79" height="79" viewBox="0 0 79 79" fill="none" xmlns="http://www.w3.org/2000/svg">
<path d="M2.02074 47.0238C-7.36697 65.8333 17.7959 79 39.5716 79C61.3473 79 79 61.3152 79 39.5C79 17.6848 61.3473 0 39.5716 0C17.7959 0 7.65337 26.3333 2.02074 47.0238Z" fill="#26A0DA" fill-opacity="0.5"/>
<path d="M14.6882 44.2857C6.84532 60 27.8675 71 46.0598 71C64.2522 71 79 56.2254 79 38C79 19.7746 64.2522 5 46.0598 5C27.8675 5 19.394 27 14.6882 44.2857Z" fill="#26A0DA"/>
<path d="M33.6468 46.18C32.6335 46.18 31.7268 46.02 30.9268 45.7C30.1268 45.38 29.5001 44.94 29.0468 44.38C28.5935 43.8067 28.3668 43.16 28.3668 42.44C28.3668 41.9333 28.5135 41.5667 28.8068 41.34C29.1135 41.1 29.5801 40.9867 30.2068 41C30.1801 41.3733 30.1668 41.62 30.1668 41.74C30.1668 42.6333 30.4668 43.32 31.0668 43.8C31.6668 44.2667 32.5268 44.5 33.6468 44.5C35.9668 44.5 37.1268 43.7067 37.1268 42.12C37.1268 41.3333 36.8535 40.7333 36.3068 40.32C35.7601 39.8933 34.9668 39.68 33.9268 39.68H33.2268C32.9868 39.68 32.7868 39.6067 32.6268 39.46C32.4801 39.3 32.4068 39.1 32.4068 38.86C32.4068 38.6067 32.4801 38.4067 32.6268 38.26C32.7868 38.1133 32.9868 38.04 33.2268 38.04H33.9468C34.8001 38.04 35.4735 37.8333 35.9668 37.42C36.4735 36.9933 36.7268 36.4267 36.7268 35.72C36.7268 34.9867 36.4735 34.4333 35.9668 34.06C35.4735 33.6867 34.7401 33.5 33.7668 33.5C32.7268 33.5 31.9268 33.6867 31.3668 34.06C30.8201 34.42 30.5468 34.9467 30.5468 35.64C30.5468 35.92 30.5735 36.16 30.6268 36.36C30.0668 36.3867 29.6135 36.28 29.2668 36.04C28.9201 35.8 28.7468 35.4667 28.7468 35.04C28.7468 34.4267 28.9601 33.88 29.3868 33.4C29.8268 32.9067 30.4268 32.52 31.1868 32.24C31.9468 31.96 32.8068 31.82 33.7668 31.82C34.7401 31.82 35.5935 31.98 36.3268 32.3C37.0735 32.62 37.6468 33.0733 38.0468 33.66C38.4468 34.2467 38.6468 34.9333 38.6468 35.72C38.6468 37.0933 37.9201 38.1333 36.4668 38.84C37.3601 39.2 38.0068 39.64 38.4068 40.16C38.8201 40.68 39.0268 41.3333 39.0268 42.12C39.0268 43.3733 38.5468 44.3667 37.5868 45.1C36.6268 45.82 35.3135 46.18 33.6468 46.18ZM46.4877 46.18C45.5144 46.18 44.6144 45.9933 43.7877 45.62C42.9744 45.2333 42.3277 44.72 41.8477 44.08C41.3677 43.4267 41.1277 42.7067 41.1277 41.92V36.08C41.1277 35.2933 41.3611 34.58 41.8277 33.94C42.3077 33.2867 42.9544 32.7733 43.7677 32.4C44.5944 32.0133 45.5011 31.82 46.4877 31.82C47.4744 31.82 48.3744 32.0133 49.1877 32.4C50.0144 32.7733 50.6611 33.2867 51.1277 33.94C51.6077 34.58 51.8477 35.2933 51.8477 36.08V41.92C51.8477 42.7067 51.6077 43.4267 51.1277 44.08C50.6477 44.72 49.9944 45.2333 49.1677 45.62C48.3544 45.9933 47.4611 46.18 46.4877 46.18ZM46.4877 44.5C47.5144 44.5 48.3477 44.26 48.9877 43.78C49.6411 43.2867 49.9677 42.6533 49.9677 41.88V36.12C49.9677 35.3467 49.6411 34.72 48.9877 34.24C48.3477 33.7467 47.5144 33.5 46.4877 33.5C45.4611 33.5 44.6211 33.7467 43.9677 34.24C43.3277 34.72 43.0077 35.3467 43.0077 36.12V41.88C43.0077 42.6533 43.3277 43.2867 43.9677 43.78C44.6211 44.26 45.4611 44.5 46.4877 44.5ZM64.3327 32C64.4527 31.76 64.6127 31.58 64.8127 31.46C65.0261 31.3267 65.2594 31.26 65.5127 31.26C65.8594 31.26 66.1861 31.3667 66.4927 31.58L59.2927 46C59.0394 46.48 58.6527 46.72 58.1327 46.72C57.7861 46.72 57.4527 46.6067 57.1327 46.38L64.3327 32ZM57.2127 40.02C56.6261 40.02 56.0794 39.9067 55.5727 39.68C55.0794 39.44 54.6861 39.12 54.3927 38.72C54.0994 38.32 53.9527 37.8867 53.9527 37.42V34.42C53.9527 33.9533 54.0927 33.52 54.3727 33.12C54.6661 32.72 55.0594 32.4067 55.5527 32.18C56.0594 31.94 56.6127 31.82 57.2127 31.82C57.7994 31.82 58.3394 31.9333 58.8327 32.16C59.3261 32.3867 59.7127 32.7 59.9927 33.1C60.2861 33.5 60.4327 33.94 60.4327 34.42V37.42C60.4327 37.8867 60.2861 38.32 59.9927 38.72C59.7127 39.12 59.3261 39.44 58.8327 39.68C58.3394 39.9067 57.7994 40.02 57.2127 40.02ZM57.2127 38.56C57.6527 38.56 58.0127 38.4533 58.2927 38.24C58.5727 38.0133 58.7127 37.7267 58.7127 37.38V34.46C58.7127 34.1267 58.5727 33.8467 58.2927 33.62C58.0127 33.3933 57.6527 33.28 57.2127 33.28C56.7594 33.28 56.3861 33.3933 56.0927 33.62C55.8127 33.8467 55.6727 34.1267 55.6727 34.46V37.38C55.6727 37.7267 55.8127 38.0133 56.0927 38.24C56.3727 38.4533 56.7461 38.56 57.2127 38.56ZM66.4127 46.18C65.8261 46.18 65.2794 46.0667 64.7727 45.84C64.2794 45.6 63.8861 45.28 63.5927 44.88C63.3127 44.48 63.1727 44.0467 63.1727 43.58V40.58C63.1727 40.1133 63.3127 39.68 63.5927 39.28C63.8861 38.88 64.2794 38.5667 64.7727 38.34C65.2794 38.1 65.8261 37.98 66.4127 37.98C67.0127 37.98 67.5594 38.0933 68.0527 38.32C68.5461 38.5467 68.9327 38.86 69.2127 39.26C69.4927 39.66 69.6327 40.1 69.6327 40.58V43.58C69.6327 44.0467 69.4861 44.48 69.1927 44.88C68.9127 45.28 68.5261 45.6 68.0327 45.84C67.5394 46.0667 66.9994 46.18 66.4127 46.18ZM66.4727 44.68C66.9261 44.68 67.2927 44.5733 67.5727 44.36C67.8661 44.1333 68.0127 43.8533 68.0127 43.52V40.64C68.0127 40.32 67.8661 40.0467 67.5727 39.82C67.2794 39.5933 66.9127 39.48 66.4727 39.48C66.0194 39.48 65.6394 39.5933 65.3327 39.82C65.0394 40.0467 64.8927 40.32 64.8927 40.64V43.52C64.8927 43.8533 65.0394 44.1333 65.3327 44.36C65.6394 44.5733 66.0194 44.68 66.4727 44.68Z" fill="white"/>
</svg>
