<svg width="13" height="25" viewBox="0 0 13 25" fill="none" xmlns="http://www.w3.org/2000/svg">
<path d="M8.66667 8.33333V5.85286C8.66667 4.73307 8.92396 4.16667 10.7318 4.16667H13V0H9.21511C4.57708 0 3.04688 2.04427 3.04688 5.55339V8.33333H0V12.5H3.04688V25H8.66667V12.5H12.4854L13 8.33333H8.66667ZM11.524 11.4583H8.74115H7.58333V12.4674V23.9583H4.13021V12.4674V11.4583H3.12135H1.08333V9.375H3.12135H4.13021V8.30078V5.55339C4.13021 3.95833 4.49583 2.87109 5.17969 2.18099C5.93802 1.39974 7.28542 1.04167 9.21511 1.04167H11.9167V3.125H10.7318C9.91927 3.125 8.86979 3.19661 8.21979 3.88672C7.67135 4.47266 7.58333 5.19531 7.58333 5.84635V8.29427V9.375H8.74115H11.7812L11.524 11.4583Z" fill="white"/>
</svg>
