<svg width="30" height="20" viewBox="0 0 30 20" fill="none" xmlns="http://www.w3.org/2000/svg">
<path d="M9.04925 19.2667C9.4427 19.6686 10.0901 19.6671 10.4817 19.2633L11.5191 18.1936C11.8966 17.8044 11.8952 17.1853 11.5159 16.7978L8.22572 13.4371C7.60639 12.8045 8.05395 11.7385 8.93926 11.7376L29 11.717C29.5523 11.7164 29.9996 11.2683 29.999 10.716L29.9975 9.18044C29.997 8.62814 29.5488 8.18086 28.9965 8.18143L8.99141 8.202C8.10736 8.20291 7.65706 7.14038 8.27256 6.50578L11.485 3.19366C11.8625 2.80445 11.861 2.18529 11.4817 1.79785L10.4394 0.733275C10.046 0.331404 9.39862 0.332924 9.00706 0.736641L0.678422 9.32383C0.300933 9.71303 0.302379 10.3322 0.681681 10.7196L9.04925 19.2667Z" fill="black"/>
</svg>
