<svg width="22" height="22" viewBox="0 0 22 22" fill="none" xmlns="http://www.w3.org/2000/svg">
<path d="M2.58088 0C1.08546 0 0 1.05381 0 2.5055C0 3.95632 1.06397 5.00939 2.52947 5.00939C3.28958 5.00939 3.94452 4.75767 4.42364 4.28112C4.88317 3.824 5.13654 3.19342 5.13607 2.49406C5.10241 1.02563 4.05155 0 2.58088 0ZM3.75611 3.57986C3.45927 3.87512 3.03482 4.03106 2.52947 4.03106C1.60388 4.03106 0.957375 3.40385 0.957375 2.5055C0.957375 1.59218 1.60996 0.97833 2.58088 0.97833C3.53032 0.97833 4.1572 1.58235 4.17869 2.50575C4.17869 2.92736 4.02863 3.30876 3.75611 3.57986Z" fill="white"/>
<path d="M0.458984 22.0001H4.76156V5.83594H0.458984V22.0001ZM1.41636 6.81427H3.80418V21.0218H1.41636V6.81427Z" fill="white"/>
<path d="M16.1075 5.83594C14.1123 5.83594 12.8908 6.53955 12.183 7.20144L12.0484 5.83594H7.18066V22.0001H11.9479V13.5044C11.9479 13.1385 12.0928 12.3787 12.184 12.1781C12.7599 10.9105 13.5368 10.9105 14.7134 10.9105C16.0686 10.9105 17.2135 12.2092 17.2135 13.7462V22.0001H22.0004V12.8672C22.0004 8.0362 18.9455 5.83594 16.1075 5.83594ZM21.043 21.0218H18.1709V13.7462C18.1709 11.6787 16.5875 9.9322 14.7134 9.9322C13.5111 9.9322 12.1484 9.9322 11.3154 11.7663C11.1434 12.1454 10.9905 13.054 10.9905 13.5044V21.0218H8.13804V6.81427H11.1827L11.3781 8.79265H12.1624L12.3027 8.56142C12.622 8.0362 13.6317 6.81427 16.1075 6.81427C18.4845 6.81427 21.043 8.70831 21.043 12.8672V21.0218Z" fill="white"/>
</svg>
