<svg width="30" height="20" viewBox="0 0 30 20" fill="none" xmlns="http://www.w3.org/2000/svg">
<path d="M20.9508 0.733324C20.5573 0.33143 19.9099 0.332943 19.5183 0.736674L18.4809 1.80638C18.1034 2.19559 18.1048 2.81472 18.4841 3.20216L21.7743 6.56287C22.3936 7.19548 21.946 8.26153 21.0607 8.26244L0.999958 8.28302C0.447689 8.28358 0.00044063 8.73173 0.00098419 9.284L0.00249553 10.8196C0.00303913 11.3719 0.451222 11.8191 1.00352 11.8186L21.0086 11.798C21.8926 11.7971 22.3429 12.8596 21.7274 13.4942L18.515 16.8063C18.1375 17.1956 18.139 17.8147 18.5183 18.2021L19.5606 19.2667C19.954 19.6686 20.6014 19.6671 20.9929 19.2634L29.3216 10.6762C29.6991 10.287 29.6976 9.66783 29.3183 9.28039L20.9508 0.733324Z" fill="#26A0DA"/>
</svg>
