<svg width="30" height="35" viewBox="0 0 30 35" fill="none" xmlns="http://www.w3.org/2000/svg">
<path d="M6.07668 22.5772C8.88059 22.5772 11.1536 20.3042 11.1536 17.5003C11.1536 14.6964 8.88059 12.4233 6.07668 12.4233C3.27277 12.4233 0.999756 14.6964 0.999756 17.5003C0.999756 20.3042 3.27277 22.5772 6.07668 22.5772Z" stroke="white" stroke-width="2" stroke-linecap="round" stroke-linejoin="round"/>
<path d="M23.8457 34C26.6496 34 28.9226 31.727 28.9226 28.9231C28.9226 26.1192 26.6496 23.8462 23.8457 23.8462C21.0418 23.8462 18.7688 26.1192 18.7688 28.9231C18.7688 31.727 21.0418 34 23.8457 34Z" stroke="white" stroke-width="2" stroke-linecap="round" stroke-linejoin="round"/>
<path d="M23.8457 11.1538C26.6496 11.1538 28.9226 8.88083 28.9226 6.07692C28.9226 3.27302 26.6496 1 23.8457 1C21.0418 1 18.7688 3.27302 18.7688 6.07692C18.7688 8.88083 21.0418 11.1538 23.8457 11.1538Z" stroke="white" stroke-width="2" stroke-linecap="round" stroke-linejoin="round"/>
<path d="M19.5784 8.82178L10.3447 14.7554" stroke="white" stroke-width="2" stroke-linecap="round" stroke-linejoin="round"/>
<path d="M10.3447 20.2446L19.5784 26.1783" stroke="white" stroke-width="2" stroke-linecap="round" stroke-linejoin="round"/>
</svg>
