<svg width="27" height="22" viewBox="0 0 27 22" fill="none" xmlns="http://www.w3.org/2000/svg">
<path d="M18.6923 0.916667C19.9682 0.916667 21.1983 1.44948 22.068 2.38333L22.417 2.75573L22.9148 2.65833C23.1723 2.60677 23.424 2.54948 23.6758 2.48073C23.6186 2.56094 23.3496 2.83021 23.0464 3.09948C22.7889 3.32865 22.028 4.04479 22.028 4.04479C22.028 4.04479 22.7718 4.27969 23.2352 4.33125C23.6987 4.38281 24.2308 4.29688 24.3166 4.28542C24.1564 4.41719 23.8703 4.61771 23.6987 4.73802L23.2982 5.03021L23.321 5.52292C23.3325 5.74062 23.3382 5.96979 23.3382 6.19896C23.3382 7.92917 23.0006 9.73958 22.3655 11.4411C21.6961 13.2286 20.7349 14.8443 19.5048 16.2422C18.1888 17.7375 16.6325 18.9062 14.8646 19.7255C12.9307 20.625 10.7851 21.0776 8.48506 21.0776C6.83153 21.0776 5.20089 20.8026 3.65035 20.2641C4.21678 20.1552 4.77177 20.0005 5.31532 19.8115C6.5569 19.376 7.71265 18.7401 8.75397 17.9208L10.7737 16.3339L8.2047 16.288C6.71138 16.2594 5.36109 15.5203 4.52575 14.3458C4.94342 14.3172 5.35537 14.2427 5.75588 14.1339L9.22886 12.9766L5.69866 12.3521C4.00509 12.0141 2.67769 10.7536 2.19135 9.15521C2.63764 9.26979 3.07247 9.31563 3.5588 9.34427C3.5588 9.34427 5.37826 9.42448 6.75143 9.33854C6.00763 8.98333 4.09663 7.66563 4.09663 7.66563C2.80928 6.80052 2.03687 5.3625 2.03687 3.80417C2.03687 3.4375 2.08264 3.07083 2.16275 2.71563C3.41577 3.99896 4.85188 5.07031 6.45963 5.89531C8.5766 6.98958 10.8595 7.6026 13.2454 7.72292L14.4584 7.78594L14.1837 6.6C14.1036 6.26198 14.0636 5.90677 14.0636 5.5401C14.0636 2.99635 16.1405 0.916667 18.6923 0.916667ZM18.6923 0C15.6313 0 13.1538 2.48646 13.1538 5.55156C13.1538 5.98698 13.1996 6.41094 13.2969 6.81771C8.69104 6.58854 4.60585 4.37708 1.87667 1.01406C1.40178 1.83333 1.12715 2.7901 1.12715 3.80417C1.12715 5.72917 2.10553 7.43073 3.59313 8.4276C2.68341 8.40469 1.82517 8.1526 1.08137 7.73438C1.08137 7.75729 1.08137 7.78021 1.08137 7.80312C1.08137 10.4958 2.99237 12.7359 5.52702 13.2458C5.06357 13.3719 4.57152 13.4406 4.06802 13.4406C3.71329 13.4406 3.36427 13.4062 3.0267 13.3375C3.73045 15.5432 5.77877 17.1474 8.2047 17.1932C6.31087 18.6828 3.91926 19.5708 1.32168 19.5708C0.875397 19.5708 0.434838 19.5422 0 19.4906C2.44882 21.0833 5.36109 22 8.48506 22C18.6809 22 24.2537 13.538 24.2537 6.19896C24.2537 5.95833 24.2479 5.71771 24.2365 5.48281C25.3179 4.69792 26.2562 3.72396 27 2.60677C26.0044 3.04792 24.9402 3.34583 23.8188 3.48333C24.9631 2.79583 25.8442 1.70729 26.2562 0.4125C25.1863 1.04844 24.0019 1.5125 22.7374 1.75885C21.7247 0.676042 20.2829 0 18.6923 0Z" fill="white"/>
</svg>
