<svg width="22" height="22" viewBox="0 0 22 22" fill="none" xmlns="http://www.w3.org/2000/svg">
<path d="M10.9057 22C8.80136 22 6.79266 21.4261 5.07092 20.2783L1.24484 21.5217C1.05353 21.6174 0.862226 21.5217 0.766574 21.4261C0.670922 21.3304 0.57527 21.1391 0.670922 20.9478L1.9144 17.313C0.670922 15.4957 0.00135696 13.2957 0.00135696 11.0957C-0.0942952 4.97391 4.87962 0 10.9057 0C16.9318 0 21.9057 4.97391 21.9057 11C21.9057 17.0261 16.9318 22 10.9057 22ZM5.16657 19.3217C5.26223 19.3217 5.35788 19.3217 5.45353 19.4174C7.07962 20.4696 8.99266 21.0435 11.0014 21.0435C16.5492 21.0435 21.0448 16.5478 21.0448 11C21.0448 5.45217 16.4535 0.956522 10.9057 0.956522C5.35788 0.956522 0.862227 5.45217 0.862227 11C0.862227 13.1043 1.53179 15.2087 2.77527 16.9304C2.87092 17.0261 2.87092 17.2174 2.87092 17.4087L1.81875 20.4696L4.97527 19.513C5.07092 19.3217 5.07092 19.3217 5.16657 19.3217ZM14.3492 17.4087C13.584 17.4087 12.6274 17.1217 11.097 16.5478C8.5144 15.4957 6.60136 13.1043 5.74049 11.8609L5.64484 11.7652C5.16657 11 4.3057 9.66087 4.3057 8.22609C4.3057 6.6 5.16657 5.73913 5.45353 5.35652C5.83614 4.97391 6.3144 4.78261 6.88831 4.78261C6.98397 4.78261 7.07962 4.78261 7.17527 4.78261C7.74918 4.78261 8.03614 4.97391 8.3231 5.64348L8.61005 6.21739C8.89701 6.88696 9.27962 7.74783 9.27962 7.84348C9.47092 8.22609 9.47092 8.51304 9.27962 8.8C9.18397 8.9913 9.08831 9.18261 8.89701 9.37391C8.80136 9.46957 8.70571 9.56522 8.61005 9.66087C8.5144 9.75652 8.41875 9.85217 8.3231 9.94783C8.5144 10.0435 8.41875 10.0435 8.41875 10.0435C8.89701 10.8087 9.47092 11.4783 10.0448 12.0522C11.097 12.913 11.8622 13.2957 12.2448 13.487H12.3405C12.4361 13.487 12.4361 13.5826 12.5318 13.487C12.7231 13.2957 13.0101 12.913 13.2014 12.5304L13.297 12.4348C13.584 12.0522 13.9666 11.9565 14.1579 11.9565C14.2535 11.9565 14.4448 11.9565 14.6361 12.0522C14.9231 12.1478 15.9753 12.6261 16.7405 13.1043L16.9318 13.2C17.2187 13.2957 17.4101 13.3913 17.5057 13.6783C17.697 14.0609 17.6014 14.9217 17.4101 15.4957C17.1231 16.3565 15.9753 17.1217 15.0187 17.313C14.8274 17.313 14.6361 17.4087 14.3492 17.4087ZM6.98397 5.73913C6.69701 5.73913 6.41005 5.83478 6.21875 5.93043C5.93179 6.21739 5.26223 6.88696 5.26223 8.13043C5.26223 9.27826 6.02744 10.5217 6.41005 11L6.5057 11.0957C7.94049 13.2 9.66223 14.7304 11.4796 15.4957C12.8187 16.0696 13.7753 16.3565 14.3492 16.3565C14.5405 16.3565 14.7318 16.3565 14.8274 16.2609C15.497 16.0696 16.3579 15.5913 16.5492 15.113C16.7405 14.6348 16.7405 14.2522 16.7405 14.0609C16.6448 14.0609 16.6448 13.9652 16.5492 13.9652L16.3579 13.8696C15.3057 13.2957 14.4448 12.913 14.3492 12.913C14.2535 12.913 14.2535 12.8174 14.1579 13.0087L14.0622 13.1043C13.7753 13.487 13.4883 13.8696 13.297 14.1565C13.0101 14.4435 12.4361 14.5391 12.0535 14.3478H11.9579C11.5753 14.1565 10.6187 13.7739 9.47092 12.8174C8.80136 12.2435 8.22744 11.4783 7.65353 10.6174C7.27092 10.0435 7.65353 9.56522 7.84484 9.37391C7.84484 9.27826 7.94049 9.08696 8.03614 8.9913C8.13179 8.89565 8.13179 8.89565 8.22744 8.8C8.41875 8.6087 8.41875 8.6087 8.5144 8.41739C8.5144 8.41739 8.5144 8.32174 8.5144 8.22609C8.41875 8.22609 8.03614 7.26957 7.74918 6.6L7.55788 6.02609C7.46223 5.83478 7.36657 5.73913 7.36657 5.73913H7.27092C7.07962 5.73913 6.98397 5.73913 6.98397 5.73913Z" fill="white"/>
</svg>
