<svg width="65" height="69" viewBox="0 0 65 69" fill="none" xmlns="http://www.w3.org/2000/svg">
<rect x="0.5" y="4.5" width="64" height="64" rx="4.5" fill="white" stroke="#26A0DA"/>
<path d="M51.6202 35.2774C50.7201 34.2367 49.466 33.5331 48.0782 33.2904L50.2162 30.6614C50.336 30.5179 50.4246 30.3528 50.4767 30.1759C50.5288 29.999 50.5434 29.8139 50.5196 29.6315C50.4958 29.4492 50.4341 29.2732 50.3382 29.114C50.2422 28.9549 50.1139 28.8158 49.9609 28.7049C49.655 28.481 49.2695 28.3811 48.8875 28.4269C48.5055 28.4726 48.1576 28.6603 47.9186 28.9495L44.5362 33.2904H21.4334L17.6999 29.1329C17.4261 28.8789 17.0599 28.7369 16.6788 28.7369C16.2977 28.7369 15.9315 28.8789 15.6577 29.1329C15.5226 29.2608 15.4154 29.4132 15.3422 29.5811C15.269 29.749 15.2313 29.9292 15.2313 30.1111C15.2313 30.2931 15.269 30.4733 15.3422 30.6412C15.4154 30.8091 15.5226 30.9614 15.6577 31.0894L17.7318 33.2904C16.9497 33.4779 16.2141 33.8122 15.5678 34.274C14.9214 34.7357 14.3771 35.3158 13.9664 35.9805C13.0949 37.3197 12.7976 38.9299 13.1368 40.4742L15.4343 53.8331C15.6067 55.2137 16.2851 56.4909 17.3487 57.437C18.4123 58.3831 19.792 58.9368 21.2419 58.9994H44.9191C46.3438 58.9371 47.6993 58.3931 48.745 57.4641C49.7907 56.5351 50.4589 55.2811 50.631 53.9248L52.9604 40.5354C52.9781 40.2503 52.9781 39.9645 52.9604 39.6794C53.0532 38.8972 52.9825 38.1051 52.7524 37.3493C52.5223 36.5935 52.1374 35.8892 51.6202 35.2774ZM50.0885 40.0157L47.7591 53.5274C47.6721 54.2327 47.3315 54.887 46.7958 55.3779C46.2601 55.8688 45.5627 56.1657 44.8234 56.2176H21.4653C20.7049 56.1773 19.9845 55.8779 19.4344 55.3733C18.8843 54.8688 18.5408 54.1924 18.4658 53.4663L16.1363 39.924C16.0188 39.5066 15.995 39.0701 16.0665 38.6433C16.138 38.2165 16.3032 37.809 16.5512 37.4478C17.0384 36.7118 17.8049 36.1857 18.6891 35.9805H19.0401H47.0571C47.5062 36.0172 47.9432 36.1388 48.343 36.3382C48.7428 36.5376 49.0975 36.8108 49.3865 37.1421C49.6795 37.4681 49.901 37.8471 50.0381 38.2568C50.1751 38.6664 50.2248 39.0982 50.1843 39.5266C50.1712 39.6925 50.1391 39.8565 50.0885 40.0157Z" fill="#26A0DA"/>
<path d="M25.1983 40.9941C24.8116 41.0019 24.4429 41.1526 24.1694 41.4146C23.8959 41.6767 23.7386 42.0298 23.7305 42.4003V50.4401C23.7305 50.8131 23.8851 51.1708 24.1604 51.4345C24.4357 51.6982 24.809 51.8463 25.1983 51.8463C25.5876 51.8463 25.961 51.6982 26.2363 51.4345C26.5115 51.1708 26.6662 50.8131 26.6662 50.4401V42.4615C26.6704 42.2728 26.6358 42.0851 26.5643 41.9093C26.4928 41.7334 26.3859 41.5727 26.2496 41.4365C26.1133 41.3002 25.9503 41.191 25.7699 41.1151C25.5895 41.0392 25.3953 40.9981 25.1983 40.9941Z" fill="#26A0DA"/>
<path d="M32.8888 40.9941C32.696 40.9941 32.5051 41.0305 32.327 41.1012C32.1489 41.1718 31.9871 41.2754 31.8508 41.406C31.7145 41.5366 31.6064 41.6916 31.5326 41.8622C31.4589 42.0328 31.4209 42.2157 31.4209 42.4003V50.4401C31.4726 50.7736 31.6477 51.0781 31.9142 51.2983C32.1807 51.5185 32.5209 51.6396 32.8728 51.6396C33.2247 51.6396 33.5649 51.5185 33.8314 51.2983C34.0979 51.0781 34.273 50.7736 34.3247 50.4401V42.4615C34.3333 42.2743 34.3027 42.0873 34.2347 41.9116C34.1668 41.7359 34.0629 41.575 33.9291 41.4383C33.7953 41.3016 33.6344 41.1919 33.4557 41.1156C33.2771 41.0393 33.0843 40.998 32.8888 40.9941Z" fill="#26A0DA"/>
<path d="M40.7706 40.9949C40.404 41.0406 40.069 41.217 39.8324 41.4891C39.5958 41.7611 39.475 42.1086 39.4942 42.4622V50.502C39.5459 50.8354 39.721 51.14 39.9875 51.3602C40.254 51.5803 40.5942 51.7014 40.9461 51.7014C41.298 51.7014 41.6382 51.5803 41.9047 51.3602C42.1712 51.14 42.3462 50.8354 42.398 50.502V42.4622C42.4085 42.2589 42.3728 42.0558 42.2934 41.8669C42.214 41.6781 42.0927 41.5081 41.9379 41.3685C41.7832 41.229 41.5987 41.1233 41.3971 41.0588C41.1956 40.9943 40.9818 40.9725 40.7706 40.9949Z" fill="#26A0DA"/>
<path d="M31.804 31.9765C31.9416 32.1211 32.1091 32.2366 32.2959 32.3157C32.4827 32.3947 32.6847 32.4355 32.8889 32.4355C33.0932 32.4355 33.2951 32.3947 33.482 32.3157C33.6688 32.2366 33.8363 32.1211 33.9739 31.9765L42.9406 22.4694C43.0756 22.3414 43.1829 22.1891 43.2561 22.0212C43.3293 21.8533 43.3669 21.6731 43.3669 21.4911C43.3669 21.3092 43.3293 21.129 43.2561 20.9611C43.1829 20.7932 43.0756 20.6408 42.9406 20.5129C42.6654 20.2497 42.2924 20.1019 41.9035 20.1019C41.5146 20.1019 41.1416 20.2497 40.8664 20.5129L34.4206 27.1771V14.613C34.4516 14.413 34.4373 14.209 34.3786 14.0149C34.3199 13.8207 34.2181 13.641 34.0803 13.4879C33.9425 13.3348 33.7719 13.212 33.5801 13.1278C33.3882 13.0436 33.1797 13 32.9687 13C32.7577 13 32.5492 13.0436 32.3574 13.1278C32.1655 13.212 31.9949 13.3348 31.8571 13.4879C31.7193 13.641 31.6176 13.8207 31.5588 14.0149C31.5001 14.209 31.4858 14.413 31.5168 14.613V27.4828L25.1348 20.6046C24.865 20.3775 24.5176 20.2531 24.1584 20.2549C23.7993 20.2567 23.4533 20.3846 23.1859 20.6143C22.9186 20.8441 22.7484 21.1598 22.7077 21.5016C22.667 21.8435 22.7585 22.1878 22.9649 22.4694L31.804 31.9765Z" fill="#26A0DA"/>
<circle cx="47.5" cy="11.5" r="11.5" fill="#26A0DA"/>
<path d="M46.97 7.876H45.908C45.5 7.876 45.182 7.744 44.954 7.48C44.738 7.216 44.63 6.856 44.63 6.4H47.87C48.098 6.4 48.284 6.478 48.428 6.634C48.584 6.778 48.662 6.952 48.662 7.156V17.758C48.662 18.214 48.518 18.562 48.23 18.802C47.942 19.042 47.522 19.162 46.97 19.162V7.876Z" fill="white"/>
</svg>
