<svg width="37" height="34" viewBox="0 0 37 34" fill="none" xmlns="http://www.w3.org/2000/svg">
<g filter="url(#filter0_d_4_313)">
<path d="M9.59755 20.7967C11.2357 22.9823 13.5206 24.5964 16.128 25.41C18.7354 26.2235 21.5328 26.1951 24.1231 25.3288C26.7134 24.4625 28.9651 22.8024 30.5586 20.584C32.152 18.3656 33.0062 15.7017 33 12.9703C32.9937 10.239 32.1274 7.57897 30.5238 5.36787C28.9203 3.15677 26.661 1.50691 24.0668 0.652471C21.4725 -0.201972 18.675 -0.21759 16.0714 0.607836C13.4677 1.43326 11.1902 3.05779 9.56206 5.25085L11.3161 6.55305C12.6706 4.72852 14.5654 3.37698 16.7315 2.69026C18.8977 2.00355 21.225 2.01654 23.3834 2.7274C25.5417 3.43826 27.4213 4.81087 28.7553 6.6504C30.0894 8.48994 30.8102 10.7029 30.8154 12.9753C30.8206 15.2477 30.1099 17.4639 28.7843 19.3095C27.4586 21.1552 25.5853 22.5363 23.4302 23.257C21.2752 23.9778 18.9479 24.0014 16.7787 23.3246C14.6094 22.6477 12.7085 21.3049 11.3456 19.4865L9.59755 20.7967Z" fill="#26A0DA"/>
<path d="M22.7445 12.3918L17.5617 7.25193C17.4811 7.17206 17.3855 7.1087 17.2803 7.06547C17.1751 7.02225 17.0623 7 16.9484 7C16.8345 7 16.7217 7.02225 16.6165 7.06547C16.5112 7.1087 16.4156 7.17206 16.3351 7.25193C16.2545 7.3318 16.1907 7.42663 16.1471 7.53098C16.1035 7.63534 16.081 7.74719 16.081 7.86015C16.081 7.9731 16.1035 8.08495 16.1471 8.18931C16.1907 8.29367 16.2545 8.38849 16.3351 8.46836L20.0494 12.1348H4.8638C4.63471 12.1348 4.415 12.225 4.253 12.3857C4.09101 12.5463 4 12.7642 4 12.9914C4 13.2186 4.09101 13.4365 4.253 13.5972C4.415 13.7578 4.63471 13.8481 4.8638 13.8481H20.0494L16.3351 17.5316C16.2545 17.6115 16.1907 17.7063 16.1471 17.8107C16.1035 17.915 16.081 18.0269 16.081 18.1399C16.081 18.2528 16.1035 18.3647 16.1471 18.469C16.1907 18.5734 16.2545 18.6682 16.3351 18.7481C16.4156 18.8279 16.5112 18.8913 16.6165 18.9345C16.7217 18.9778 16.8345 19 16.9484 19C17.0623 19 17.1751 18.9778 17.2803 18.9345C17.3855 18.8913 17.4811 18.8279 17.5617 18.7481L22.7445 13.6082C22.8255 13.5286 22.8897 13.4338 22.9336 13.3294C22.9774 13.2251 23 13.1131 23 13C23 12.8869 22.9774 12.7749 22.9336 12.6706C22.8897 12.5662 22.8255 12.4714 22.7445 12.3918Z" fill="#26A0DA"/>
</g>
<defs>
<filter id="filter0_d_4_313" x="0" y="0" width="37" height="34" filterUnits="userSpaceOnUse" color-interpolation-filters="sRGB">
<feFlood flood-opacity="0" result="BackgroundImageFix"/>
<feColorMatrix in="SourceAlpha" type="matrix" values="0 0 0 0 0 0 0 0 0 0 0 0 0 0 0 0 0 0 127 0" result="hardAlpha"/>
<feOffset dy="4"/>
<feGaussianBlur stdDeviation="2"/>
<feComposite in2="hardAlpha" operator="out"/>
<feColorMatrix type="matrix" values="0 0 0 0 0 0 0 0 0 0 0 0 0 0 0 0 0 0 0.25 0"/>
<feBlend mode="normal" in2="BackgroundImageFix" result="effect1_dropShadow_4_313"/>
<feBlend mode="normal" in="SourceGraphic" in2="effect1_dropShadow_4_313" result="shape"/>
</filter>
</defs>
</svg>
