<svg width="22" height="25" viewBox="0 0 22 25" fill="none" xmlns="http://www.w3.org/2000/svg">
<path d="M17.5013 24.9997H4.16797C3.50493 24.9997 2.86904 24.7363 2.4002 24.2674C1.93136 23.7986 1.66797 23.1627 1.66797 22.4997V6.66634C1.66797 6.44533 1.75577 6.23337 1.91205 6.07709C2.06833 5.92081 2.28029 5.83301 2.5013 5.83301C2.72232 5.83301 2.93428 5.92081 3.09056 6.07709C3.24684 6.23337 3.33464 6.44533 3.33464 6.66634V22.4997C3.33464 22.7207 3.42243 22.9327 3.57871 23.0889C3.73499 23.2452 3.94695 23.333 4.16797 23.333H17.5013C17.7223 23.333 17.9343 23.2452 18.0906 23.0889C18.2468 22.9327 18.3346 22.7207 18.3346 22.4997V6.66634C18.3346 6.44533 18.4224 6.23337 18.5787 6.07709C18.735 5.92081 18.947 5.83301 19.168 5.83301C19.389 5.83301 19.6009 5.92081 19.7572 6.07709C19.9135 6.23337 20.0013 6.44533 20.0013 6.66634V22.4997C20.0013 23.1627 19.7379 23.7986 19.2691 24.2674C18.8002 24.7363 18.1643 24.9997 17.5013 24.9997Z" fill="white"/>
<path d="M20.8333 4.99967H0.833333C0.61232 4.99967 0.400358 4.91188 0.244078 4.7556C0.0877973 4.59932 0 4.38735 0 4.16634C0 3.94533 0.0877973 3.73337 0.244078 3.57709C0.400358 3.42081 0.61232 3.33301 0.833333 3.33301H20.8333C21.0543 3.33301 21.2663 3.42081 21.4226 3.57709C21.5789 3.73337 21.6667 3.94533 21.6667 4.16634C21.6667 4.38735 21.5789 4.59932 21.4226 4.7556C21.2663 4.91188 21.0543 4.99967 20.8333 4.99967Z" fill="white"/>
<path d="M14.166 5C13.9449 5 13.733 4.9122 13.5767 4.75592C13.4204 4.59964 13.3326 4.38768 13.3326 4.16667V1.66667H8.33262V4.16667C8.33262 4.38768 8.24482 4.59964 8.08854 4.75592C7.93226 4.9122 7.7203 5 7.49929 5C7.27827 5 7.06631 4.9122 6.91003 4.75592C6.75375 4.59964 6.66595 4.38768 6.66595 4.16667V0.833333C6.66595 0.61232 6.75375 0.400358 6.91003 0.244078C7.06631 0.0877973 7.27827 0 7.49929 0H14.166C14.387 0 14.5989 0.0877973 14.7552 0.244078C14.9115 0.400358 14.9993 0.61232 14.9993 0.833333V4.16667C14.9993 4.38768 14.9115 4.59964 14.7552 4.75592C14.5989 4.9122 14.387 5 14.166 5Z" fill="white"/>
<path d="M10.8333 20.8333C10.6123 20.8333 10.4004 20.7455 10.2441 20.5893C10.0878 20.433 10 20.221 10 20V8.33333C10 8.11232 10.0878 7.90036 10.2441 7.74408C10.4004 7.5878 10.6123 7.5 10.8333 7.5C11.0543 7.5 11.2663 7.5878 11.4226 7.74408C11.5789 7.90036 11.6667 8.11232 11.6667 8.33333V20C11.6667 20.221 11.5789 20.433 11.4226 20.5893C11.2663 20.7455 11.0543 20.8333 10.8333 20.8333Z" fill="white"/>
<path d="M15.0013 19.167C14.7803 19.167 14.5683 19.0792 14.412 18.9229C14.2558 18.7666 14.168 18.5547 14.168 18.3337V10.0003C14.168 9.77931 14.2558 9.56735 14.412 9.41107C14.5683 9.25479 14.7803 9.16699 15.0013 9.16699C15.2223 9.16699 15.4343 9.25479 15.5906 9.41107C15.7468 9.56735 15.8346 9.77931 15.8346 10.0003V18.3337C15.8346 18.5547 15.7468 18.7666 15.5906 18.9229C15.4343 19.0792 15.2223 19.167 15.0013 19.167Z" fill="white"/>
<path d="M6.66738 19.167C6.44636 19.167 6.2344 19.0792 6.07812 18.9229C5.92184 18.7666 5.83405 18.5547 5.83405 18.3337V10.0003C5.83405 9.77931 5.92184 9.56735 6.07812 9.41107C6.2344 9.25479 6.44636 9.16699 6.66738 9.16699C6.88839 9.16699 7.10035 9.25479 7.25663 9.41107C7.41291 9.56735 7.50071 9.77931 7.50071 10.0003V18.3337C7.50071 18.5547 7.41291 18.7666 7.25663 18.9229C7.10035 19.0792 6.88839 19.167 6.66738 19.167Z" fill="white"/>
</svg>
