<svg width="29" height="25" viewBox="0 0 29 25" fill="none" xmlns="http://www.w3.org/2000/svg">
<path d="M14.2943 25L13.8158 24.5813C2.93062 15.7297 0 12.6196 0 7.53588C0 3.34928 3.40909 0 7.53588 0C11.0048 0 12.9785 1.97368 14.2943 3.46889C15.6101 1.97368 17.5837 0 21.0526 0C25.2392 0 28.5885 3.40909 28.5885 7.53588C28.5885 12.6196 25.6579 15.7297 14.7727 24.5813L14.2943 25ZM7.53588 1.55502C4.24641 1.55502 1.55502 4.24641 1.55502 7.53588C1.55502 11.9019 4.30622 14.7727 14.2943 22.9665C24.2823 14.7727 27.0335 11.9019 27.0335 7.53588C27.0335 4.24641 24.3421 1.55502 21.0526 1.55502C18.0622 1.55502 16.4474 3.34928 15.1914 4.78469L14.2943 5.80144L13.3971 4.78469C12.1411 3.34928 10.5263 1.55502 7.53588 1.55502Z" fill="white"/>
</svg>
