<svg width="30" height="30" viewBox="0 0 30 30" fill="none" xmlns="http://www.w3.org/2000/svg">
<circle cx="15" cy="15" r="14" fill="white" stroke="#26A0DA" stroke-width="2"/>
<path d="M15.231 15.3847C14.2573 15.3847 13.3055 15.096 12.4959 14.555C11.6863 14.0141 11.0553 13.2452 10.6827 12.3456C10.3101 11.4461 10.2126 10.4562 10.4026 9.50121C10.5925 8.54623 11.0614 7.66902 11.7499 6.98051C12.4384 6.29201 13.3156 5.82313 14.2706 5.63317C15.2256 5.44321 16.2154 5.54071 17.115 5.91332C18.0146 6.28594 18.7835 6.91694 19.3244 7.72654C19.8654 8.53613 20.1541 9.48796 20.1541 10.4617C20.1541 11.7673 19.6354 13.0195 18.7122 13.9428C17.7889 14.8661 16.5367 15.3847 15.231 15.3847ZM15.231 6.76935C14.5008 6.76935 13.7869 6.9859 13.1797 7.39161C12.5725 7.79733 12.0992 8.37399 11.8198 9.04867C11.5403 9.72335 11.4672 10.4657 11.6097 11.182C11.7521 11.8982 12.1038 12.5561 12.6202 13.0725C13.1366 13.5889 13.7945 13.9405 14.5107 14.083C15.2269 14.2255 15.9693 14.1524 16.644 13.8729C17.3187 13.5934 17.8954 13.1202 18.3011 12.513C18.7068 11.9058 18.9233 11.1919 18.9233 10.4617C18.9233 9.48239 18.5343 8.54324 17.8419 7.8508C17.1494 7.15836 16.2103 6.76935 15.231 6.76935Z" fill="#26A0DA"/>
<path d="M19.5384 24.0003H10.9231C10.107 24.0003 9.32438 23.6761 8.74734 23.0991C8.17031 22.522 7.84613 21.7394 7.84613 20.9234V18.4618C7.84615 18.355 7.87396 18.2501 7.92683 18.1573C7.9797 18.0645 8.05581 17.9871 8.14767 17.9326L11.2246 16.0864C11.3634 16.0237 11.5206 16.0147 11.6657 16.0611C11.8108 16.1076 11.9335 16.2062 12.01 16.3379C12.0866 16.4696 12.1116 16.625 12.0802 16.7741C12.0488 16.9232 11.9632 17.0553 11.84 17.1449L9.0769 18.8126V20.9234C9.0769 21.413 9.2714 21.8826 9.61763 22.2288C9.96385 22.575 10.4334 22.7695 10.9231 22.7695H19.5384C20.0281 22.7695 20.4976 22.575 20.8439 22.2288C21.1901 21.8826 21.3846 21.413 21.3846 20.9234V18.8126L18.6092 17.1449C18.5307 17.1094 18.4606 17.0579 18.4033 16.9936C18.346 16.9294 18.3028 16.8538 18.2766 16.7718C18.2503 16.6898 18.2416 16.6032 18.2509 16.5176C18.2602 16.432 18.2874 16.3493 18.3306 16.2748C18.3739 16.2004 18.4323 16.1359 18.5021 16.0854C18.5719 16.035 18.6515 15.9997 18.7358 15.982C18.82 15.9642 18.9071 15.9643 18.9913 15.9823C19.0755 16.0003 19.155 16.0358 19.2246 16.0864L22.3015 17.9326C22.3957 17.9855 22.4742 18.0623 22.5293 18.1552C22.5844 18.2481 22.6141 18.3538 22.6154 18.4618V20.9234C22.6154 21.7394 22.2912 22.522 21.7142 23.0991C21.1371 23.6761 20.3545 24.0003 19.5384 24.0003Z" fill="#26A0DA"/>
</svg>
