<svg width="34" height="28" viewBox="0 0 34 28" fill="none" xmlns="http://www.w3.org/2000/svg">
<path fill-rule="evenodd" clip-rule="evenodd" d="M31.0435 28H2.95652C1.32378 28 0 26.6803 0 25.0526V2.94737C0 1.31968 1.32378 0 2.95652 0H31.0435C32.6762 0 34 1.31968 34 2.94737V25.0526C34 26.6803 32.6762 28 31.0435 28ZM32.5217 2.94737C32.5217 2.13389 31.8595 1.47368 31.0435 1.47368H2.95652C2.14052 1.47368 1.47826 2.13389 1.47826 2.94737V7.36842H32.5217V2.94737ZM32.5217 8.8421H1.47826V25.0526C1.47826 25.8661 2.14052 26.5263 2.95652 26.5263H31.0435C31.8595 26.5263 32.5217 25.8661 32.5217 25.0526V8.8421ZM29.5652 19.1579H28.087C27.679 19.1579 27.3478 18.8285 27.3478 18.4211V16.9474C27.3478 16.5406 27.679 16.2105 28.087 16.2105H29.5652C29.974 16.2105 30.3043 16.5406 30.3043 16.9474V18.4211C30.3043 18.8285 29.974 19.1579 29.5652 19.1579ZM29.5652 14H28.087C27.679 14 27.3478 13.6706 27.3478 13.2632V11.7895C27.3478 11.382 27.679 11.0526 28.087 11.0526H29.5652C29.974 11.0526 30.3043 11.382 30.3043 11.7895V13.2632C30.3043 13.6706 29.974 14 29.5652 14ZM23.6522 19.1579H22.1739C21.7659 19.1579 21.4348 18.8285 21.4348 18.4211V16.9474C21.4348 16.5406 21.7659 16.2105 22.1739 16.2105H23.6522C24.0609 16.2105 24.3913 16.5406 24.3913 16.9474V18.4211C24.3913 18.8285 24.0609 19.1579 23.6522 19.1579ZM23.6522 14H22.1739C21.7659 14 21.4348 13.6706 21.4348 13.2632V11.7895C21.4348 11.382 21.7659 11.0526 22.1739 11.0526H23.6522C24.0609 11.0526 24.3913 11.382 24.3913 11.7895V13.2632C24.3913 13.6706 24.0609 14 23.6522 14ZM17.7391 19.1579H16.2609C15.8521 19.1579 15.5217 18.8285 15.5217 18.4211V16.9474C15.5217 16.5406 15.8521 16.2105 16.2609 16.2105H17.7391C18.1479 16.2105 18.4783 16.5406 18.4783 16.9474V18.4211C18.4783 18.8285 18.1479 19.1579 17.7391 19.1579ZM17.7391 14H16.2609C15.8521 14 15.5217 13.6706 15.5217 13.2632V11.7895C15.5217 11.382 15.8521 11.0526 16.2609 11.0526H17.7391C18.1479 11.0526 18.4783 11.382 18.4783 11.7895V13.2632C18.4783 13.6706 18.1479 14 17.7391 14ZM11.8261 24.3158H10.3478C9.93909 24.3158 9.6087 23.9864 9.6087 23.5789V22.1053C9.6087 21.6978 9.93909 21.3684 10.3478 21.3684H11.8261C12.2348 21.3684 12.5652 21.6978 12.5652 22.1053V23.5789C12.5652 23.9864 12.2348 24.3158 11.8261 24.3158ZM11.8261 19.1579H10.3478C9.93909 19.1579 9.6087 18.8285 9.6087 18.4211V16.9474C9.6087 16.5406 9.93909 16.2105 10.3478 16.2105H11.8261C12.2348 16.2105 12.5652 16.5406 12.5652 16.9474V18.4211C12.5652 18.8285 12.2348 19.1579 11.8261 19.1579ZM11.8261 14H10.3478C9.93909 14 9.6087 13.6706 9.6087 13.2632V11.7895C9.6087 11.382 9.93909 11.0526 10.3478 11.0526H11.8261C12.2348 11.0526 12.5652 11.382 12.5652 11.7895V13.2632C12.5652 13.6706 12.2348 14 11.8261 14ZM5.91304 24.3158H4.43478C4.02604 24.3158 3.69565 23.9864 3.69565 23.5789V22.1053C3.69565 21.6978 4.02604 21.3684 4.43478 21.3684H5.91304C6.32178 21.3684 6.65217 21.6978 6.65217 22.1053V23.5789C6.65217 23.9864 6.32178 24.3158 5.91304 24.3158ZM5.91304 19.1579H4.43478C4.02604 19.1579 3.69565 18.8285 3.69565 18.4211V16.9474C3.69565 16.5406 4.02604 16.2105 4.43478 16.2105H5.91304C6.32178 16.2105 6.65217 16.5406 6.65217 16.9474V18.4211C6.65217 18.8285 6.32178 19.1579 5.91304 19.1579ZM16.2609 21.3684H17.7391C18.1479 21.3684 18.4783 21.6978 18.4783 22.1053V23.5789C18.4783 23.9864 18.1479 24.3158 17.7391 24.3158H16.2609C15.8521 24.3158 15.5217 23.9864 15.5217 23.5789V22.1053C15.5217 21.6978 15.8521 21.3684 16.2609 21.3684Z" fill="#26A0DA"/>
</svg>
