<svg width="27" height="22" viewBox="0 0 27 22" fill="none" xmlns="http://www.w3.org/2000/svg">
<path d="M4.54396 13.7273H10.0003V19.1582C10.0003 20.1755 10.8249 21 11.8421 21C12.4012 21 12.9312 20.7455 13.2803 20.3091L20.0003 11.9091V2.81818L17.2731 1H5.93396C5.12396 1 4.41124 1.53818 4.18851 2.31909L1.92487 10.2509C1.4276 11.9927 2.73396 13.7273 4.54396 13.7273Z" stroke="black" stroke-width="2" stroke-miterlimit="10" stroke-linecap="round" stroke-linejoin="round"/>
<path d="M20.0005 13.7266L25.4551 13.7266L25.4551 0.99929L20.0005 0.99929L20.0005 13.7266Z" stroke="black" stroke-width="2" stroke-miterlimit="10" stroke-linecap="round" stroke-linejoin="round"/>
<path d="M22.7275 5.54474C23.2295 5.54474 23.6365 5.13773 23.6365 4.63565C23.6365 4.13358 23.2295 3.72656 22.7275 3.72656C22.2254 3.72656 21.8184 4.13358 21.8184 4.63565C21.8184 5.13773 22.2254 5.54474 22.7275 5.54474Z" fill="black"/>
</svg>
