<svg width="26" height="22" viewBox="0 0 26 22" fill="none" xmlns="http://www.w3.org/2000/svg">
<path d="M22.0928 8.27273H16.6364V2.84182C16.6364 1.82454 15.8118 0.999999 14.7946 0.999999C14.2355 0.999999 13.7055 1.25455 13.3564 1.69091L6.63639 10.0909V19.1818L9.36367 21H20.7028C21.5128 21 22.2255 20.4618 22.4482 19.6809L24.7118 11.7491C25.2091 10.0073 23.9028 8.27273 22.0928 8.27273Z" stroke="#26A0DA" stroke-width="2" stroke-miterlimit="10" stroke-linecap="round" stroke-linejoin="round"/>
<path d="M6.63619 8.27246L1.18164 8.27246L1.18164 20.9997L6.63619 20.9997L6.63619 8.27246Z" stroke="#26A0DA" stroke-width="2" stroke-miterlimit="10" stroke-linecap="round" stroke-linejoin="round"/>
<path d="M3.90927 16.4543C3.40719 16.4543 3.00018 16.8613 3.00018 17.3634C3.00018 17.8654 3.40719 18.2725 3.90927 18.2725C4.41135 18.2725 4.81836 17.8654 4.81836 17.3634C4.81836 16.8613 4.41135 16.4543 3.90927 16.4543Z" fill="#26A0DA"/>
</svg>
