<svg width="22" height="20" viewBox="0 0 22 20" fill="none" xmlns="http://www.w3.org/2000/svg">
<path d="M21.2658 19.9917C21.3412 20.0028 21.4177 20.0028 21.4931 19.9917C21.6463 19.9396 21.7788 19.836 21.8703 19.6971C21.9617 19.5581 22.007 19.3914 21.9991 19.2228V18.4539C21.9988 14.9793 20.8175 11.6186 18.6672 8.9749C16.5169 6.33123 13.5384 4.57772 10.2663 4.0291V0.768912C10.2663 0.626116 10.2283 0.486141 10.1567 0.364671C10.0851 0.243202 9.9827 0.145037 9.8609 0.0811765C9.73909 0.0173161 9.60273 -0.00971659 9.4671 0.0031073C9.33147 0.0159312 9.20192 0.0681051 9.09297 0.153783L0.293322 7.07399C0.202248 7.14561 0.12833 7.23848 0.0774174 7.34525C0.0265064 7.45202 0 7.56975 0 7.68912C0 7.80849 0.0265064 7.92622 0.0774174 8.03299C0.12833 8.13976 0.202248 8.23263 0.293322 8.30425L9.09297 15.2245C9.20192 15.3101 9.33147 15.3623 9.4671 15.3751C9.60273 15.388 9.73909 15.3609 9.8609 15.2971C9.9827 15.2332 10.0851 15.135 10.1567 15.0136C10.2283 14.8921 10.2663 14.7521 10.2663 14.6093V11.7259C13.8172 12.3336 16.997 14.3833 19.1172 17.4312L20.6718 19.6765C20.7401 19.7744 20.8295 19.854 20.9327 19.9088C21.036 19.9636 21.1501 19.992 21.2658 19.9917ZM8.79965 2.30674V4.70574C8.79855 4.89583 8.86464 5.0796 8.98516 5.2216C9.10569 5.3636 9.2721 5.45375 9.45229 5.47465C12.2173 5.79096 14.8021 7.06782 16.7953 9.10206C18.7885 11.1363 20.0756 13.8111 20.4519 16.7008L20.3345 16.5393C19.0796 14.7326 17.4756 13.2235 15.6271 12.1106C13.7785 10.9977 11.727 10.306 9.60628 10.0804C9.50406 10.0705 9.40099 10.0831 9.30372 10.1175C9.20645 10.152 9.11717 10.2074 9.04164 10.2804C8.96568 10.3522 8.9049 10.44 8.86322 10.538C8.82155 10.636 8.79989 10.7421 8.79965 10.8493V13.0715L1.95792 7.68912L8.79965 2.30674Z" fill="#26A0DA"/>
</svg>
