<svg width="505" height="500" viewBox="0 0 505 500" fill="none" xmlns="http://www.w3.org/2000/svg">
<path d="M496.713 211.312C484.28 129.973 433.285 30.0465 332.541 19.5818C332.541 19.5818 256.057 10.288 180.655 24.3751C135.904 32.7358 96.664 57.6352 71.8349 93.4016C47.0058 129.168 38.7111 172.801 48.7819 214.386C55.3188 241.389 59.7316 269.343 58.5231 297.115C56.4174 345.414 57.6259 390.51 104.556 419.325C146.45 445.048 199.167 467.733 249.484 471.703C283.67 474.411 321.994 470.038 354.953 461.147C522.824 415.812 509.146 292.651 496.713 211.312Z" fill="#BBE5FF"/>
<path d="M267.155 385.041C252.891 388.993 241.777 372.564 250.767 360.818C253.551 357.178 256.206 353.244 258.641 349C276.75 317.533 267.393 296.859 283.708 239.889C294.017 203.867 301.598 178.821 323.369 170.003C340.434 163.087 364.201 166.929 375.774 180.394C385.387 191.572 387.694 210.709 386.577 223.643C385.661 234.2 382.42 241.188 386.888 248.012C391.447 254.982 398.68 253.556 403.221 259.026C412.431 270.112 398.9 295.524 396.721 299.622C372.404 345.304 319.047 366.618 295.647 375.637C287.773 378.693 278.233 381.986 267.155 385.041Z" fill="url(#paint0_linear_1543_1963)"/>
<mask id="mask0_1543_1963" style="mask-type:luminance" maskUnits="userSpaceOnUse" x="245" y="166" width="162" height="221">
<path d="M262.577 386.285C249.558 389.669 239.707 374.393 248.258 364.002C251.975 359.483 255.509 354.507 258.659 349C276.768 317.533 267.411 296.859 283.726 239.889C294.035 203.867 301.615 178.821 323.387 170.003C340.452 163.087 364.219 166.929 375.791 180.394C385.404 191.572 387.712 210.709 386.595 223.643C385.679 234.2 382.438 241.188 386.906 248.012C391.465 254.982 398.698 253.555 403.239 259.026C412.449 270.112 398.918 295.524 396.739 299.622C372.422 345.304 319.065 366.618 295.664 375.637C286.711 379.095 275.614 382.882 262.577 386.285Z" fill="white"/>
</mask>
<g mask="url(#mask0_1543_1963)">
<g opacity="0.5">
<path d="M193.398 400.957L193.252 399.732C216.122 397.17 236.465 392.34 253.732 385.388C279.183 375.125 297.146 360.489 307.144 341.847C314.962 327.247 317.764 310.764 321.646 287.932C324.74 269.71 325.289 256.519 325.765 244.865C326.406 229.644 326.901 217.606 332.852 201.488C338.894 185.133 348.727 169.875 362.094 156.099L362.991 156.958C349.752 170.606 340.011 185.718 334.024 201.909C328.128 217.844 327.633 229.79 327.011 244.902C326.516 256.574 325.967 269.82 322.872 288.114C319.119 310.196 316.171 327.631 308.242 342.414C298.117 361.312 279.934 376.149 254.208 386.504C236.831 393.53 216.378 398.396 193.398 400.957Z" fill="white"/>
<path d="M324.392 275.363L323.843 274.924C323.733 274.851 313.186 266.508 304.434 251.232C296.359 237.127 288.192 214.02 295.15 184.09L296.359 184.364C289.492 213.91 297.549 236.688 305.514 250.61C313.003 263.709 321.81 271.613 324.063 273.497C342.135 243.749 364.675 227.979 380.459 219.966C397.689 211.221 410.836 209.593 410.964 209.575L411.111 210.8C410.983 210.819 398.019 212.429 380.972 221.1C365.243 229.095 342.721 244.884 324.758 274.759L324.392 275.363Z" fill="white"/>
<path d="M314.538 324.338L314.392 323.917C314.318 323.716 306.976 303.61 295.66 284.876C284.417 266.27 250.506 252.092 250.158 251.945L250.634 250.793C250.982 250.939 285.278 265.264 296.722 284.217C307.177 301.524 314.282 320.02 315.399 323.039C355.279 321.136 416.931 244.883 417.553 244.097L418.524 244.865C418.359 245.066 402.649 264.569 382.159 283.998C354.583 310.141 331.988 323.698 314.996 324.265L314.538 324.338Z" fill="white"/>
<path d="M284.842 384.949C271.036 384.949 262.192 383.797 262.064 383.778L260.837 383.614L261.698 382.736C275.357 368.777 278.397 351.214 270.761 330.522C265.048 315.045 255.142 303.555 255.051 303.446L255.985 302.641C256.094 302.75 266.129 314.404 271.915 330.101C279.459 350.537 276.529 368.685 263.437 382.699C267.923 383.175 284.311 384.638 305.716 382.845C328.879 380.906 362.863 374.631 393.112 355.824L451.908 319.289L452.567 320.332L393.772 356.867C363.303 375.802 329.117 382.114 305.789 384.071C298.062 384.711 290.958 384.949 284.842 384.949Z" fill="white"/>
</g>
</g>
<path d="M238.209 386.504C258.021 398.103 284.901 410.05 315.516 413.05C323.335 413.818 371.583 418.575 377.131 398.56C379.072 391.499 374.073 387.327 376.527 377.869C379.42 366.636 388.282 365.319 399.47 355.677C406.135 349.933 425.654 333.12 419.758 314.184C416.243 302.86 403.791 291.316 391.413 287.565C373.249 282.077 358.747 294.481 334.596 315.886C313.172 334.858 311.872 341.791 296.199 355.183C284.553 365.099 266.316 377.503 238.209 386.504Z" fill="url(#paint1_linear_1543_1963)"/>
<mask id="mask1_1543_1963" style="mask-type:luminance" maskUnits="userSpaceOnUse" x="238" y="286" width="183" height="129">
<path d="M238.213 386.504C258.025 398.103 284.905 410.05 315.52 413.05C323.339 413.818 371.587 418.575 377.135 398.56C379.076 391.499 374.077 387.327 376.531 377.869C379.424 366.636 388.286 365.319 399.474 355.677C406.139 349.933 425.658 333.12 419.762 314.184C416.246 302.86 403.795 291.316 391.417 287.565C373.253 282.077 358.751 294.481 334.6 315.886C313.176 334.858 311.876 341.791 296.202 355.183C284.557 365.099 266.32 377.503 238.213 386.504Z" fill="white"/>
</mask>
<g mask="url(#mask1_1543_1963)">
<g opacity="0.5">
<path d="M248.394 386.76C236.016 386.76 223.876 385.022 212.029 381.528C189.067 374.777 168.01 361.97 149.443 343.511L150.322 342.633C168.724 360.946 189.617 373.643 212.377 380.338C242.699 389.266 274.999 386.632 308.361 372.527C343.114 357.836 370.324 334.345 387.041 317.258C398.595 305.421 406.78 289.669 411.358 270.423L412.566 270.716C407.934 290.181 399.639 306.134 387.938 318.118C371.148 335.297 343.81 358.897 308.855 373.679C288.219 382.388 268.004 386.76 248.394 386.76Z" fill="white"/>
<path d="M350.441 349.749L350.349 349.2C350.276 348.798 344.215 308.403 369.905 282.516L370.784 283.394C347.181 307.195 350.88 343.547 351.503 348.45C409.309 345.304 426.906 313.836 430.934 304.232C431.044 303.957 431.117 303.793 431.154 303.738L432.216 304.36L431.685 304.049L432.234 304.36C432.197 304.415 432.161 304.543 432.087 304.707C427.968 314.495 409.987 346.694 351.008 349.713L350.441 349.749Z" fill="white"/>
<path d="M366.386 396.273C366.313 396.273 366.258 396.273 366.185 396.273C353.184 396.237 332.676 392.23 308.799 373.35L308.543 373.149L308.561 372.819C308.58 372.508 311.29 341.553 332.951 309.812L354.759 277.851L355.784 278.546L333.976 310.507C313.725 340.218 310.191 369.197 309.843 372.581C322.88 382.845 343.168 394.956 366.203 395.029C366.276 395.029 366.331 395.029 366.404 395.029C380.101 395.029 388.359 390.693 388.432 390.639L389.018 391.736C388.67 391.919 380.394 396.273 366.386 396.273Z" fill="white"/>
</g>
</g>
<path d="M388.935 128.181C391.041 129.242 393.678 128.272 394.831 126.004C395.985 123.735 395.216 121.027 393.11 119.948C393 119.893 392.89 119.838 392.781 119.802C393.165 118.539 393.458 117.277 393.659 116.015C393.788 116.015 393.897 116.015 394.026 115.996C396.424 115.777 398.329 113.581 398.274 111.075C398.219 108.569 396.241 106.721 393.842 106.94C393.714 106.959 393.586 106.977 393.476 106.995C393.22 105.751 392.89 104.544 392.451 103.373C392.561 103.3 392.671 103.245 392.781 103.172C394.831 101.745 395.49 98.9088 394.245 96.8415C393 94.7742 390.327 94.2802 388.276 95.7072C388.166 95.7804 388.075 95.8536 387.983 95.9451C387.177 95.0486 386.28 94.2253 385.328 93.457C385.401 93.3472 385.456 93.2374 385.53 93.1094C386.683 90.8408 388.203 88.3527 386.079 87.3282C381.172 84.9315 379.084 86.9806 377.931 89.2491C377.876 89.3589 377.821 89.487 377.766 89.615C376.594 89.2857 375.385 89.0662 374.195 88.9381C374.195 88.8101 374.214 88.682 374.214 88.5539C374.159 86.0475 374.909 84.6937 372.492 84.6571C367.237 84.5473 365.479 86.8342 365.516 89.3406C365.516 89.4687 365.534 89.5967 365.534 89.7248C364.326 90.0724 363.154 90.5115 362 91.042C361.946 90.9323 361.891 90.8225 361.817 90.7127C360.572 88.6454 357.899 88.1514 355.848 89.5784C353.797 91.0054 353.138 93.8411 354.383 95.9085C354.438 96.0182 354.511 96.1097 354.585 96.2012C353.669 97.1159 352.827 98.0856 352.039 99.1467C351.93 99.0918 351.838 99.0186 351.728 98.9637C349.623 97.9026 346.986 98.8722 345.832 101.141C344.679 103.409 345.448 106.117 347.553 107.196C347.663 107.251 347.773 107.306 347.883 107.343C347.498 108.605 347.206 109.867 347.004 111.13C346.876 111.13 346.766 111.13 346.638 111.148C344.239 111.368 342.335 113.563 342.39 116.069C342.445 118.576 344.422 120.424 346.821 120.204C346.949 120.186 347.077 120.167 347.187 120.149C347.444 121.393 347.773 122.601 348.213 123.772C348.103 123.845 347.993 123.9 347.883 123.973C345.832 125.4 345.173 128.236 346.418 130.303C347.663 132.37 351.765 133.322 353.816 131.876C353.925 131.803 352.57 131.272 352.68 131.199C353.486 132.096 354.383 132.919 355.335 133.687C355.262 133.797 355.207 133.907 355.134 134.035C353.98 136.304 354.749 139.011 356.855 140.091C358.961 141.152 361.598 140.182 362.751 137.914C362.806 137.804 362.861 137.676 362.916 137.548C364.088 137.877 365.296 138.096 366.487 138.225C366.487 138.353 366.468 138.481 366.468 138.609C366.523 141.115 368.501 142.963 370.899 142.743C373.298 142.524 375.202 140.328 375.147 137.822C375.147 137.694 375.129 137.566 375.129 137.438C376.338 137.09 377.509 136.651 378.663 136.121C378.718 136.23 378.773 136.34 378.846 136.45C380.091 138.517 382.765 139.011 384.815 137.584C386.866 136.157 387.525 133.321 386.28 131.254C386.225 131.144 386.152 131.053 386.079 130.961C386.994 130.047 387.837 129.077 388.624 128.016C388.716 128.071 388.825 128.126 388.935 128.181ZM362.733 128.51C355.097 124.631 352.314 114.807 356.507 106.556C360.7 98.3051 370.295 94.7559 377.912 98.6161C385.548 102.495 388.331 112.319 384.138 120.57C379.945 128.821 370.368 132.388 362.733 128.51Z" fill="black"/>
<path d="M394.026 115.996C396.425 115.777 398.329 113.582 398.274 111.075C398.219 108.569 396.241 106.721 393.843 106.94C393.715 106.959 393.586 106.977 393.477 106.995C393.22 105.751 392.891 104.544 392.451 103.373C392.561 103.3 392.671 103.245 392.781 103.172C394.832 101.745 397.377 98.2687 395.93 96.3478C393.184 92.7071 390.346 94.2804 388.295 95.7074C388.185 95.7806 388.093 95.8538 388.002 95.9453C387.196 95.0488 386.299 94.2256 385.347 93.4572C385.42 93.3474 385.475 93.2376 385.548 93.1096C386.171 91.8655 386.226 90.5117 385.823 89.3408C383.845 92.8168 381.886 96.3295 379.963 99.8421C386.043 104.306 387.983 113.088 384.175 120.57C380.952 126.918 374.543 130.486 368.281 130.029C368.007 130.76 367.732 131.474 367.421 132.187C366.615 134.127 365.681 136.029 364.766 137.932C365.352 138.042 365.938 138.133 366.505 138.188C366.505 138.316 366.487 138.444 366.487 138.572C366.542 141.079 368.062 143.201 372.401 142.963C374.8 142.835 375.221 140.292 375.166 137.786C375.166 137.658 375.148 137.53 375.148 137.401C376.356 137.054 377.528 136.615 378.682 136.084C378.737 136.194 378.792 136.304 378.865 136.414C380.11 138.481 384.413 139.341 386.464 137.914C388.514 136.487 387.526 133.267 386.281 131.218C386.226 131.108 386.152 131.017 386.079 130.925C386.995 130.01 387.837 129.041 388.624 127.98C388.734 128.034 388.826 128.108 388.936 128.163C391.041 129.224 393.678 128.254 394.832 125.985C395.985 123.717 395.216 121.009 393.11 119.93C393 119.875 392.891 119.82 392.781 119.783C393.165 118.521 393.458 117.259 393.66 115.996C393.788 116.015 393.898 115.996 394.026 115.996Z" fill="black"/>
<path d="M391.191 128.437C393.297 129.498 395.933 128.528 397.087 126.241C398.24 123.973 397.471 121.265 395.366 120.186C395.256 120.131 395.146 120.076 395.036 120.039C395.421 118.777 395.714 117.515 395.915 116.252C396.043 116.252 396.153 116.252 396.281 116.234C398.68 116.015 400.584 113.819 400.529 111.313C400.474 108.806 398.497 106.959 396.098 107.178C395.97 107.196 395.842 107.215 395.732 107.233C395.476 105.989 395.146 104.781 394.707 103.611C394.816 103.537 394.926 103.483 395.036 103.409C397.087 101.982 397.746 99.1466 396.501 97.0793C395.256 95.012 392.583 94.518 390.532 95.945C390.422 96.0182 390.33 96.0914 390.239 96.1829C389.433 95.2864 388.536 94.4631 387.584 93.6948C387.657 93.585 387.712 93.4752 387.785 93.3472C388.939 91.0786 388.17 88.371 386.064 87.2916C383.958 86.2305 381.322 87.2001 380.168 89.4686C380.113 89.5784 380.058 89.7065 380.003 89.8345C378.831 89.5052 377.623 89.2857 376.433 89.1576C376.433 89.0296 376.451 88.9015 376.451 88.7734C376.396 86.267 374.418 84.4193 372.02 84.6388C369.621 84.8583 367.717 87.0537 367.772 89.5601C367.772 89.6882 367.79 89.8162 367.79 89.9443C366.582 90.2919 365.41 90.731 364.256 91.2615C364.201 91.1518 364.146 91.042 364.073 90.9322C362.828 88.8649 360.154 88.3709 358.104 89.7979C356.053 91.2249 355.394 94.0607 356.639 96.128C356.694 96.2377 356.767 96.3292 356.84 96.4207C355.925 97.3354 355.082 98.3051 354.295 99.3662C354.185 99.3113 354.094 99.2381 353.984 99.1832C351.878 98.1221 349.241 99.0917 348.088 101.36C346.934 103.629 347.703 106.337 349.809 107.416C349.919 107.471 350.029 107.526 350.139 107.562C349.754 108.825 349.461 110.087 349.26 111.349C349.132 111.349 349.022 111.349 348.894 111.368C346.495 111.587 344.591 113.783 344.645 116.289C344.7 118.795 346.678 120.643 349.077 120.424C349.205 120.405 349.333 120.387 349.443 120.369C349.699 121.613 350.029 122.82 350.468 123.991C350.358 124.064 350.248 124.119 350.139 124.192C348.088 125.619 347.429 128.455 348.674 130.522C349.919 132.59 352.592 133.084 354.643 131.657C354.753 131.583 354.844 131.51 354.936 131.419C355.742 132.315 356.639 133.139 357.591 133.907C357.518 134.017 357.463 134.126 357.39 134.255C356.236 136.523 357.005 139.231 359.111 140.31C361.217 141.371 363.853 140.402 365.007 138.115C365.062 138.005 365.117 137.877 365.172 137.749C366.343 138.078 367.552 138.298 368.742 138.426C368.742 138.554 368.724 138.682 368.724 138.81C368.779 141.316 370.756 143.164 373.155 142.945C375.554 142.725 377.458 140.53 377.403 138.023C377.403 137.895 377.385 137.767 377.385 137.639C378.593 137.291 379.765 136.852 380.919 136.322C380.974 136.432 381.029 136.541 381.102 136.651C382.347 138.718 385.02 139.212 387.071 137.785C389.122 136.358 389.781 133.523 388.536 131.455C388.481 131.346 388.408 131.254 388.334 131.163C389.25 130.248 390.092 129.278 390.88 128.217C390.971 128.327 391.081 128.382 391.191 128.437ZM364.989 128.766C357.353 124.888 354.57 115.063 358.763 106.812C362.956 98.5612 372.551 95.012 380.168 98.8722C387.803 102.751 390.587 112.575 386.394 120.826C382.2 129.077 372.624 132.645 364.989 128.766Z" fill="url(#paint2_linear_1543_1963)"/>
<path d="M332.705 85.279C336.825 87.3646 341.989 85.4436 344.259 80.998C346.53 76.5523 345.028 71.2468 340.908 69.1612C340.688 69.0514 340.469 68.96 340.267 68.8685C341.036 66.3987 341.604 63.9289 341.989 61.4408C342.227 61.4408 342.465 61.4408 342.703 61.4225C347.39 61.0017 351.126 56.6841 351.034 51.7994C350.942 46.8963 347.042 43.2556 342.355 43.6764C342.117 43.6947 341.86 43.7313 341.622 43.7862C341.128 41.353 340.469 38.9929 339.608 36.6878C339.828 36.5597 340.048 36.4317 340.249 36.2853C344.259 33.4679 345.559 27.9245 343.124 23.8814C340.688 19.8382 335.452 18.8503 331.442 21.6677C331.24 21.814 331.039 21.9604 330.856 22.1251C329.263 20.3688 327.523 18.7405 325.637 17.2586C325.765 17.0391 325.894 16.8195 326.022 16.6C328.292 12.1544 331.24 7.28792 327.102 5.25718C317.507 0.573695 313.387 4.58027 311.117 9.04422C311.007 9.28206 310.897 9.5016 310.806 9.73943C308.499 9.09911 306.155 8.64174 303.811 8.4039C303.829 8.14777 303.829 7.90994 303.829 7.65381C303.738 2.75079 305.184 0.0980283 300.479 0.00655386C290.206 -0.19469 286.727 4.26926 286.837 9.17229C286.837 9.42842 286.855 9.68454 286.892 9.92238C284.53 10.5993 282.223 11.4591 279.971 12.4837C279.861 12.2641 279.751 12.0446 279.623 11.8433C277.187 7.80017 271.951 6.81225 267.941 9.62966C263.931 12.4471 262.631 17.9904 265.066 22.0336C265.194 22.2348 265.322 22.4361 265.469 22.619C263.693 24.3936 262.026 26.3329 260.488 28.4002C260.287 28.2721 260.085 28.1624 259.866 28.0526C255.746 25.967 250.582 27.8879 248.312 32.3336C246.041 36.7793 247.543 42.0848 251.663 44.1704C251.882 44.2802 252.102 44.3716 252.303 44.4631C251.534 46.9329 250.967 49.4027 250.582 51.8908C250.344 51.8908 250.106 51.8908 249.868 51.9091C245.181 52.3299 241.445 56.6475 241.537 61.5322C241.628 66.4353 245.529 70.0576 250.216 69.6552C250.454 69.6369 250.71 69.6003 250.948 69.5454C251.443 71.9786 252.102 74.3386 252.963 76.6438C252.743 76.7719 252.523 76.8999 252.322 77.0463C248.312 79.8637 247.012 85.407 249.447 89.4502C251.882 93.4934 259.939 95.3595 263.949 92.542C264.15 92.3957 261.514 91.3529 261.715 91.2065C263.308 92.9628 265.048 94.5911 266.934 96.073C266.805 96.2925 266.677 96.512 266.549 96.7316C264.279 101.177 265.78 106.483 269.9 108.568C274.02 110.654 279.183 108.733 281.454 104.287C281.564 104.05 281.674 103.83 281.765 103.592C284.072 104.232 286.416 104.69 288.76 104.928C288.741 105.184 288.741 105.422 288.741 105.678C288.833 110.581 292.733 114.203 297.421 113.801C302.108 113.38 305.844 109.062 305.752 104.178C305.752 103.921 305.734 103.665 305.697 103.428C308.059 102.751 310.366 101.891 312.618 100.866C312.728 101.086 312.838 101.305 312.966 101.507C315.402 105.55 320.638 106.538 324.648 103.72C328.658 100.903 329.958 95.3595 327.523 91.3163C327.395 91.1151 327.267 90.9138 327.12 90.7309C328.896 88.9563 330.563 87.017 332.101 84.9497C332.302 85.0594 332.504 85.1692 332.705 85.279ZM281.399 85.9376C266.457 78.3635 261.001 59.099 269.222 42.9263C277.444 26.7537 296.212 19.8016 311.154 27.3757C326.095 34.9498 331.552 54.2143 323.33 70.3869C315.127 86.5596 296.34 93.5117 281.399 85.9376Z" fill="black"/>
<path d="M342.702 61.4043C347.39 60.9835 351.125 56.6659 351.033 51.7812C350.942 46.8781 347.042 43.2375 342.354 43.6582C342.116 43.6765 341.86 43.7131 341.622 43.768C341.127 41.3348 340.468 38.9748 339.608 36.6696C339.827 36.5415 340.047 36.4135 340.249 36.2671C344.259 33.4497 349.239 26.6623 346.401 22.8936C341.018 15.7403 335.451 18.8504 331.441 21.6495C331.24 21.7959 331.038 21.9422 330.855 22.1069C329.262 20.3506 327.523 18.7223 325.637 17.2404C325.765 17.0209 325.893 16.8014 326.021 16.5818C327.248 14.1669 327.358 11.4775 326.552 9.20898C322.67 16.033 318.844 22.8936 315.09 29.7724C327.01 38.4991 330.8 55.6963 323.348 70.3688C317.031 82.791 304.47 89.7796 292.22 88.9015C291.671 90.3102 291.14 91.7372 290.554 93.1459C288.961 96.9512 287.166 100.683 285.354 104.416C286.489 104.635 287.624 104.8 288.778 104.909C288.759 105.166 288.759 105.403 288.759 105.66C288.851 110.563 291.835 114.716 300.35 114.276C305.056 114.02 305.861 109.044 305.77 104.141C305.77 103.885 305.751 103.629 305.715 103.391C308.077 102.714 310.384 101.854 312.636 100.83C312.746 101.049 312.856 101.269 312.984 101.47C315.419 105.513 323.861 107.215 327.871 104.416C331.881 101.598 329.958 95.323 327.523 91.2981C327.395 91.0969 327.266 90.8956 327.12 90.7127C328.896 88.9381 330.562 86.9988 332.1 84.9315C332.302 85.0595 332.503 85.1693 332.723 85.2791C336.843 87.3647 342.006 85.4437 344.277 80.9981C346.547 76.5524 345.046 71.2469 340.926 69.1613C340.706 69.0515 340.487 68.9601 340.285 68.8686C341.054 66.3988 341.622 63.929 342.006 61.4409C342.226 61.4409 342.464 61.4409 342.702 61.4043Z" fill="black"/>
<path d="M337.137 85.791C341.257 87.8766 346.421 85.9556 348.691 81.51C350.962 77.0643 349.46 71.7588 345.341 69.6732C345.121 69.5634 344.901 69.4719 344.7 69.3804C345.469 66.9106 346.036 64.4408 346.421 61.9527C346.659 61.9527 346.897 61.9527 347.135 61.9344C351.823 61.5137 355.558 57.1961 355.466 52.3113C355.375 47.4083 351.475 43.7676 346.787 44.1884C346.549 44.2067 346.293 44.2433 346.055 44.2982C345.56 41.865 344.883 39.5049 344.041 37.1998C344.26 37.0717 344.48 36.9436 344.681 36.7973C348.691 33.9799 349.991 28.4365 347.556 24.3933C345.121 20.3502 339.884 19.3623 335.874 22.1797C335.673 22.326 335.471 22.4724 335.288 22.637C333.695 20.8807 331.956 19.2525 330.07 17.7706C330.198 17.5511 330.326 17.3315 330.454 17.112C332.725 12.6663 331.223 7.36081 327.103 5.2752C322.983 3.18958 317.82 5.11054 315.549 9.5562C315.439 9.79403 315.33 10.0136 315.238 10.2514C312.931 9.61108 310.587 9.15371 308.243 8.91588C308.262 8.65975 308.262 8.42192 308.262 8.16579C308.17 3.26276 304.27 -0.377921 299.583 0.0428614C294.895 0.463644 291.16 4.78123 291.251 9.66597C291.251 9.9221 291.27 10.1782 291.306 10.4161C288.944 11.093 286.637 11.9528 284.385 12.9773C284.275 12.7578 284.165 12.5383 284.037 12.337C281.602 8.29385 276.365 7.30593 272.355 10.1233C268.345 12.9408 267.045 18.4841 269.48 22.5273C269.608 22.7285 269.736 22.9298 269.883 23.1127C268.107 24.8873 266.44 26.8266 264.902 28.8939C264.701 28.7658 264.499 28.6561 264.28 28.5463C260.16 26.4607 254.996 28.3816 252.726 32.8273C250.455 37.2729 251.957 42.5785 256.077 44.6641C256.296 44.7738 256.516 44.8653 256.717 44.9568C255.948 47.4266 255.381 49.8964 254.996 52.3845C254.758 52.3845 254.52 52.3845 254.282 52.4028C249.595 52.8236 245.859 57.1412 245.951 62.0259C246.042 66.9289 249.943 70.5513 254.63 70.1488C254.868 70.1305 255.124 70.0939 255.363 70.0391C255.857 72.4723 256.516 74.8323 257.377 77.1375C257.157 77.2655 256.937 77.3936 256.736 77.54C252.726 80.3574 251.426 85.9007 253.861 89.9439C256.296 93.9871 261.533 94.975 265.543 92.1576C265.745 92.0112 265.946 91.8649 266.129 91.7002C267.722 93.4565 269.462 95.0848 271.348 96.5667C271.219 96.7862 271.091 97.0057 270.963 97.2253C268.693 101.671 270.194 106.976 274.314 109.062C278.434 111.148 283.597 109.227 285.868 104.781C285.978 104.543 286.088 104.324 286.179 104.086C288.486 104.726 290.83 105.184 293.174 105.421C293.155 105.677 293.156 105.915 293.156 106.171C293.247 111.074 297.147 114.715 301.835 114.294C306.522 113.874 310.258 109.556 310.166 104.671C310.166 104.415 310.148 104.159 310.111 103.921C312.473 103.244 314.78 102.384 317.032 101.36C317.142 101.579 317.252 101.799 317.38 102C319.816 106.043 325.052 107.031 329.063 104.214C333.073 101.396 334.373 95.8531 331.937 91.81C331.809 91.6087 331.681 91.4075 331.534 91.2245C333.311 89.4499 334.977 87.5107 336.515 85.4434C336.735 85.5531 336.936 85.6812 337.137 85.791ZM285.831 86.4313C270.89 78.8572 265.433 59.5927 273.655 43.42C281.876 27.2473 300.645 20.2953 315.586 27.8694C330.527 35.4435 335.984 54.708 327.762 70.8806C319.559 87.0533 300.773 94.0237 285.831 86.4313Z" fill="url(#paint3_linear_1543_1963)"/>
<path d="M499.696 441.443L11.9395 437.235V449.694C11.9395 453.079 14.0635 455.951 16.9565 456.463L154.872 481.015C156.501 481.308 158.168 481.381 159.816 481.253L494.386 453.262C497.371 453.006 499.678 450.133 499.678 446.657V441.443H499.696Z" fill="#BFC8D6"/>
<path d="M328.491 202.933V411.44C328.491 414.074 327.539 416.526 326.001 418.337C324.518 420.112 322.467 421.301 320.197 421.466L96.0755 437.986L12.5061 444.169H12.4878L11.9202 444.188L10.1074 444.298C4.57764 444.7 0 440.346 0 434.583V203.921C0 198.158 4.65088 193.347 10.199 193.347H320.197C324.774 193.365 328.491 197.719 328.491 202.933Z" fill="#BFC8D6"/>
<path d="M333.453 202.933V411.44C333.453 415.465 331.219 419.051 328.107 420.624C328.07 420.642 327.997 420.679 327.96 420.697C327.667 420.844 327.356 420.972 327.044 421.081C326.971 421.1 326.898 421.136 326.843 421.155C326.788 421.173 326.733 421.191 326.678 421.191C326.459 421.264 326.221 421.319 326.001 421.356C325.726 421.411 325.433 421.447 325.159 421.466L323.584 421.575L100.506 437.968H100.488L15.124 444.261C14.3001 444.316 13.4944 444.316 12.7253 444.169C12.6521 444.151 12.5789 444.169 12.5056 444.169H12.4873C12.3042 444.169 12.0479 444.06 11.8648 444.005C7.87305 442.925 4.94336 439.193 4.94336 434.601V203.921C4.94336 198.158 9.57593 193.347 15.124 193.347H325.122C329.718 193.365 333.453 197.719 333.453 202.933Z" fill="white"/>
<path d="M315.492 406.775L26.7532 426.57C22.2305 426.881 18.5684 423.314 18.5684 418.63V216.691C18.5684 211.989 22.2305 208.166 26.7532 208.147L315.492 206.903C319.264 206.885 322.304 210.343 322.304 214.624V398.561C322.304 402.823 319.264 406.501 315.492 406.775Z" fill="#D8DEE8"/>
<path d="M181.09 199.823C181.09 201.963 179.497 203.701 177.52 203.72C175.542 203.72 173.949 201.982 173.949 199.841C173.949 197.701 175.542 195.944 177.52 195.944C179.497 195.944 181.09 197.664 181.09 199.823Z" fill="white"/>
<path opacity="0.48" d="M15.1423 444.261L323.584 421.575L325.158 421.466C327.264 421.319 329.168 420.276 330.615 418.703C308.423 417.496 294.635 409.611 285.736 401.488C267.883 385.15 270.978 369.051 251.715 358.312C227.691 344.92 208.813 361.898 190.576 345.139C179.516 334.986 184.955 327.412 171.35 312.245C156.28 295.451 146.484 301.085 131.341 285.974C112.207 266.856 121.783 251.982 105.285 238.261C85.2901 221.612 63.7203 237.017 44.6773 221.045C36.4741 214.148 31.9697 204.141 29.6077 193.493H15.1423C9.59424 193.493 5.08984 198.158 5.08984 203.921V434.583C5.08984 440.346 9.59424 444.682 15.1423 444.261Z" fill="white"/>
<path d="M339.753 420.203L11.9395 444.206L154.872 469.636C156.501 469.928 158.168 470.002 159.816 469.874L499.696 441.443L344.972 420.368C343.232 420.13 341.493 420.075 339.753 420.203Z" fill="url(#paint4_linear_1543_1963)"/>
<path d="M59.7832 444.407L332.684 424.137L417.15 435.534L146.594 457.214L59.7832 444.407Z" fill="#D8DEE8"/>
<path opacity="0.3" d="M308.663 193.365V401.561C308.663 403.482 308.279 405.366 307.711 407.141C306.924 409.666 305.569 411.971 303.884 413.965C300.625 417.788 295.882 420.405 290.609 420.807L66.1397 437.73L52.9011 438.736C49.7151 438.974 46.6755 438.535 43.9839 437.547C38.5457 435.571 34.499 431.363 32.8877 426.003C32.3933 424.411 32.2285 422.71 32.2285 420.917V193.365H308.663Z" fill="#BFC8D6"/>
<path d="M295.644 66.5999L57.8814 59.2819C46.364 58.9343 36.9707 67.3134 36.9707 78.0159V416.508C36.9707 427.21 46.364 435.187 57.8814 434.309L295.644 416.38C305.605 415.63 313.643 407.013 313.643 397.152V85.0228C313.643 75.1619 305.605 66.9109 295.644 66.5999Z" fill="url(#paint5_linear_1543_1963)"/>
<path opacity="0.74" d="M43.6738 418.063V76.1679C43.6738 70.0025 49.0754 65.1727 55.7222 65.3556L297.531 72.3809C303.281 72.5455 307.914 77.3022 307.914 83.0102V399.42C307.914 405.128 303.281 410.086 297.531 410.507L55.7222 428.308C49.0754 428.82 43.6738 424.228 43.6738 418.063Z" fill="white"/>
<path d="M295.644 66.5999L57.8814 59.2819C46.364 58.9343 36.9707 67.3134 36.9707 78.0159V91.92L313.643 97.8475V85.0228C313.643 75.1619 305.605 66.9109 295.644 66.5999Z" fill="url(#paint6_linear_1543_1963)"/>
<path d="M74.1057 77.1009C74.1057 80.5769 71.0845 83.3029 67.3491 83.2114C63.6138 83.1199 60.5742 80.2293 60.5742 76.7533C60.5742 73.2773 63.6138 70.5331 67.3491 70.6428C71.0845 70.7343 74.1057 73.6249 74.1057 77.1009Z" fill="white"/>
<path d="M97.6355 77.705C97.6355 81.1444 94.6509 83.8703 90.9705 83.7789C87.2717 83.6874 84.2871 80.8151 84.2871 77.3574C84.2871 73.8996 87.29 71.1737 90.9705 71.2835C94.6509 71.3932 97.6355 74.2655 97.6355 77.705Z" fill="white"/>
<path d="M120.848 78.3091C120.848 81.7302 117.9 84.4378 114.274 84.3464C110.63 84.2549 107.664 81.4009 107.664 77.9615C107.664 74.522 110.63 71.8327 114.274 71.9241C117.9 72.0339 120.848 74.8879 120.848 78.3091Z" fill="white"/>
<path d="M172.066 162.629L74.1958 162.483C72.6028 162.483 71.3027 161.294 71.3027 159.83V153.61C71.3027 152.146 72.6028 150.976 74.1958 150.976L172.066 151.524C173.549 151.524 174.757 152.677 174.757 154.086V160.068C174.757 161.477 173.549 162.629 172.066 162.629Z" fill="white"/>
<path d="M78.0039 164.807L86.4085 195.634C86.9395 197.591 88.8438 198.927 91.041 198.908L156.19 198.177C158.277 198.158 160.09 196.804 160.585 194.883L168.513 164.862L78.0039 164.807ZM102.156 193.822C102.156 195.048 101.075 196.054 99.7569 196.054L97.468 196.073C96.1497 196.091 95.0694 195.103 95.0694 193.877V170.002C95.0694 168.777 96.1497 167.789 97.468 167.789H99.7569C101.075 167.789 102.156 168.777 102.156 170.002V193.822ZM114.863 193.713C114.863 194.938 113.801 195.926 112.483 195.945L110.212 195.963C108.894 195.981 107.832 194.993 107.832 193.786V170.002C107.832 168.777 108.894 167.789 110.212 167.789H112.483C113.801 167.789 114.863 168.777 114.863 169.984V193.713ZM127.461 193.584C127.461 194.792 126.399 195.798 125.099 195.798L122.846 195.816C121.546 195.835 120.484 194.847 120.484 193.639V169.984C120.484 168.777 121.546 167.789 122.846 167.789H125.099C126.399 167.789 127.461 168.777 127.461 169.984V193.584ZM139.949 193.475C139.949 194.682 138.905 195.67 137.623 195.688L135.389 195.707C134.089 195.725 133.045 194.755 133.045 193.548V169.966C133.045 168.758 134.089 167.77 135.389 167.77H137.623C138.905 167.77 139.949 168.74 139.949 169.947V193.475ZM152.326 193.347C152.326 194.554 151.283 195.524 150.019 195.542L147.822 195.56C146.54 195.579 145.497 194.609 145.497 193.402V169.947C145.497 168.74 146.54 167.77 147.822 167.77H150.019C151.301 167.77 152.326 168.74 152.326 169.947V193.347Z" fill="white"/>
<path d="M88.996 147.902C87.5129 149.092 85.2607 148.927 83.9606 147.555C82.6606 146.183 82.8254 144.097 84.3085 142.908C85.7917 141.719 88.0622 141.883 89.3439 143.274C90.644 144.664 90.4792 146.732 88.996 147.902Z" fill="#D8DEE8"/>
<path d="M120.399 118.612C119.905 118.082 118.898 118.136 118.129 118.74L87.1473 143.329C86.3783 143.951 86.1402 144.884 86.6529 145.414C87.1473 145.945 88.191 145.872 88.9601 145.268L119.905 120.679C120.674 120.076 120.894 119.143 120.399 118.612Z" fill="white"/>
<path d="M158.136 148.378C159.546 149.549 161.689 149.421 162.916 148.103C164.142 146.786 163.996 144.755 162.586 143.585C161.176 142.414 159.034 142.523 157.807 143.859C156.58 145.176 156.727 147.207 158.136 148.378Z" fill="#D8DEE8"/>
<path d="M127.575 118.74C128.07 118.228 129.077 118.319 129.828 118.941L159.894 143.932C160.626 144.554 160.846 145.451 160.37 145.963C159.894 146.475 158.905 146.402 158.172 145.78L128.051 120.807C127.301 120.185 127.081 119.252 127.575 118.74Z" fill="white"/>
<path d="M286.03 133.23L185.102 131.931V119.381L286.03 121.137V133.23Z" fill="white"/>
<path d="M286.03 154.397L185.102 153.903V141.353L286.03 142.304V154.397Z" fill="white"/>
<path d="M286.03 175.564L185.102 175.875V163.325L286.03 163.472V175.564Z" fill="white"/>
<path d="M286.03 196.732L185.102 197.848V185.297L286.03 184.639V196.732Z" fill="white"/>
<path d="M272.297 303.72C272.297 354.488 231.354 398.396 180.689 401.78C129.841 405.183 88.5137 366.526 88.5137 315.428C88.5137 264.331 129.859 220.423 180.689 217.331C231.354 214.258 272.297 252.951 272.297 303.72Z" fill="#26A0DA"/>
<path d="M186.31 221.503C208.448 221.503 229.011 229.919 244.245 245.176C259.534 260.508 267.957 281.291 267.957 303.72C267.957 327.174 258.857 349.86 242.322 367.551C225.788 385.26 203.797 395.871 180.396 397.445C178.437 397.573 176.441 397.646 174.482 397.646C152.363 397.646 131.8 389.249 116.584 374.009C101.258 358.696 92.835 337.877 92.835 315.429C92.835 266.673 132.367 224.613 180.945 221.668C182.722 221.558 184.534 221.503 186.31 221.503ZM186.31 217.167C184.461 217.167 182.575 217.222 180.689 217.332C129.841 220.405 88.5137 264.331 88.5137 315.429C88.5137 364.422 126.545 401.982 174.5 401.982C176.551 401.982 178.62 401.909 180.707 401.781C231.373 398.396 272.315 354.507 272.315 303.72C272.297 254.836 234.339 217.167 186.31 217.167Z" fill="white"/>
<path d="M219.928 358.293C217.237 358.604 214.527 357.763 212.458 355.677L140.424 283.12C135.7 278.363 135.7 270.295 140.424 265.172C145.111 260.086 152.637 259.903 157.233 264.66L227.326 337.364C231.354 341.554 231.354 348.963 227.326 353.994C225.275 356.519 222.602 357.982 219.928 358.293Z" fill="white"/>
<path d="M148.866 366.545C145.808 366.892 142.75 366.014 140.406 363.819C135.682 359.373 135.682 351.305 140.406 345.872L212.44 262.959C216.578 258.202 223.225 258.02 227.29 262.502C231.318 266.947 231.318 274.375 227.29 279.132L157.197 361.898C154.927 364.624 151.905 366.197 148.866 366.545Z" fill="white"/>
<path d="M350.614 244.188C344.627 237.803 361.198 213.818 370.06 203.299C377.805 194.115 385.77 184.675 395.548 185.882C404.136 186.925 412.485 195.981 412.98 204.653C414.335 227.96 359.11 253.262 350.614 244.188Z" fill="url(#paint7_linear_1543_1963)"/>
<path d="M422.464 490.674C423.599 491.589 423.801 493.876 423.929 495.376C423.984 496.035 424.021 496.383 423.947 496.62C423.398 498.34 420.066 498.523 414.829 499.054C406.552 499.895 404.099 500.554 403.458 499.31C402.854 498.157 404.318 496.273 404.483 496.071C405.38 494.956 406.461 494.553 408.567 493.858C412.467 492.577 415.103 491.864 415.909 491.662C420.908 490.309 421.732 490.071 422.464 490.674Z" fill="#152834"/>
<path d="M417.556 483.119L416.732 492.541C416.97 492.998 419.772 494.352 421.988 493.181L424.112 483.924L417.556 483.119Z" fill="url(#paint8_linear_1543_1963)"/>
<path d="M356.893 489.467C358.248 490.949 358.56 493.693 357.37 495.047C356.216 496.383 354.476 495.376 349.551 495.523C344.277 495.687 342.904 496.931 339.315 495.943C337.869 495.541 335.305 494.571 335.36 493.547C335.397 492.815 336.697 492.449 341.037 490.986C347.207 488.918 347.189 488.808 348.489 488.589C351.803 488.04 355.117 487.491 356.893 489.467Z" fill="#152834"/>
<path d="M353.506 480.869L350.869 489.651C351.071 490.126 353.762 491.7 356.069 490.693L359.988 482.168L353.506 480.869Z" fill="url(#paint9_linear_1543_1963)"/>
<path d="M377.018 288.37C376.634 317.916 374.619 351.122 369.785 387.199C365.006 422.856 358.305 455.091 350.98 483.412C354.35 484.327 357.737 485.223 361.106 486.138C369.657 478.161 380.46 465.611 385.679 447.865C388.92 436.851 387.84 431.198 389.89 417.66C393.15 396.09 399.778 384.802 406.608 367.404C412.76 351.78 420.011 328.838 423.911 298.194C408.274 294.938 392.637 291.645 377.018 288.37Z" fill="#152834"/>
<path d="M407.467 285.553C409.536 323.112 411.239 361.385 412.52 400.335C413.491 429.552 414.187 458.421 414.663 486.888C418.105 487.309 421.548 487.73 425.008 488.169C428.341 481.967 432.754 472.508 435.793 460.36C439.474 445.615 438.613 436.87 440.243 421.575C442.055 404.433 444.692 400.701 449.343 379.076C458.791 335.205 463.534 313.251 452.987 299.622C449.544 295.194 438.814 284.071 407.467 285.553Z" fill="#152834"/>
<path d="M457.693 191.133C449.618 188.864 437.789 186.212 423.306 185.388C402.651 184.217 392.306 183.632 385 188.553C368.099 199.914 381.173 226.113 374.252 291.078C373.263 300.353 373.043 309.702 372.329 318.996C371.139 334.4 370.883 335.242 371.945 336.797C378.665 346.585 403.768 331.821 440.554 337.657C461.135 340.913 470.474 348.451 476.113 343.017C482.687 336.687 477.047 319.673 472.195 305.019C466.629 288.206 463.186 287.986 460.018 275.326C456.704 262.081 458.718 255.275 459.231 234.4C459.451 224.43 459.396 209.574 457.693 191.133Z" fill="url(#paint10_linear_1543_1963)"/>
<g opacity="0.3">
<path d="M407.689 313.105C417.302 312.355 423.546 317.789 431.841 313.544C443.211 307.745 446.874 289.688 446.16 276.899C445.061 257.489 433.965 252.366 435.869 239.816C436.894 233.028 441.747 224.009 459.16 214.807C459.398 222.564 459.343 229.168 459.215 234.4C458.702 255.275 456.706 262.081 460.002 275.326C463.17 287.986 466.612 288.206 472.179 305.019C477.031 319.673 482.671 336.687 476.097 343.017C470.458 348.451 461.119 340.913 440.538 337.657C408.843 332.626 385.844 342.889 375.774 339.559C387.95 319.49 398.991 313.782 407.689 313.105Z" fill="#7C8992"/>
</g>
<path d="M444.582 192.468C451.449 186.833 465.255 193.218 468.935 194.92C489.516 204.433 507.992 230.064 503.414 257.14C502.737 261.202 499.551 280.21 483.437 289.413C468.917 297.718 449.288 295.578 433.578 283.814C431.435 281.912 429.275 280.009 427.132 278.106C425.027 275.819 422.903 273.533 420.797 271.264C424.111 268.502 429.769 264.513 437.697 261.97C448.153 258.604 455.752 264.641 460.604 260.049C463.955 256.884 463.955 251.268 463.131 247.883C461.465 241.041 455.422 239.12 450.387 234.254C438.54 222.819 436.361 199.219 444.582 192.468Z" fill="#FFB800"/>
<path d="M345.924 280.887L437.934 279.515L413.471 291.315L345.686 286.887L345.924 280.887Z" fill="black"/>
<path d="M441.196 281.966C441.196 283.686 440.115 285.223 438.504 285.808L409.097 297.334L408.969 289.358L437.955 279.533C439.566 279.057 441.196 280.265 441.196 281.966Z" fill="url(#paint11_linear_1543_1963)"/>
<path d="M427.023 276.533C427.591 276.405 424.277 269.801 421.677 270.569C419.077 271.337 406.333 278.71 405.179 281.747C404.025 284.784 404.025 284.784 404.025 284.784C404.025 284.784 409.574 285.223 413.016 284.071C416.458 282.881 422.428 277.539 427.023 276.533Z" fill="#FFA797"/>
<path d="M406.516 233.321L412.998 292.34C413.217 294.371 410.361 297.408 408.329 297.316L313.169 291.48C311.612 291.407 310.294 290.254 310.037 288.718L298.099 231.729C297.751 229.662 301.468 227.521 303.574 227.576L403.293 230.375C404.959 230.394 406.333 231.656 406.516 233.321Z" fill="url(#paint12_linear_1543_1963)"/>
<path d="M404.338 235.04L410.82 294.06C411.04 296.09 409.392 297.847 407.341 297.755L310.973 293.2C309.416 293.127 308.116 291.974 307.841 290.437L297.99 233.174C297.642 231.107 299.272 229.223 301.378 229.278L401.097 232.077C402.782 232.113 404.155 233.376 404.338 235.04Z" fill="url(#paint13_linear_1543_1963)"/>
<path opacity="0.3" d="M347.756 279.351C356.179 275.783 353.195 268.996 363.137 260.525C376.248 249.347 389.614 254.195 394.284 245.542C395.748 242.853 396.444 238.645 393.899 231.857L401.113 232.059C402.78 232.114 404.153 233.376 404.336 235.022L410.818 294.042C411.038 296.072 409.39 297.829 407.339 297.737L310.97 293.182C309.414 293.109 308.114 291.956 307.839 290.419L306.484 282.516C309.414 280.888 312.893 279.406 316.976 278.583C331.13 275.729 338.07 283.467 347.756 279.351Z" fill="#26A0DA"/>
<path d="M304.909 284.931C304.744 284.455 305.092 283.961 305.586 283.943C307.619 283.833 312.343 283.796 314.961 285.388C318.349 287.455 322.725 291.242 319.044 293.145L315.602 294.92C315.437 294.993 315.272 295.029 315.089 294.993C313.862 294.718 308.717 293.584 308.15 293.291C307.637 293.054 305.678 287.236 304.909 284.931Z" fill="url(#paint14_linear_1543_1963)"/>
<path d="M421.77 162.849C421.715 168.977 422.411 173.826 423.052 177.155C423.784 180.961 424.334 181.948 425.011 182.753C426.037 183.961 427.593 184.967 436.364 187.144C441.143 188.333 441.747 188.297 441.857 188.772C442.37 191.078 429.351 198.963 415.893 197.06C407.653 195.907 400.164 191.206 400.622 188.736C401.079 186.248 409.319 187.583 411.754 183.101C413.457 179.973 411.553 175.545 409.282 171.868C411.48 167.752 419.573 166.947 421.77 162.849Z" fill="#FFA797"/>
<path d="M406.479 165.264C404.538 162.684 404.41 158.184 406.662 155.33C408.585 152.878 411.624 152.531 413.437 152.329C418.692 151.726 425.339 153.921 427.646 158.751C429.019 161.623 426.053 167.569 425.595 168.648C425.064 169.856 424.112 170.277 423.233 171.191C422.006 172.454 420.102 174.484 416.989 177.851C416.751 176.863 416.385 175.619 415.799 174.283C415.579 173.771 414.664 171.758 413.309 170.094C410.544 166.764 408.328 167.715 406.479 165.264Z" fill="black"/>
<path d="M421.438 175.015C421.438 175.015 417.978 180.686 411.093 180.229C404.922 179.826 404.025 166.014 407.962 163.087C409.28 162.117 411.898 161.696 414.041 162.3C415.304 162.648 415.725 163.178 417.813 163.709C419.735 164.203 420.266 164.001 420.852 164.477C421.566 165.081 422.097 166.581 420.889 170.606C422.061 169.417 423.471 168.959 424.478 169.435C424.643 169.508 425.064 169.801 425.302 170.24C426.162 171.832 424.716 173.844 421.438 175.015Z" fill="#FFA797"/>
<path d="M421.13 163.672C420.837 163.892 421.734 165.008 421.808 166.563C421.936 169.6 418.86 173.259 415.71 173.57C413.843 173.753 413.33 172.637 410.254 172.307C408.349 172.106 406.756 172.344 405.768 172.563C404.797 175.911 405.713 179.241 407.947 180.778C410.345 182.443 413.421 181.436 414.703 181.016C415.564 180.741 418.31 179.826 419.757 177.32C421.258 174.686 419.793 173.112 421.496 171.319C422.357 170.423 423.511 170.039 424.609 168.301C424.902 167.825 425.104 167.404 425.232 167.13C423.657 165.447 421.551 163.343 421.13 163.672Z" fill="black"/>
<path d="M407.999 173.807C407.999 173.807 409.336 174.502 411.624 174.374C411.734 174.374 411.862 174.393 411.881 174.466C411.936 174.685 410.453 175.655 409.098 175.289C408.127 175.015 407.376 174.1 407.505 173.88C407.578 173.752 407.779 173.771 407.999 173.807Z" fill="url(#paint15_linear_1543_1963)"/>
<defs>
<linearGradient id="paint0_linear_1543_1963" x1="261.379" y1="235.359" x2="373.006" y2="331.448" gradientUnits="userSpaceOnUse">
<stop stop-color="#26A0DA"/>
<stop offset="1" stop-color="white"/>
</linearGradient>
<linearGradient id="paint1_linear_1543_1963" x1="360.395" y1="273.473" x2="316.779" y2="390.65" gradientUnits="userSpaceOnUse">
<stop stop-color="#FFB800"/>
<stop offset="1" stop-color="#26A0DA"/>
</linearGradient>
<linearGradient id="paint2_linear_1543_1963" x1="372.309" y1="91.4436" x2="373.333" y2="174.207" gradientUnits="userSpaceOnUse">
<stop stop-color="#26A0DA"/>
<stop offset="1" stop-color="#FFB800"/>
</linearGradient>
<linearGradient id="paint3_linear_1543_1963" x1="300.163" y1="13.3782" x2="302.169" y2="175.55" gradientUnits="userSpaceOnUse">
<stop stop-color="#26A0DA"/>
<stop offset="1" stop-color="#FFB800"/>
</linearGradient>
<linearGradient id="paint4_linear_1543_1963" x1="125.878" y1="445.035" x2="613.628" y2="445.035" gradientUnits="userSpaceOnUse">
<stop offset="0.494" stop-color="#EBEFF2"/>
<stop offset="1" stop-color="white"/>
</linearGradient>
<linearGradient id="paint5_linear_1543_1963" x1="36.9635" y1="246.827" x2="313.636" y2="246.827" gradientUnits="userSpaceOnUse">
<stop stop-color="#26A0DA"/>
<stop offset="1"/>
</linearGradient>
<linearGradient id="paint6_linear_1543_1963" x1="176.77" y1="74.159" x2="153.179" y2="287.565" gradientUnits="userSpaceOnUse">
<stop stop-color="#26A0DA"/>
<stop offset="0.9964" stop-color="#3C3B6B"/>
</linearGradient>
<linearGradient id="paint7_linear_1543_1963" x1="378.64" y1="235.217" x2="319.257" y2="520.245" gradientUnits="userSpaceOnUse">
<stop stop-color="#FFC444"/>
<stop offset="0.9964" stop-color="#F36F56"/>
</linearGradient>
<linearGradient id="paint8_linear_1543_1963" x1="416.726" y1="488.387" x2="424.113" y2="488.387" gradientUnits="userSpaceOnUse">
<stop stop-color="#FFA797"/>
<stop offset="0.9964" stop-color="#F36F56"/>
</linearGradient>
<linearGradient id="paint9_linear_1543_1963" x1="350.87" y1="485.951" x2="359.993" y2="485.951" gradientUnits="userSpaceOnUse">
<stop stop-color="#FFA797"/>
<stop offset="0.9964" stop-color="#F36F56"/>
</linearGradient>
<linearGradient id="paint10_linear_1543_1963" x1="432.645" y1="246.468" x2="373.262" y2="531.495" gradientUnits="userSpaceOnUse">
<stop stop-color="#26A0DA"/>
<stop offset="1"/>
</linearGradient>
<linearGradient id="paint11_linear_1543_1963" x1="426.893" y1="273.247" x2="422.818" y2="301.426" gradientUnits="userSpaceOnUse">
<stop/>
<stop offset="1" stop-color="#26A0DA"/>
</linearGradient>
<linearGradient id="paint12_linear_1543_1963" x1="346.012" y1="275.715" x2="367.692" y2="244.904" gradientUnits="userSpaceOnUse">
<stop stop-color="#26A0DA"/>
<stop offset="0.9964" stop-color="#031E2B"/>
</linearGradient>
<linearGradient id="paint13_linear_1543_1963" x1="387.646" y1="326.679" x2="340.213" y2="230.247" gradientUnits="userSpaceOnUse">
<stop stop-color="#26A0DA"/>
<stop offset="1"/>
</linearGradient>
<linearGradient id="paint14_linear_1543_1963" x1="304.876" y1="289.461" x2="320.44" y2="289.461" gradientUnits="userSpaceOnUse">
<stop stop-color="#FFA797"/>
<stop offset="0.9964" stop-color="#F36F56"/>
</linearGradient>
<linearGradient id="paint15_linear_1543_1963" x1="407.5" y1="174.572" x2="411.887" y2="174.572" gradientUnits="userSpaceOnUse">
<stop stop-color="#FFC444"/>
<stop offset="0.9964" stop-color="#F36F56"/>
</linearGradient>
</defs>
</svg>
