<svg width="56" height="53" viewBox="0 0 56 53" fill="none" xmlns="http://www.w3.org/2000/svg">
<path d="M7.928 0C12.2912 0 15.8553 3.56477 15.8553 7.92733V44.4482C15.8553 48.8115 12.2912 52.3756 7.928 52.3756C3.56477 52.3756 0 48.8115 0 44.4482V7.92733C0 3.56477 3.56477 0 7.928 0ZM27.8423 37.0568C28.9753 37.0568 29.8943 37.9751 29.8943 39.1088C29.8943 40.2419 28.9753 41.1608 27.8423 41.1608C26.7085 41.1608 25.7902 40.2419 25.7902 39.1088C25.7902 37.9751 26.7085 37.0568 27.8423 37.0568ZM46.3117 37.0568C47.4448 37.0568 48.3638 37.9751 48.3638 39.1088C48.3638 40.2419 47.4448 41.1608 46.3117 41.1608C45.1787 41.1608 44.2597 40.2419 44.2597 39.1088C44.2597 37.9751 45.1787 37.0568 46.3117 37.0568ZM37.077 37.0568C38.21 37.0568 39.129 37.9751 39.129 39.1088C39.129 40.2419 38.21 41.1608 37.077 41.1608C35.9433 41.1608 35.025 40.2419 35.025 39.1088C35.025 37.9751 35.9433 37.0568 37.077 37.0568ZM27.8423 21.4486C28.9753 21.4486 29.8943 22.3675 29.8943 23.5006C29.8943 24.6343 28.9753 25.5526 27.8423 25.5526C26.7085 25.5526 25.7902 24.6343 25.7902 23.5006C25.7902 22.3675 26.7085 21.4486 27.8423 21.4486ZM46.3117 21.4486C47.4448 21.4486 48.3638 22.3675 48.3638 23.5006C48.3638 24.6343 47.4448 25.5526 46.3117 25.5526C45.1787 25.5526 44.2597 24.6343 44.2597 23.5006C44.2597 22.3675 45.1787 21.4486 46.3117 21.4486ZM37.077 21.4486C38.21 21.4486 39.129 22.3675 39.129 23.5006C39.129 24.6343 38.21 25.5526 37.077 25.5526C35.9433 25.5526 35.025 24.6343 35.025 23.5006C35.025 22.3675 35.9433 21.4486 37.077 21.4486ZM27.8423 29.2527C28.9753 29.2527 29.8943 30.171 29.8943 31.3047C29.8943 32.4377 28.9753 33.3567 27.8423 33.3567C26.7085 33.3567 25.7902 32.4377 25.7902 31.3047C25.7902 30.171 26.7085 29.2527 27.8423 29.2527ZM46.3117 29.2527C47.4448 29.2527 48.3638 30.171 48.3638 31.3047C48.3638 32.4377 47.4448 33.3567 46.3117 33.3567C45.1787 33.3567 44.2597 32.4377 44.2597 31.3047C44.2597 30.171 45.1787 29.2527 46.3117 29.2527ZM37.077 29.2527C38.21 29.2527 39.129 30.171 39.129 31.3047C39.129 32.4377 38.21 33.3567 37.077 33.3567C35.9433 33.3567 35.025 32.4377 35.025 31.3047C35.025 30.171 35.9433 29.2527 37.077 29.2527ZM26.6903 9.82113H47.4636C48.2331 9.82113 48.8572 10.4459 48.8572 11.2154V17.7491C48.8572 18.5186 48.2331 19.1427 47.4636 19.1427H26.6903C25.9208 19.1427 25.2968 18.5186 25.2968 17.7491V11.2154C25.2968 10.4459 25.9208 9.82113 26.6903 9.82113ZM46.0694 12.6097H28.0846V16.3549H46.0694V12.6097ZM52.9384 5.97091H21.2156V46.4046H52.9384V5.97091ZM19.822 3.18305H54.332C55.1021 3.18305 55.7262 3.80781 55.7262 4.57732V47.7989C55.7262 48.5684 55.1021 49.1925 54.332 49.1925H19.822C19.0518 49.1925 18.4278 48.5684 18.4278 47.7989V4.57732C18.4278 3.80781 19.0518 3.18305 19.822 3.18305ZM7.928 2.78853C5.10378 2.78853 2.78853 5.10378 2.78853 7.92733V44.4482C2.78853 47.2724 5.10378 49.5877 7.928 49.5877C10.7515 49.5877 13.0675 47.2724 13.0675 44.4482V7.92733C13.0675 5.10378 10.7515 2.78853 7.928 2.78853Z" fill="#26A0DA"/>
</svg>
