<svg width="52" height="52" viewBox="0 0 52 52" fill="none" xmlns="http://www.w3.org/2000/svg">
<path d="M3.07483 29.25C3.07031 24.7393 4.62972 20.3665 7.48743 16.8765C10.3451 13.3865 14.3244 10.9951 18.7474 10.1098C23.1703 9.22442 27.7635 9.89981 31.7444 12.0209C35.7253 14.142 38.8477 17.5776 40.5798 21.7425L43.5861 20.4912C42.0681 16.8588 39.6335 13.6825 36.5203 11.2729C33.407 8.86317 29.7218 7.30261 25.8248 6.74375V3.25H27.4498C28.3118 3.25 29.1384 2.90759 29.7479 2.2981C30.3574 1.6886 30.6998 0.861954 30.6998 0L17.6998 0.0975C17.6961 0.0651089 17.6961 0.0323911 17.6998 0L14.4498 0C14.4498 0.861954 14.7922 1.6886 15.4017 2.2981C16.0112 2.90759 16.8379 3.25 17.6998 3.25H19.3248V6.76C13.6688 7.62138 8.54497 10.5822 4.97437 15.0525C1.40377 19.5228 -0.351437 25.1743 0.0585157 30.8808C0.468468 36.5873 3.01348 41.9299 7.1864 45.8439C11.3593 49.7579 16.8538 51.9559 22.5748 52V48.75C17.4031 48.75 12.4432 46.6955 8.78625 43.0386C5.12929 39.3816 3.07483 34.4217 3.07483 29.25Z" fill="#26A0DA"/>
<path d="M24.2002 17.875H20.9502V29.25C20.949 29.4639 20.99 29.6759 21.0708 29.8738C21.1517 30.0718 21.2709 30.2519 21.4215 30.4037L23.0465 32.0287L25.3377 29.7375L24.2002 28.5838V17.875Z" fill="#26A0DA"/>
<path d="M38.8252 26C36.254 26 33.7406 26.7624 31.6028 28.1909C29.465 29.6194 27.7987 31.6497 26.8148 34.0251C25.8308 36.4006 25.5734 39.0144 26.075 41.5362C26.5766 44.0579 27.8147 46.3743 29.6328 48.1924C31.4509 50.0105 33.7673 51.2486 36.289 51.7502C38.8108 52.2518 41.4246 51.9944 43.8001 51.0104C46.1755 50.0265 48.2058 48.3603 49.6343 46.2224C51.0628 44.0846 51.8252 41.5712 51.8252 39C51.8252 35.5522 50.4556 32.2456 48.0176 29.8076C45.5796 27.3696 42.273 26 38.8252 26ZM38.8252 48.75C36.8968 48.75 35.0118 48.1782 33.4084 47.1068C31.805 46.0355 30.5553 44.5127 29.8174 42.7312C29.0794 40.9496 28.8863 38.9892 29.2625 37.0979C29.6388 35.2066 30.5673 33.4693 31.9309 32.1057C33.2945 30.7421 35.0318 29.8135 36.9231 29.4373C38.8144 29.0611 40.7748 29.2542 42.5564 29.9922C44.3379 30.7301 45.8607 31.9798 46.932 33.5832C48.0034 35.1866 48.5752 37.0716 48.5752 39C48.5752 41.5859 47.548 44.0658 45.7195 45.8943C43.891 47.7228 41.4111 48.75 38.8252 48.75Z" fill="#26A0DA"/>
<path d="M40.4502 34.125H37.2002V39C37.2002 39.431 37.3714 39.8443 37.6761 40.149C37.9809 40.4538 38.3942 40.625 38.8252 40.625H43.7002V37.375H40.4502V34.125Z" fill="#26A0DA"/>
</svg>
