<svg width="46" height="58" viewBox="0 0 46 58" fill="none" xmlns="http://www.w3.org/2000/svg">
<path d="M23.2896 57.9499C17.6896 57.9499 0.889648 39.7499 0.889648 23.6499C0.889648 11.0499 11.0396 0.899902 23.2896 0.899902C35.5396 0.899902 45.6896 11.0499 45.6896 23.6499C45.6896 39.3999 28.8897 57.9499 23.2896 57.9499ZM23.2896 4.0499C12.7896 4.0499 4.38965 12.7999 4.38965 23.2999C4.38965 37.6499 20.1397 54.0999 23.2896 54.0999C26.4396 53.7499 42.1896 37.6499 42.1896 23.2999C42.1896 12.7999 33.7896 4.0499 23.2896 4.0499ZM23.2896 37.9999C15.2396 37.9999 8.93965 31.3499 8.93965 23.6499C8.93965 20.4999 9.98965 17.6999 11.7396 15.2499C12.0896 14.5499 12.7896 14.1999 13.4896 14.1999C14.1896 14.5499 14.8897 15.2499 14.8897 15.9499C14.8897 17.6999 16.2896 19.0999 18.0396 19.0999C19.7896 19.0999 21.1896 17.6999 21.1896 15.5999C21.1896 14.1999 20.4896 13.1499 19.4396 12.4499C18.7396 12.0999 18.3897 11.3999 18.3897 10.6999C18.3897 9.9999 19.0896 9.2999 19.7896 9.2999C20.8397 8.9499 21.8896 8.9499 22.9396 8.9499C30.9896 8.9499 37.2896 15.5999 37.2896 23.2999C37.6396 31.3499 30.9897 37.9999 23.2896 37.9999ZM13.1397 20.1499C12.7897 21.1999 12.4396 22.2499 12.4396 23.2999C12.4396 29.2499 17.3396 34.1499 23.2896 34.1499C29.2397 34.1499 34.1397 29.2499 34.1397 23.2999C34.1397 17.6999 29.9397 12.7999 24.3397 12.4499C24.6897 13.4999 25.0396 14.5499 25.0396 15.5999C25.0396 19.4499 21.8897 22.5999 18.3897 22.5999C15.9397 22.5999 14.1897 21.5499 13.1397 20.1499Z" fill="#26A0DA"/>
</svg>
