<svg width="34" height="18" viewBox="0 0 34 18" fill="none" xmlns="http://www.w3.org/2000/svg">
<path d="M16.9042 1.73332C16.5107 1.33143 15.8633 1.33294 15.4718 1.73667L14.9204 2.30521C14.5429 2.69442 14.5443 3.31355 14.9236 3.70099L17.0871 5.91087C17.7065 6.54348 17.2589 7.60953 16.3736 7.61044L0.999956 7.62621C0.447688 7.62678 0.00044063 8.07492 0.00098419 8.62719L0.00179957 9.45564C0.00234316 10.0079 0.450526 10.4552 1.00283 10.4547L16.3336 10.4389C17.2176 10.438 17.6679 11.5005 17.0524 12.1351L14.9477 14.3052C14.5702 14.6944 14.5716 15.3135 14.951 15.701L15.5049 16.2667C15.8983 16.6686 16.5457 16.6671 16.9372 16.2634L23.3216 9.68083C23.6991 9.29163 23.6976 8.67249 23.3183 8.28505L16.9042 1.73332Z" fill="white"/>
<path d="M33.4609 7.84569L24.4605 0.344423C24.1545 0.091303 23.7607 -0.0302398 23.3653 0.00641032C22.97 0.0430605 22.6052 0.234917 22.351 0.539965C22.0967 0.845014 21.9737 1.23839 22.0089 1.63396C22.044 2.02953 22.2345 2.39504 22.5385 2.65046L30.1561 8.99876L22.5385 15.3471C22.2333 15.6021 22.0418 15.9679 22.0061 16.3641C21.9703 16.7603 22.0933 17.1545 22.348 17.46C22.6027 17.7656 22.9682 17.9576 23.3643 17.9938C23.7604 18.03 24.1547 17.9074 24.4605 17.6531L33.4609 10.1517C33.6297 10.0107 33.7654 9.83437 33.8586 9.63513C33.9517 9.4359 34 9.21864 34 8.99871C34 8.77877 33.9517 8.56151 33.8586 8.36228C33.7654 8.16305 33.6297 7.9867 33.4609 7.84569Z" fill="white"/>
</svg>
